<svg width="513" height="450" viewBox="0 0 513 450" fill="none" xmlns="http://www.w3.org/2000/svg">
<path d="M30.4597 1.99997C17.0597 6.79997 6.75967 17.2 2.05967 30.8C0.259668 36.1 0.159668 40.4 0.159668 135C0.159668 230.2 0.259668 233.9 2.05967 239.3C6.75967 253 17.1597 263.4 30.9597 268.1C35.1597 269.6 39.2597 270 48.3597 270H60.1597V295.2C60.1597 319.7 60.2597 320.5 62.3597 323.7C65.5597 328.3 70.2597 330.3 76.5597 329.8C81.2597 329.4 84.2597 327.6 115.66 306.7L149.66 284L150.16 320.2C150.56 351 150.96 357.1 152.36 360.7C157.56 373.6 167.86 383.6 180.86 388.1C186.26 389.9 189.76 390 264.06 390H341.66L386.16 419.7C427.66 447.4 430.96 449.4 435.76 449.8C442.06 450.3 446.76 448.3 449.86 443.7C452.06 440.5 452.16 439.7 452.16 415.2V390H463.96C473.16 390 477.16 389.6 481.46 388.1C495.16 383.4 505.56 373 510.26 359.2C512.06 353.9 512.16 349.6 512.16 255C512.16 159.8 512.06 156.1 510.26 150.7C505.56 137 495.16 126.6 481.36 121.9C476.16 120.1 472.36 120 418.96 120H362.16V78.2C362.16 39.6 362.06 35.9 360.26 30.8C355.56 17 345.16 6.59997 331.46 1.89997C325.96 0.0999689 321.96 -3.11177e-05 180.76 0.0999689C41.9597 0.0999689 35.4597 0.199969 30.4597 1.99997ZM324.16 32.5C326.06 33.7 328.46 36.1 329.66 38C331.66 41.5 331.66 42.8 331.66 135V228.5L329.46 232C328.26 233.9 325.76 236.4 323.96 237.5C320.76 239.4 318.46 239.5 239.66 240L158.66 240.5L124.66 263.3L90.6597 286L90.1597 267.3C89.4597 240.1 90.0597 240.7 61.6597 240C39.2597 239.4 37.0597 238.8 32.8597 232L30.6597 228.5V135C30.6597 47.4 30.7597 41.3 32.4597 38.3C34.4597 34.5 37.8597 32.1 42.4597 31C44.1597 30.5 107.56 30.3 183.16 30.3C319.56 30.5 320.66 30.5 324.16 32.5ZM474.16 152.5C476.06 153.7 478.46 156.1 479.66 158C481.66 161.5 481.66 162.8 481.66 255V348.5L479.46 352C475.26 358.8 473.06 359.4 450.66 360C422.26 360.7 422.86 360.1 422.16 387.3L421.66 406L387.66 383.3L353.66 360.5L272.66 360C193.86 359.5 191.56 359.4 188.36 357.5C186.56 356.4 184.06 353.9 182.86 352C180.76 348.6 180.66 347.6 180.36 309.2L180.06 270H252.96C322.16 270 326.16 269.9 331.36 268.1C345.16 263.4 355.56 253 360.26 239.3C362.06 234.1 362.16 230.7 362.16 191.8V149.9L416.46 150.2C468.86 150.5 470.76 150.6 474.16 152.5Z" fill="#8A8A8E"/>
<path d="M66.7597 91.9C62.1597 95 60.1597 98.8 60.1597 105C60.1597 111.2 62.1597 115 66.7597 118.1C69.5597 119.9 73.6597 120 181.16 120C288.66 120 292.76 119.9 295.56 118.1C300.16 115 302.16 111.2 302.16 105C302.16 98.8 300.16 95 295.56 91.9C292.76 90.1 288.66 90 181.16 90C73.6597 90 69.5597 90.1 66.7597 91.9Z" fill="#8A8A8E"/>
<path d="M66.7597 151.9C62.1597 155 60.1597 158.8 60.1597 165C60.1597 171.2 62.1597 175 66.7597 178.1C69.5597 179.9 72.6597 180 135.16 180C197.66 180 200.76 179.9 203.56 178.1C208.16 175 210.16 171.2 210.16 165C210.16 158.8 208.16 155 203.56 151.9C200.76 150.1 197.66 150 135.16 150C72.6597 150 69.5597 150.1 66.7597 151.9Z" fill="#8A8A8E"/>
</svg>
