<svg width="513" height="513" viewBox="0 0 513 513" fill="none" xmlns="http://www.w3.org/2000/svg">
<mask id="mask0_503_77" style="mask-type:luminance" maskUnits="userSpaceOnUse" x="0" y="0" width="513" height="513">
<path d="M512.16 0.923828H0.160156V512.924H512.16V0.923828Z" fill="white"/>
</mask>
<g mask="url(#mask0_503_77)">
<path d="M30.4602 33.9241C17.0602 38.7241 6.76016 49.1241 2.06016 62.7241C0.260156 68.0241 0.160156 72.3241 0.160156 166.924C0.160156 263.424 0.160156 265.624 2.16016 271.524C5.06016 279.724 10.7602 287.624 17.8602 293.024C26.2602 299.424 33.9602 301.824 48.4602 302.624L60.1602 303.224V327.724C60.1602 350.324 60.2602 352.424 62.1602 355.424C65.1602 360.324 69.7602 362.324 76.5602 361.724C82.1602 361.224 83.3602 360.524 125.36 332.324L168.46 303.424L247.06 302.924L325.66 302.324L332.06 300.024C344.86 295.324 355.76 284.124 360.16 271.524C362.16 265.624 362.16 263.424 362.16 166.924C362.16 72.3241 362.06 68.0241 360.26 62.7241C355.56 48.9241 345.16 38.5241 331.46 33.8241C325.96 32.0241 321.96 31.9241 180.76 32.0241C41.9602 32.0241 35.4602 32.1241 30.4602 33.9241ZM294.26 124.424C303.56 129.324 303.36 144.424 293.96 149.624C290.86 151.324 284.66 151.424 181.16 151.424C77.6602 151.424 71.4602 151.324 68.3602 149.624C59.1602 144.624 58.6602 130.224 67.4602 124.924C70.5602 123.024 73.3602 122.924 180.96 122.924C278.56 122.924 291.56 123.124 294.26 124.424ZM204.86 184.924C213.66 190.224 213.16 204.624 203.96 209.624C200.86 211.324 196.36 211.424 136.16 211.424C75.9602 211.424 71.4602 211.324 68.3602 209.624C59.1602 204.624 58.6602 190.224 67.4602 184.924C70.5602 183.024 72.9602 182.924 136.16 182.924C199.36 182.924 201.76 183.024 204.86 184.924Z" fill="#F7C415"/>
<path d="M391.86 209.124C391.46 273.124 391.36 273.224 384.36 288.124C377.06 303.724 364.06 316.824 348.56 324.024C332.76 331.524 336.26 331.224 252.66 331.624L177.66 332.024L163.96 341.124L150.16 350.224V367.824C150.16 383.024 150.46 386.424 152.16 391.524C156.56 404.124 167.46 415.324 180.26 420.024L186.66 422.324L265.16 422.924L343.76 423.424L386.86 452.324C428.86 480.524 430.16 481.224 435.76 481.724C442.56 482.324 447.16 480.324 450.16 475.424C452.06 472.424 452.16 470.324 452.16 447.724V423.224L463.96 422.624C478.36 421.824 486.06 419.424 494.46 413.024C501.56 407.624 507.26 399.724 510.16 391.524C512.16 385.624 512.16 383.424 512.16 286.924C512.16 192.324 512.06 188.024 510.26 182.724C505.56 168.924 495.16 158.524 481.46 153.824C476.26 152.024 472.86 151.924 434.06 151.924H392.36L391.86 209.124Z" fill="#F7C415"/>
</g>
</svg>
