<svg width="513" height="513" viewBox="0 0 513 513" fill="none" xmlns="http://www.w3.org/2000/svg">
<g clip-path="url(#clip0_370_111)">
<path d="M30.4597 33.924C17.0597 38.724 6.75967 49.124 2.05967 62.724C0.259668 68.024 0.159668 72.324 0.159668 166.924C0.159668 263.424 0.159668 265.624 2.15967 271.524C5.05967 279.724 10.7597 287.624 17.8597 293.024C26.2597 299.424 33.9597 301.824 48.4597 302.624L60.1597 303.224V327.724C60.1597 350.324 60.2597 352.424 62.1597 355.424C65.1597 360.324 69.7597 362.324 76.5597 361.724C82.1597 361.224 83.3597 360.524 125.36 332.324L168.46 303.424L247.06 302.924L325.66 302.324L332.06 300.024C344.86 295.324 355.76 284.124 360.16 271.524C362.16 265.624 362.16 263.424 362.16 166.924C362.16 72.324 362.06 68.024 360.26 62.724C355.56 48.924 345.16 38.524 331.46 33.824C325.96 32.024 321.96 31.924 180.76 32.024C41.9597 32.024 35.4597 32.124 30.4597 33.924ZM294.26 124.424C303.56 129.324 303.36 144.424 293.96 149.624C290.86 151.324 284.66 151.424 181.16 151.424C77.6597 151.424 71.4597 151.324 68.3597 149.624C59.1597 144.624 58.6597 130.224 67.4597 124.924C70.5597 123.024 73.3597 122.924 180.96 122.924C278.56 122.924 291.56 123.124 294.26 124.424ZM204.86 184.924C213.66 190.224 213.16 204.624 203.96 209.624C200.86 211.324 196.36 211.424 136.16 211.424C75.9597 211.424 71.4597 211.324 68.3597 209.624C59.1597 204.624 58.6597 190.224 67.4597 184.924C70.5597 183.024 72.9597 182.924 136.16 182.924C199.36 182.924 201.76 183.024 204.86 184.924Z" fill="#007AFF"/>
<path d="M391.86 209.124C391.46 273.124 391.36 273.224 384.36 288.124C377.06 303.724 364.06 316.824 348.56 324.024C332.76 331.524 336.26 331.224 252.66 331.624L177.66 332.024L163.96 341.124L150.16 350.224V367.824C150.16 383.024 150.46 386.424 152.16 391.524C156.56 404.124 167.46 415.324 180.26 420.024L186.66 422.324L265.16 422.924L343.76 423.424L386.86 452.324C428.86 480.524 430.16 481.224 435.76 481.724C442.56 482.324 447.16 480.324 450.16 475.424C452.06 472.424 452.16 470.324 452.16 447.724V423.224L463.96 422.624C478.36 421.824 486.06 419.424 494.46 413.024C501.56 407.624 507.26 399.724 510.16 391.524C512.16 385.624 512.16 383.424 512.16 286.924C512.16 192.324 512.06 188.024 510.26 182.724C505.56 168.924 495.16 158.524 481.46 153.824C476.26 152.024 472.86 151.924 434.06 151.924H392.36L391.86 209.124Z" fill="#007AFF"/>
</g>
<defs>
<clipPath id="clip0_370_111">
<rect width="512" height="512" fill="white" transform="translate(0.159668 0.92395)"/>
</clipPath>
</defs>
</svg>
