<svg width="285" height="173" viewBox="0 0 285 173" fill="none" xmlns="http://www.w3.org/2000/svg">
<path d="M32.2648 1.3397C24.7725 3.00036 19.9064 9.5658 20.3698 17.4057C20.6788 22.967 23.8842 27.6787 29.1366 30.2662C31.4924 31.4248 31.9559 31.5021 35.7406 31.5021C39.564 31.5021 39.9116 31.4248 42.2288 30.2276C47.5198 27.4856 50.4549 22.8898 50.7253 16.9809C50.8411 14.4706 50.7253 13.1189 50.2232 11.5741C48.3695 6.01274 43.8509 2.1121 38.2123 1.18522C35.4317 0.721773 34.9682 0.721773 32.2648 1.3397Z" fill="#576475"/>
<path d="M63.3319 7.47101C57.689 8.72177 54.024 13.6666 54.373 19.5713C54.6057 23.7599 57.02 27.3086 60.9759 29.2574C62.7502 30.1301 63.0992 30.1882 65.9498 30.1882C68.8294 30.1882 69.0912 30.1301 70.8365 29.2283C74.8214 27.1631 77.0321 23.7018 77.2357 19.2514C77.323 17.3607 77.2357 16.3427 76.8576 15.1792C75.4614 10.9906 72.0581 8.05276 67.8114 7.35466C65.7171 7.00561 65.3681 7.00561 63.3319 7.47101Z" fill="#576475"/>
<path d="M92.6568 12.8622C88.2273 13.844 85.3505 17.7255 85.6244 22.3604C85.8071 25.6483 87.7022 28.4338 90.8074 29.9636C92.2001 30.6485 92.4741 30.6942 94.7117 30.6942C96.9721 30.6942 97.1776 30.6485 98.5475 29.9407C101.676 28.3197 103.411 25.6026 103.571 22.1093C103.639 20.6252 103.571 19.826 103.274 18.9128C102.178 15.6249 99.5065 13.3188 96.173 12.7709C94.529 12.4969 94.2551 12.4969 92.6568 12.8622Z" fill="#576475"/>
<path d="M169.382 55.0089C171.313 58.8702 172.879 62.1123 172.879 62.2216C172.879 62.3309 163.372 62.4037 151.751 62.4037H130.623V110.416V158.464L157.325 158.682C171.969 158.828 189.745 159.047 196.74 159.192L209.489 159.411L209.38 155.44C209.161 149.43 210.764 144.33 214.043 140.614L215.573 138.902H191.858H168.144V137.445V135.988L191.203 135.915C203.843 135.879 214.881 135.842 215.682 135.842C216.593 135.806 217.576 135.478 218.305 134.968C221.547 132.673 227.12 130.888 231.164 130.888C235.317 130.888 241.109 132.782 244.169 135.114L245.334 135.988H259.177C270.724 135.988 273.056 135.915 273.056 135.478C273.056 134.531 270.834 126.08 270.178 124.586C268.393 120.433 264.386 117.81 252.474 113.038C250.07 112.091 245.371 110.343 242.019 109.213L235.936 107.137L224.133 94.6788C204.134 73.6599 200.091 70.0536 192.113 66.2287C187.997 64.2616 184.318 63.278 178.562 62.6587L174.264 62.2216L170.366 55.4096C168.217 51.6575 166.322 48.4519 166.177 48.3062C165.994 48.124 167.452 51.184 169.382 55.0089ZM193.097 77.7399C195.902 77.922 198.415 78.177 198.67 78.2498C198.889 78.3227 199.107 78.8691 199.107 79.4155C199.107 79.9619 199.69 86.8832 200.419 94.7516C201.147 102.62 201.694 109.104 201.621 109.177C201.366 109.396 186.175 106.955 184.063 106.336C181.44 105.571 179.436 103.676 178.562 101.163C177.87 99.0865 175.429 82.8762 175.429 80.2534C175.429 78.7598 175.575 78.3591 176.449 77.7034C177.396 76.9384 177.651 76.902 182.715 77.1206C185.629 77.2663 190.292 77.5213 193.097 77.7399ZM204.244 81.9655C207.121 84.9161 214.808 93.2217 216.338 95.0795C216.848 95.6623 216.921 96.0266 216.666 96.5366C216.192 97.3744 215.937 109.614 216.374 110.816C216.593 111.472 216.556 111.654 216.192 111.508C215.901 111.399 213.059 110.926 209.854 110.488C206.648 110.015 203.879 109.541 203.734 109.396C203.588 109.25 202.896 103.166 202.204 95.8809C201.512 88.5953 200.856 81.7469 200.747 80.6905C200.601 79.6705 200.637 78.7963 200.819 78.7963C201.002 78.7963 202.532 80.2169 204.244 81.9655ZM162.68 79.707C163.226 79.9984 164.064 80.7998 164.464 81.4555C165.229 82.694 165.229 82.8033 165.229 118.648V154.566H157.944H150.658V145.095V135.624H149.383H148.108V145.095V154.566H140.823H133.537V118.758C133.537 85.3897 133.574 82.9126 134.193 81.7833C134.521 81.1276 135.322 80.2898 135.905 79.8891C136.925 79.197 137.654 79.1605 149.311 79.1605C159.474 79.1605 161.805 79.2698 162.68 79.707ZM187.596 115.443C188.288 116.135 188.325 116.39 187.742 116.973C187.086 117.628 176.741 117.592 176.194 116.9C175.684 116.28 176.012 115.333 176.814 115.115C177.178 115.006 179.582 114.933 182.241 114.896C186.139 114.86 187.123 114.969 187.596 115.443ZM260.015 119.996C265.37 121.125 268.939 124.877 270.688 131.179C271.052 132.418 271.271 133.511 271.198 133.62C270.834 133.948 265.442 132.637 263.402 131.653C259.578 129.868 253.968 123.967 253.676 121.38C253.567 120.579 253.749 120.47 255.57 120.069C256.663 119.85 257.683 119.632 257.829 119.632C257.975 119.595 258.958 119.778 260.015 119.996Z" fill="#576475"/>
<path d="M137.143 83.1312L136.087 84.224L136.16 109.833L136.269 135.442H142.098C146.542 135.442 147.926 135.332 147.89 134.968C147.853 134.749 147.817 123.056 147.817 109.031C147.744 84.0419 147.744 83.5319 147.015 82.8033C146.36 82.1476 145.813 82.0748 142.243 82.0748C138.273 82.0748 138.2 82.0748 137.143 83.1312Z" fill="#576475"/>
<path d="M151.532 82.8398C150.877 83.5684 150.84 84.5155 150.804 105.534C150.804 117.556 150.84 129.285 150.913 131.544L151.059 135.66L156.778 135.551L162.497 135.442L162.606 110.306C162.643 96.4638 162.606 84.8069 162.497 84.3698C162.388 83.9327 161.951 83.2041 161.513 82.8034C160.821 82.1477 160.239 82.0748 156.486 82.0748C152.625 82.0748 152.152 82.1477 151.532 82.8398Z" fill="#576475"/>
<path d="M113.793 53.9162C113.757 55.3004 113.757 57.7411 113.83 59.3804L113.939 62.3674L64.4701 62.4767L14.9647 62.586L13.2161 63.4603C11.2126 64.4074 10.6298 65.3545 9.82834 68.8152C8.00695 76.7929 5.67557 100.981 5.67557 112.31V117.701L8.69908 117.665L11.6862 117.592L11.7954 120.215L11.9047 122.874H8.58979H5.31129V125.06V127.245H8.58979C11.8319 127.245 11.8683 127.245 11.8683 128.156C11.8683 129.067 11.8319 129.067 8.58979 129.067C5.56628 129.067 5.31129 129.103 5.31129 129.795C5.31129 130.487 5.56628 130.524 8.58979 130.524C11.8319 130.524 11.8683 130.524 11.8683 131.435C11.8683 132.345 11.8319 132.345 8.58979 132.345H5.31129V134.167V135.988H22.7602C39.6627 135.988 40.2091 135.952 41.1198 135.26C42.9412 133.839 47.5311 131.945 50.3361 131.435C56.2374 130.415 62.7944 131.872 67.0929 135.114L68.2221 135.988H91.0259H113.866V137.445V138.902H92.0095C79.9883 138.902 70.1528 139.012 70.1528 139.121C70.1528 139.267 70.6628 139.922 71.2821 140.651C73.0306 142.618 75.1434 147.317 75.617 150.268C75.872 151.725 75.9812 154.166 75.872 155.732L75.6898 158.573L94.6687 158.646L113.684 158.755L113.538 164.766C113.465 168.081 113.393 170.813 113.32 170.886C113.283 170.922 101.554 170.922 87.2374 170.886L61.228 170.777L62.8672 169.902C65.1986 168.664 69.06 164.584 70.2257 162.18C73.6134 155.149 72.0835 146.589 66.4736 141.27C63.8144 138.72 60.6451 137.19 56.7838 136.644C49.8625 135.624 42.7955 138.975 39.1892 144.949C35.0364 151.834 36.2021 161.378 41.9212 166.915C42.7227 167.717 44.3619 168.955 45.5276 169.647L47.7133 170.959L24.2173 171.032C1.04924 171.141 0.757812 171.141 0.757812 171.869C0.757812 172.598 1.04924 172.598 60.0623 172.707L119.33 172.78V112.128V51.4755H116.598H113.866L113.793 53.9162Z" fill="#576475"/>
<path d="M28.5341 31.6656C21.1576 32.8242 14.3991 36.9179 11.0778 42.3247C8.2971 46.7661 8.104 45.9937 13.5108 51.6708L18.2611 56.6915L18.2997 54.9536C18.2997 53.0998 19.1108 51.4777 20.0763 51.4777C20.5011 51.4777 20.6169 52.2115 20.6169 55.2239C20.6556 58.3521 20.7714 59.1632 21.3507 59.8583L22.0845 60.7466H35.0609H48.0373V56.3053C48.0373 52.6363 48.1531 51.7867 48.6166 51.5936C48.9642 51.4777 49.5821 51.7095 49.9683 52.057C50.6248 52.675 50.7407 53.2543 50.7407 56.7687V60.7466H56.3406H61.9406V57.1549C61.9406 52.4046 61.1295 48.8902 59.1985 44.9123C56.2634 38.9262 50.4704 34.2531 43.596 32.3607C41.3174 31.7042 31.1216 31.2407 28.5341 31.6656Z" fill="#576475"/>
<path d="M61.4412 33.7369C55.8855 34.6095 50.7952 37.6928 48.2937 41.765C46.1994 45.11 46.054 44.5283 50.1262 48.8041L53.704 52.5855L53.7331 51.2765C53.7331 49.8804 54.3439 48.6587 55.0711 48.6587C55.391 48.6587 55.4783 49.2113 55.4783 51.4802C55.5074 53.8362 55.5947 54.4471 56.031 54.9706L56.5836 55.6396H66.357H76.1303V52.2946C76.1303 49.5313 76.2176 48.8914 76.5666 48.7459C76.8284 48.6587 77.2938 48.8332 77.5847 49.095C78.0792 49.5604 78.1664 49.9967 78.1664 52.6437V55.6396H82.3841H86.6018V52.9345C86.6018 49.3568 85.9909 46.7098 84.5366 43.7138C82.3259 39.2053 77.9628 35.6857 72.7853 34.2604C71.0691 33.766 63.3901 33.4169 61.4412 33.7369Z" fill="#576475"/>
<path d="M91.1729 33.4798C86.8119 34.1647 82.8163 36.585 80.8527 39.7815C79.2088 42.4072 79.0946 41.9505 82.2911 45.3069L85.0995 48.2751L85.1223 47.2476C85.1223 46.1517 85.6018 45.1927 86.1726 45.1927C86.4238 45.1927 86.4923 45.6265 86.4923 47.4075C86.5151 49.2569 86.5836 49.7364 86.9261 50.1473L87.3599 50.6725H95.0315H102.703V48.0468C102.703 45.8777 102.772 45.3754 103.046 45.2612C103.251 45.1927 103.616 45.3297 103.845 45.5352C104.233 45.9005 104.301 46.243 104.301 48.3208V50.6725H107.612H110.923V48.5491C110.923 45.7407 110.443 43.663 109.302 41.3112C107.566 37.7722 104.142 35.0095 100.077 33.8907C98.7304 33.5026 92.7026 33.2286 91.1729 33.4798Z" fill="#576475"/>
<path d="M226.72 136.935C219.288 138.72 214.298 144.403 213.314 152.089C212.44 159.265 215.901 166.26 222.093 169.829L224.06 170.959H177.36H130.623V171.869V172.78H207.34H284.021L283.911 171.942L283.802 171.141L260.67 171.032L237.539 170.959L239.506 169.829C251.746 162.799 251.272 144.294 238.704 138.319C234.624 136.389 230.763 135.952 226.72 136.935Z" fill="#576475"/>
<path d="M9.13617 138.793L5.12911 138.939L5.23839 142.144C5.38411 145.204 5.34768 145.423 4.58269 145.824C3.81771 146.224 3.78128 146.443 3.99985 148.628C4.29127 151.47 4.9834 153.255 5.96695 153.801C7.13264 154.421 17.6603 156.752 18.2431 156.533C18.5345 156.424 21.2666 156.679 24.3266 157.08C27.3865 157.517 30.5922 157.954 31.3936 158.063L32.9235 158.282V154.676C32.9235 149.102 34.1985 145.131 37.4406 140.797L38.8613 138.866L26.7308 138.902C20.0645 138.939 14.2725 138.866 13.8718 138.793C13.4711 138.757 11.3583 138.72 9.13617 138.793Z" fill="#576475"/>
<path d="M247.556 140.614C249.232 142.545 251.236 146.516 251.891 149.211C252.328 151.069 252.474 157.954 252.11 158.573C251.272 159.921 264.787 157.189 269.413 155.076C271.999 153.91 272.947 153 274.003 150.741C275.059 148.556 275.096 147.754 274.185 147.463C273.493 147.244 272.619 145.532 271.999 143.091C271.562 141.452 271.854 141.088 273.712 141.088C274.804 141.088 274.914 141.015 274.804 140.068L274.695 139.084L260.379 138.975L246.026 138.902L247.556 140.614Z" fill="#576475"/>
</svg>
