<svg width="284" height="130" viewBox="0 0 284 130" fill="none" xmlns="http://www.w3.org/2000/svg">
<g clip-path="url(#clip0_504_120)">
<path d="M245.695 1.35299C238.203 3.01366 233.337 9.57909 233.8 17.419C234.109 22.9803 237.314 27.692 242.567 30.2795C244.923 31.4381 245.386 31.5154 249.171 31.5154C252.994 31.5154 253.342 31.4381 255.659 30.2409C260.95 27.4989 263.885 22.9031 264.155 16.9942C264.271 14.4838 264.155 13.1321 263.653 11.5873C261.8 6.02603 257.281 2.12539 251.643 1.19851C248.862 0.735069 248.398 0.735069 245.695 1.35299Z" fill="#576475"/>
<path d="M168.929 11.914C170.859 15.7754 172.426 19.0174 172.426 19.1267C172.426 19.236 162.918 19.3089 151.298 19.3089H130.169V67.3207V115.369L156.871 115.587C171.515 115.733 189.292 115.952 196.286 116.097L209.036 116.316L208.926 112.345C208.708 106.335 210.311 101.235 213.589 97.5194L215.119 95.8073H191.405H167.69V94.3502V92.8931L190.749 92.8202C203.389 92.7838 214.427 92.7473 215.228 92.7473C216.139 92.7109 217.123 92.3831 217.851 91.8731C221.093 89.5781 226.667 87.7932 230.71 87.7932C234.863 87.7932 240.655 89.6874 243.715 92.0188L244.881 92.8931H258.723C270.271 92.8931 272.602 92.8202 272.602 92.3831C272.602 91.4359 270.38 82.9847 269.724 81.4912C267.939 77.3384 263.932 74.7156 252.02 69.9435C249.616 68.9964 244.917 67.2479 241.566 66.1186L235.482 64.0422L223.68 51.5839C203.681 30.5651 199.637 26.9587 191.66 23.1338C187.543 21.1667 183.864 20.1831 178.108 19.5639L173.81 19.1267L169.912 12.3147C167.763 8.5627 165.869 5.35706 165.723 5.21134C165.541 5.02921 166.998 8.08914 168.929 11.914ZM192.643 34.645C195.448 34.8271 197.962 35.0821 198.217 35.155C198.435 35.2278 198.654 35.7742 198.654 36.3207C198.654 36.8671 199.237 43.7884 199.965 51.6568C200.694 59.5252 201.24 66.0093 201.167 66.0822C200.912 66.3008 185.722 63.8601 183.609 63.2408C180.986 62.4758 178.983 60.5816 178.108 58.0681C177.416 55.9917 174.976 39.7813 174.976 37.1585C174.976 35.665 175.121 35.2643 175.996 34.6086C176.943 33.8436 177.198 33.8071 182.261 34.0257C185.175 34.1714 189.838 34.4264 192.643 34.645ZM203.79 38.8706C206.668 41.8213 214.354 50.1268 215.884 51.9846C216.394 52.5675 216.467 52.9317 216.212 53.4417C215.738 54.2796 215.483 66.5193 215.921 67.7214C216.139 68.3771 216.103 68.5593 215.738 68.4136C215.447 68.3043 212.606 67.8307 209.4 67.3936C206.194 66.92 203.426 66.4465 203.28 66.3008C203.134 66.155 202.442 60.0716 201.75 52.786C201.058 45.5005 200.402 38.652 200.293 37.5956C200.147 36.5757 200.184 35.7014 200.366 35.7014C200.548 35.7014 202.078 37.1221 203.79 38.8706ZM162.226 36.6121C162.772 36.9035 163.61 37.7049 164.011 38.3606C164.776 39.5992 164.776 39.7084 164.776 75.5534V111.471H157.49H150.205V102V92.5288H148.93H147.655V102V111.471H140.369H133.084V75.6627C133.084 42.2948 133.12 39.8177 133.739 38.6885C134.067 38.0328 134.869 37.1949 135.451 36.7942C136.471 36.1021 137.2 36.0657 148.857 36.0657C159.02 36.0657 161.352 36.175 162.226 36.6121ZM187.143 72.3478C187.835 73.0399 187.871 73.2949 187.288 73.8777C186.633 74.5334 176.287 74.497 175.741 73.8049C175.231 73.1856 175.558 72.2385 176.36 72.0199C176.724 71.9106 179.128 71.8378 181.788 71.8014C185.685 71.7649 186.669 71.8742 187.143 72.3478ZM259.561 76.9012C264.916 78.0305 268.486 81.7826 270.234 88.0846C270.599 89.3231 270.817 90.416 270.744 90.5252C270.38 90.8531 264.989 89.5417 262.949 88.5581C259.124 86.7732 253.514 80.8719 253.223 78.2855C253.113 77.4841 253.295 77.3748 255.117 76.9741C256.21 76.7555 257.23 76.537 257.375 76.537C257.521 76.5005 258.505 76.6827 259.561 76.9012Z" fill="#576475"/>
<path d="M136.69 40.0359L135.633 41.1287L135.706 66.7375L135.815 92.3462H141.644C146.088 92.3462 147.472 92.237 147.436 91.8727C147.399 91.6541 147.363 79.9608 147.363 65.9361C147.29 40.9466 147.29 40.4366 146.562 39.708C145.906 39.0523 145.36 38.9795 141.79 38.9795C137.819 38.9795 137.746 38.9795 136.69 40.0359Z" fill="#576475"/>
<path d="M151.079 39.7445C150.423 40.4731 150.387 41.4202 150.35 62.4391C150.35 74.4602 150.387 86.19 150.459 88.4485L150.605 92.5649L156.324 92.4556L162.043 92.3463L162.153 67.2111C162.189 53.3685 162.153 41.7116 162.043 41.2745C161.934 40.8374 161.497 40.1088 161.06 39.7081C160.368 39.0524 159.785 38.9795 156.033 38.9795C152.171 38.9795 151.698 39.0524 151.079 39.7445Z" fill="#576475"/>
<path d="M113.34 10.821C113.303 12.2053 113.303 14.6459 113.376 16.2852L113.485 19.2723L64.0159 19.3816L14.5105 19.4908L12.762 20.3651C10.7585 21.3122 10.1756 22.2594 9.37424 25.72C7.55284 33.6977 5.22146 57.8858 5.22146 69.2148V74.6061L8.24497 74.5697L11.232 74.4968L11.3413 77.1196L11.4506 79.7789H8.13569H4.85719V81.9645V84.1502H8.13569C11.3778 84.1502 11.4142 84.1502 11.4142 85.0609C11.4142 85.9716 11.3778 85.9716 8.13569 85.9716C5.11218 85.9716 4.85719 86.008 4.85719 86.7002C4.85719 87.3923 5.11218 87.4287 8.13569 87.4287C11.3778 87.4287 11.4142 87.4287 11.4142 88.3394C11.4142 89.2501 11.3778 89.2501 8.13569 89.2501H4.85719V91.0715V92.8929H22.3061C39.2086 92.8929 39.755 92.8565 40.6657 92.1643C42.4871 90.7436 47.077 88.8494 49.882 88.3394C55.7833 87.3194 62.3403 88.7765 66.6388 92.0186L67.768 92.8929H90.5718H113.413V94.35V95.8071H91.5554C79.5342 95.8071 69.6987 95.9164 69.6987 96.0257C69.6987 96.1714 70.2087 96.8271 70.8279 97.5556C72.5765 99.5228 74.6893 104.222 75.1629 107.173C75.4179 108.63 75.5271 111.071 75.4179 112.637L75.2357 115.478L94.2146 115.551L113.23 115.66L113.085 121.671C113.012 124.986 112.939 127.718 112.866 127.791C112.83 127.827 101.1 127.827 86.7833 127.791L60.7739 127.682L62.4131 126.807C64.7445 125.569 68.6059 121.489 69.7715 119.085C73.1593 112.054 71.6294 103.494 66.0195 98.1749C63.3602 95.625 60.191 94.095 56.3297 93.5486C49.4084 92.5286 42.3414 95.88 38.735 101.854C34.5823 108.739 35.748 118.283 41.4671 123.82C42.2685 124.622 43.9078 125.86 45.0735 126.552L47.2592 127.864L23.7632 127.937C0.595135 128.046 0.303711 128.046 0.303711 128.774C0.303711 129.503 0.595135 129.503 59.6082 129.612L118.877 129.685V69.0327V8.38037H116.145H113.413L113.34 10.821Z" fill="#576475"/>
<path d="M241.964 31.6787C234.588 32.8373 227.829 36.931 224.508 42.3378C221.727 46.7792 221.534 46.0067 226.941 51.6839L231.691 56.7045L231.73 54.9666C231.73 53.1129 232.541 51.4908 233.506 51.4908C233.931 51.4908 234.047 52.2246 234.047 55.237C234.086 58.3652 234.202 59.1762 234.781 59.8714L235.515 60.7597H248.491H261.467V56.3183C261.467 52.6494 261.583 51.7998 262.047 51.6067C262.394 51.4908 263.012 51.7225 263.398 52.0701C264.055 52.688 264.171 53.2673 264.171 56.7818V60.7597H269.771H275.371V57.168C275.371 52.4177 274.56 48.9033 272.629 44.9254C269.694 38.9393 263.901 34.2662 257.026 32.3738C254.748 31.7173 244.552 31.2538 241.964 31.6787Z" fill="#576475"/>
<path d="M226.266 93.8402C218.835 95.6252 213.844 101.308 212.861 108.994C211.986 116.17 215.447 123.165 221.64 126.735L223.607 127.864H176.906H130.169V128.774V129.685H206.886H283.567L283.458 128.847L283.348 128.046L260.217 127.937L237.085 127.864L239.052 126.735C251.292 119.704 250.818 101.199 238.251 95.2245C234.171 93.2938 230.31 92.8567 226.266 93.8402Z" fill="#576475"/>
<path d="M8.68305 95.6978L4.67599 95.8435L4.78527 99.0492C4.93098 102.109 4.89455 102.328 4.12957 102.729C3.36459 103.129 3.32816 103.348 3.54672 105.534C3.83815 108.375 4.53028 110.16 5.51383 110.706C6.67952 111.326 17.2072 113.657 17.79 113.438C18.0814 113.329 20.8135 113.584 23.8735 113.985C26.9334 114.422 30.139 114.859 30.9405 114.968L32.4704 115.187V111.581C32.4704 106.007 33.7454 102.036 36.9875 97.7013L38.4082 95.7707L26.2777 95.8071C19.6114 95.8435 13.8194 95.7707 13.4187 95.6978C13.018 95.6614 10.9052 95.625 8.68305 95.6978Z" fill="#576475"/>
<path d="M247.103 97.5193C248.778 99.4499 250.782 103.421 251.438 106.116C251.875 107.974 252.02 114.859 251.656 115.478C250.818 116.826 264.333 114.094 268.959 111.981C271.546 110.816 272.493 109.905 273.549 107.646C274.606 105.461 274.642 104.659 273.731 104.368C273.039 104.149 272.165 102.437 271.546 99.9963C271.109 98.3571 271.4 97.9928 273.258 97.9928C274.351 97.9928 274.46 97.92 274.351 96.9728L274.241 95.9893L259.925 95.88L245.573 95.8071L247.103 97.5193Z" fill="#576475"/>
</g>
<defs>
<clipPath id="clip0_504_120">
<rect width="284" height="130" fill="white"/>
</clipPath>
</defs>
</svg>
