<svg width="284" height="130" viewBox="0 0 284 130" fill="none" xmlns="http://www.w3.org/2000/svg">
<path d="M245.695 1.35288C238.203 3.01355 233.337 9.57898 233.8 17.4189C234.109 22.9802 237.314 27.6919 242.567 30.2794C244.923 31.438 245.386 31.5153 249.171 31.5153C252.994 31.5153 253.342 31.438 255.659 30.2408C260.95 27.4988 263.885 22.903 264.155 16.9941C264.271 14.4837 264.155 13.132 263.653 11.5872C261.8 6.02592 257.281 2.12528 251.643 1.1984C248.862 0.734957 248.398 0.734957 245.695 1.35288Z" fill="#576475"/>
<path d="M168.929 11.9139C170.859 15.7753 172.426 19.0173 172.426 19.1266C172.426 19.2359 162.918 19.3088 151.298 19.3088H130.169V67.3206V115.369L156.871 115.587C171.515 115.733 189.292 115.952 196.286 116.097L209.036 116.316L208.926 112.345C208.708 106.335 210.311 101.235 213.589 97.5193L215.119 95.8072H191.405H167.69V94.3501V92.893L190.749 92.8201C203.389 92.7837 214.427 92.7472 215.228 92.7472C216.139 92.7108 217.123 92.383 217.851 91.873C221.093 89.578 226.667 87.7931 230.71 87.7931C234.863 87.7931 240.655 89.6873 243.715 92.0187L244.881 92.893H258.723C270.271 92.893 272.602 92.8201 272.602 92.383C272.602 91.4358 270.38 82.9846 269.724 81.4911C267.939 77.3383 263.932 74.7155 252.02 69.9434C249.616 68.9963 244.917 67.2478 241.566 66.1185L235.482 64.0421L223.68 51.5838C203.681 30.565 199.637 26.9586 191.66 23.1337C187.543 21.1666 183.864 20.183 178.108 19.5638L173.81 19.1266L169.912 12.3146C167.763 8.56256 165.869 5.35692 165.723 5.2112C165.541 5.02907 166.998 8.089 168.929 11.9139ZM192.643 34.6449C195.448 34.827 197.962 35.082 198.217 35.1549C198.435 35.2277 198.654 35.7741 198.654 36.3206C198.654 36.867 199.237 43.7883 199.965 51.6567C200.694 59.5251 201.24 66.0092 201.167 66.0821C200.912 66.3007 185.722 63.86 183.609 63.2407C180.986 62.4757 178.983 60.5815 178.108 58.068C177.416 55.9916 174.976 39.7812 174.976 37.1584C174.976 35.6649 175.121 35.2642 175.996 34.6085C176.943 33.8435 177.198 33.807 182.261 34.0256C185.175 34.1713 189.838 34.4263 192.643 34.6449ZM203.79 38.8705C206.668 41.8212 214.354 50.1267 215.884 51.9845C216.394 52.5674 216.467 52.9316 216.212 53.4416C215.738 54.2795 215.483 66.5192 215.921 67.7213C216.139 68.377 216.103 68.5592 215.738 68.4135C215.447 68.3042 212.606 67.8306 209.4 67.3935C206.194 66.9199 203.426 66.4464 203.28 66.3007C203.134 66.1549 202.442 60.0715 201.75 52.7859C201.058 45.5004 200.402 38.6519 200.293 37.5955C200.147 36.5756 200.184 35.7013 200.366 35.7013C200.548 35.7013 202.078 37.122 203.79 38.8705ZM162.226 36.612C162.772 36.9034 163.61 37.7048 164.011 38.3605C164.776 39.5991 164.776 39.7083 164.776 75.5533V111.471H157.49H150.205V102V92.5287H148.93H147.655V102V111.471H140.369H133.084V75.6626C133.084 42.2947 133.12 39.8176 133.739 38.6884C134.067 38.0327 134.869 37.1948 135.451 36.7941C136.471 36.102 137.2 36.0656 148.857 36.0656C159.02 36.0656 161.352 36.1749 162.226 36.612ZM187.143 72.3477C187.835 73.0398 187.871 73.2948 187.288 73.8776C186.633 74.5333 176.287 74.4969 175.741 73.8048C175.231 73.1855 175.558 72.2384 176.36 72.0198C176.724 71.9105 179.128 71.8377 181.788 71.8013C185.685 71.7648 186.669 71.8741 187.143 72.3477ZM259.561 76.9011C264.916 78.0304 268.486 81.7825 270.234 88.0845C270.599 89.323 270.817 90.4159 270.744 90.5251C270.38 90.853 264.989 89.5416 262.949 88.558C259.124 86.7731 253.514 80.8718 253.223 78.2854C253.113 77.484 253.295 77.3747 255.117 76.974C256.21 76.7554 257.23 76.5369 257.375 76.5369C257.521 76.5004 258.505 76.6826 259.561 76.9011Z" fill="#576475"/>
<path d="M136.69 40.0361L135.633 41.1289L135.706 66.7377L135.815 92.3464H141.644C146.088 92.3464 147.472 92.2372 147.436 91.8729C147.399 91.6543 147.363 79.961 147.363 65.9363C147.29 40.9468 147.29 40.4368 146.562 39.7082C145.906 39.0525 145.36 38.9797 141.79 38.9797C137.819 38.9797 137.746 38.9797 136.69 40.0361Z" fill="#576475"/>
<path d="M151.079 39.7447C150.423 40.4733 150.387 41.4204 150.35 62.4393C150.35 74.4604 150.387 86.1902 150.459 88.4487L150.605 92.5651L156.324 92.4558L162.043 92.3465L162.153 67.2113C162.189 53.3687 162.153 41.7118 162.043 41.2747C161.934 40.8376 161.497 40.109 161.06 39.7083C160.368 39.0526 159.785 38.9797 156.033 38.9797C152.171 38.9797 151.698 39.0526 151.079 39.7447Z" fill="#576475"/>
<path d="M113.34 10.8212C113.303 12.2055 113.303 14.6461 113.376 16.2854L113.485 19.2725L64.0164 19.3818L14.511 19.491L12.7625 20.3653C10.759 21.3124 10.1761 22.2596 9.37473 25.7202C7.55333 33.6979 5.22195 57.886 5.22195 69.215V74.6063L8.24546 74.5699L11.2325 74.497L11.3418 77.1198L11.4511 79.7791H8.13618H4.85768V81.9647V84.1504H8.13618C11.3783 84.1504 11.4147 84.1504 11.4147 85.0611C11.4147 85.9718 11.3783 85.9718 8.13618 85.9718C5.11267 85.9718 4.85768 86.0082 4.85768 86.7004C4.85768 87.3925 5.11267 87.4289 8.13618 87.4289C11.3783 87.4289 11.4147 87.4289 11.4147 88.3396C11.4147 89.2503 11.3783 89.2503 8.13618 89.2503H4.85768V91.0717V92.8931H22.3066C39.2091 92.8931 39.7555 92.8567 40.6662 92.1645C42.4876 90.7438 47.0775 88.8496 49.8825 88.3396C55.7838 87.3196 62.3408 88.7767 66.6393 92.0188L67.7685 92.8931H90.5723H113.413V94.3502V95.8073H91.5559C79.5347 95.8073 69.6992 95.9166 69.6992 96.0259C69.6992 96.1716 70.2092 96.8273 70.8284 97.5558C72.577 99.523 74.6898 104.222 75.1634 107.173C75.4184 108.63 75.5276 111.071 75.4184 112.637L75.2362 115.478L94.2151 115.551L113.23 115.66L113.085 121.671C113.012 124.986 112.939 127.718 112.866 127.791C112.83 127.827 101.1 127.827 86.7838 127.791L60.7744 127.682L62.4136 126.807C64.745 125.569 68.6064 121.489 69.772 119.085C73.1598 112.054 71.6299 103.494 66.02 98.1751C63.3607 95.6252 60.1915 94.0952 56.3302 93.5488C49.4089 92.5288 42.3419 95.8802 38.7355 101.854C34.5828 108.739 35.7485 118.283 41.4676 123.82C42.269 124.622 43.9083 125.86 45.074 126.552L47.2597 127.864L23.7637 127.937C0.595622 128.046 0.304199 128.046 0.304199 128.774C0.304199 129.503 0.595622 129.503 59.6087 129.612L118.877 129.685V69.0329V8.38056H116.145H113.413L113.34 10.8212Z" fill="#576475"/>
<path d="M241.964 31.6788C234.588 32.8374 227.829 36.9311 224.508 42.3379C221.727 46.7793 221.534 46.0068 226.941 51.684L231.691 56.7046L231.73 54.9667C231.73 53.113 232.541 51.4909 233.506 51.4909C233.931 51.4909 234.047 52.2247 234.047 55.2371C234.086 58.3653 234.202 59.1763 234.781 59.8715L235.515 60.7598H248.491H261.467V56.3184C261.467 52.6495 261.583 51.7999 262.047 51.6068C262.394 51.4909 263.012 51.7226 263.398 52.0702C264.055 52.6881 264.171 53.2674 264.171 56.7819V60.7598H269.771H275.371V57.1681C275.371 52.4178 274.56 48.9034 272.629 44.9255C269.694 38.9394 263.901 34.2663 257.026 32.3739C254.748 31.7174 244.552 31.2539 241.964 31.6788Z" fill="#576475"/>
<path d="M226.266 93.8402C218.835 95.6252 213.844 101.308 212.861 108.994C211.986 116.17 215.447 123.165 221.64 126.735L223.607 127.864H176.906H130.169V128.774V129.685H206.886H283.567L283.458 128.847L283.348 128.046L260.217 127.937L237.085 127.864L239.052 126.735C251.292 119.704 250.818 101.199 238.251 95.2245C234.171 93.2938 230.31 92.8567 226.266 93.8402Z" fill="#576475"/>
<path d="M8.68256 95.698L4.6755 95.8437L4.78478 99.0494C4.93049 102.109 4.89406 102.328 4.12908 102.729C3.3641 103.129 3.32767 103.348 3.54623 105.534C3.83766 108.375 4.52979 110.16 5.51334 110.706C6.67903 111.326 17.2067 113.657 17.7895 113.438C18.0809 113.329 20.813 113.584 23.873 113.985C26.9329 114.422 30.1385 114.859 30.94 114.968L32.4699 115.187V111.581C32.4699 106.007 33.7449 102.036 36.987 97.7015L38.4077 95.7709L26.2772 95.8073C19.6109 95.8437 13.8189 95.7709 13.4182 95.698C13.0175 95.6616 10.9047 95.6252 8.68256 95.698Z" fill="#576475"/>
<path d="M247.103 97.5194C248.778 99.45 250.782 103.421 251.438 106.116C251.875 107.974 252.02 114.859 251.656 115.478C250.818 116.826 264.333 114.094 268.959 111.981C271.546 110.816 272.493 109.905 273.549 107.646C274.606 105.461 274.642 104.659 273.731 104.368C273.039 104.149 272.165 102.437 271.546 99.9964C271.109 98.3572 271.4 97.9929 273.258 97.9929C274.351 97.9929 274.46 97.9201 274.351 96.9729L274.241 95.9894L259.925 95.8801L245.573 95.8072L247.103 97.5194Z" fill="#576475"/>
</svg>
