<svg width="284" height="173" viewBox="0 0 284 173" fill="none" xmlns="http://www.w3.org/2000/svg">
<path d="M31.8642 0.700048C24.3719 2.36072 19.5057 8.92615 19.9692 16.7661C20.2781 22.3274 23.4836 27.039 28.736 29.6266C31.0918 30.7852 31.5552 30.8624 35.34 30.8624C39.1634 30.8624 39.511 30.7852 41.8282 29.588C47.1192 26.8459 50.0543 22.2501 50.3247 16.3412C50.4405 13.8309 50.3247 12.4792 49.8226 10.9344C47.9688 5.37309 43.4503 1.47245 37.8117 0.545567C35.0311 0.0821244 34.5676 0.0821244 31.8642 0.700048Z" fill="#576475"/>
<path d="M168.982 54.3692C170.913 58.2306 172.479 61.4727 172.479 61.582C172.479 61.6912 162.971 61.7641 151.351 61.7641H130.223V109.776V157.824L156.924 158.043C171.568 158.189 189.345 158.407 196.339 158.553L209.089 158.771L208.98 154.801C208.761 148.79 210.364 143.69 213.642 139.975L215.172 138.263H191.458H167.743V136.805V135.348L190.802 135.275C203.443 135.239 214.48 135.203 215.282 135.203C216.192 135.166 217.176 134.838 217.904 134.328C221.146 132.033 226.72 130.248 230.763 130.248C234.916 130.248 240.708 132.143 243.768 134.474L244.934 135.348H258.776C270.324 135.348 272.655 135.275 272.655 134.838C272.655 133.891 270.433 125.44 269.778 123.946C267.993 119.794 263.986 117.171 252.074 112.399C249.669 111.452 244.97 109.703 241.619 108.574L235.535 106.497L223.733 94.0391C203.734 73.0203 199.69 69.4139 191.713 65.589C187.596 63.6219 183.917 62.6384 178.162 62.0191L173.863 61.582L169.965 54.77C167.816 51.0179 165.922 47.8122 165.776 47.6665C165.594 47.4844 167.051 50.5443 168.982 54.3692ZM192.696 77.1002C195.501 77.2823 198.015 77.5373 198.27 77.6102C198.488 77.683 198.707 78.2295 198.707 78.7759C198.707 79.3223 199.29 86.2436 200.018 94.112C200.747 101.98 201.293 108.465 201.22 108.537C200.965 108.756 185.775 106.315 183.662 105.696C181.039 104.931 179.036 103.037 178.162 100.523C177.47 98.4469 175.029 82.2365 175.029 79.6137C175.029 78.1202 175.175 77.7195 176.049 77.0638C176.996 76.2988 177.251 76.2624 182.314 76.4809C185.229 76.6266 189.891 76.8816 192.696 77.1002ZM203.843 81.3258C206.721 84.2765 214.407 92.582 215.937 94.4398C216.447 95.0227 216.52 95.387 216.265 95.897C215.792 96.7348 215.537 108.975 215.974 110.177C216.192 110.832 216.156 111.014 215.792 110.869C215.5 110.76 212.659 110.286 209.453 109.849C206.248 109.375 203.479 108.902 203.333 108.756C203.188 108.61 202.495 102.527 201.803 95.2413C201.111 87.9557 200.455 81.1073 200.346 80.0509C200.2 79.0309 200.237 78.1566 200.419 78.1566C200.601 78.1566 202.131 79.5773 203.843 81.3258ZM162.279 79.0673C162.826 79.3587 163.663 80.1601 164.064 80.8158C164.829 82.0544 164.829 82.1637 164.829 118.009V153.926H157.544H150.258V144.455V134.984H148.983H147.708V144.455V153.926H140.422H133.137V118.118C133.137 84.75 133.173 82.273 133.793 81.1437C134.12 80.488 134.922 79.6501 135.505 79.2494C136.525 78.5573 137.253 78.5209 148.91 78.5209C159.073 78.5209 161.405 78.6302 162.279 79.0673ZM187.196 114.803C187.888 115.495 187.924 115.75 187.341 116.333C186.686 116.989 176.34 116.952 175.794 116.26C175.284 115.641 175.612 114.694 176.413 114.475C176.777 114.366 179.182 114.293 181.841 114.257C185.739 114.22 186.722 114.329 187.196 114.803ZM259.614 119.356C264.969 120.486 268.539 124.238 270.288 130.54C270.652 131.778 270.87 132.871 270.798 132.98C270.433 133.308 265.042 131.997 263.002 131.013C259.177 129.228 253.567 123.327 253.276 120.741C253.167 119.939 253.349 119.83 255.17 119.429C256.263 119.211 257.283 118.992 257.429 118.992C257.574 118.956 258.558 119.138 259.614 119.356Z" fill="#576475"/>
<path d="M136.743 82.4915L135.687 83.5844L135.759 109.193L135.869 134.802H141.697C146.141 134.802 147.526 134.693 147.489 134.328C147.453 134.11 147.416 122.416 147.416 108.392C147.343 83.4022 147.343 82.8922 146.615 82.1637C145.959 81.508 145.413 81.4351 141.843 81.4351C137.872 81.4351 137.799 81.4351 136.743 82.4915Z" fill="#576475"/>
<path d="M151.132 82.2002C150.476 82.9287 150.44 83.8759 150.403 104.895C150.403 116.916 150.44 128.646 150.513 130.904L150.658 135.021L156.377 134.911L162.097 134.802L162.206 109.667C162.242 95.8242 162.206 84.1673 162.097 83.7301C161.987 83.293 161.55 82.5644 161.113 82.1637C160.421 81.508 159.838 81.4352 156.086 81.4352C152.225 81.4352 151.751 81.508 151.132 82.2002Z" fill="#576475"/>
<path d="M113.393 53.2765C113.356 54.6608 113.356 57.1015 113.429 58.7407L113.538 61.7278L64.0694 61.8371L14.564 61.9464L12.8155 62.8206C10.812 63.7678 10.2291 64.7149 9.4277 68.1755C7.60631 76.1532 5.27493 100.341 5.27493 111.67V117.062L8.29844 117.025L11.2855 116.952L11.3948 119.575L11.5041 122.234H8.18916H4.91065V124.42V126.606H8.18916C11.4312 126.606 11.4677 126.606 11.4677 127.516C11.4677 128.427 11.4312 128.427 8.18916 128.427C5.16565 128.427 4.91065 128.464 4.91065 129.156C4.91065 129.848 5.16565 129.884 8.18916 129.884C11.4312 129.884 11.4677 129.884 11.4677 130.795C11.4677 131.706 11.4312 131.706 8.18916 131.706H4.91065V133.527V135.348H22.3596C39.2621 135.348 39.8085 135.312 40.7192 134.62C42.5406 133.199 47.1305 131.305 49.9354 130.795C55.8367 129.775 62.3937 131.232 66.6922 134.474L67.8215 135.348H90.6253H113.466V136.806V138.263H91.6089C79.5877 138.263 69.7522 138.372 69.7522 138.481C69.7522 138.627 70.2622 139.283 70.8814 140.011C72.63 141.978 74.7428 146.677 75.2163 149.628C75.4713 151.085 75.5806 153.526 75.4713 155.092L75.2892 157.934L94.2681 158.007L113.283 158.116L113.138 164.126C113.065 167.441 112.992 170.173 112.919 170.246C112.883 170.283 101.153 170.283 86.8368 170.246L60.8273 170.137L62.4666 169.263C64.798 168.024 68.6593 163.944 69.825 161.54C73.2128 154.509 71.6828 145.949 66.073 140.63C63.4137 138.08 60.2445 136.551 56.3832 136.004C49.4619 134.984 42.3949 138.335 38.7885 144.31C34.6358 151.195 35.8014 160.739 41.5206 166.276C42.322 167.077 43.9613 168.316 45.127 169.008L47.3126 170.319L23.8167 170.392C0.6486 170.501 0.357178 170.501 0.357178 171.23C0.357178 171.958 0.6486 171.958 59.6617 172.068L118.93 172.141V111.488V50.8359H116.198H113.466L113.393 53.2765Z" fill="#576475"/>
<path d="M28.1334 31.0259C20.757 32.1845 13.9985 36.2783 10.6771 41.6851C7.89646 46.1264 7.70336 45.354 13.1102 51.0312L17.8605 56.0518L17.8991 54.3139C17.8991 52.4601 18.7101 50.8381 19.6756 50.8381C20.1004 50.8381 20.2163 51.5719 20.2163 54.5842C20.2549 57.7125 20.3708 58.5235 20.9501 59.2187L21.6839 60.1069H34.6603H47.6367V55.6656C47.6367 51.9967 47.7525 51.147 48.216 50.9539C48.5635 50.8381 49.1815 51.0698 49.5677 51.4174C50.2242 52.0353 50.3401 52.6146 50.3401 56.1291V60.1069H55.94H61.5399V56.5153C61.5399 51.765 60.7289 48.2505 58.7979 44.2727C55.8628 38.2865 50.0697 33.6135 43.1953 31.7211C40.9167 31.0645 30.721 30.6011 28.1334 31.0259Z" fill="#576475"/>
<path d="M226.319 136.296C218.888 138.08 213.897 143.763 212.914 151.45C212.04 158.626 215.5 165.62 221.693 169.19L223.66 170.319H176.96H130.223V171.23V172.141H206.94H283.62L283.511 171.303L283.402 170.501L260.27 170.392L237.138 170.319L239.105 169.19C251.345 162.159 250.872 143.654 238.304 137.68C234.224 135.749 230.363 135.312 226.319 136.296Z" fill="#576475"/>
<path d="M8.73554 138.153L4.72848 138.299L4.83776 141.505C4.98347 144.565 4.94704 144.783 4.18206 145.184C3.41707 145.585 3.38065 145.803 3.59921 147.989C3.89064 150.83 4.58276 152.615 5.56632 153.162C6.73201 153.781 17.2596 156.112 17.8425 155.894C18.1339 155.784 20.866 156.039 23.9259 156.44C26.9859 156.877 30.1915 157.314 30.9929 157.424L32.5229 157.642V154.036C32.5229 148.462 33.7979 144.492 37.0399 140.157L38.4606 138.226L26.3302 138.263C19.6639 138.299 13.8719 138.226 13.4712 138.153C13.0704 138.117 10.9576 138.08 8.73554 138.153Z" fill="#576475"/>
<path d="M247.156 139.975C248.832 141.905 250.835 145.876 251.491 148.572C251.928 150.429 252.074 157.314 251.709 157.934C250.872 159.281 264.386 156.549 269.013 154.437C271.599 153.271 272.546 152.36 273.603 150.102C274.659 147.916 274.695 147.115 273.785 146.823C273.093 146.605 272.218 144.892 271.599 142.452C271.162 140.813 271.453 140.448 273.311 140.448C274.404 140.448 274.513 140.375 274.404 139.428L274.295 138.445L259.979 138.335L245.626 138.263L247.156 139.975Z" fill="#576475"/>
</svg>
