<svg width="284" height="173" viewBox="0 0 284 173" fill="none" xmlns="http://www.w3.org/2000/svg">
<g clip-path="url(#clip0_504_130)">
<path d="M31.8639 0.700161C24.3716 2.36083 19.5054 8.92626 19.9689 16.7662C20.2778 22.3275 23.4833 27.0391 28.7357 29.6267C31.0915 30.7853 31.5549 30.8625 35.3397 30.8625C39.1631 30.8625 39.5107 30.7853 41.8279 29.5881C47.1189 26.846 50.054 22.2502 50.3244 16.3413C50.4402 13.831 50.3244 12.4793 49.8223 10.9345C47.9685 5.3732 43.45 1.47256 37.8114 0.54568C35.0308 0.0822373 34.5673 0.0822373 31.8639 0.700161Z" fill="#576475"/>
<path d="M168.982 54.3691C170.913 58.2305 172.479 61.4726 172.479 61.5819C172.479 61.6911 162.971 61.764 151.351 61.764H130.223V109.776V157.824L156.924 158.043C171.568 158.189 189.345 158.407 196.339 158.553L209.089 158.771L208.98 154.801C208.761 148.79 210.364 143.69 213.642 139.975L215.172 138.263H191.458H167.743V136.805V135.348L190.802 135.275C203.443 135.239 214.48 135.203 215.282 135.203C216.192 135.166 217.176 134.838 217.904 134.328C221.146 132.033 226.72 130.248 230.763 130.248C234.916 130.248 240.708 132.143 243.768 134.474L244.934 135.348H258.776C270.324 135.348 272.655 135.275 272.655 134.838C272.655 133.891 270.433 125.44 269.778 123.946C267.993 119.794 263.986 117.171 252.074 112.399C249.669 111.452 244.97 109.703 241.619 108.574L235.535 106.497L223.733 94.039C203.734 73.0202 199.69 69.4138 191.713 65.5889C187.596 63.6218 183.917 62.6383 178.162 62.019L173.863 61.5819L169.965 54.7699C167.816 51.0178 165.922 47.8121 165.776 47.6664C165.594 47.4843 167.051 50.5442 168.982 54.3691ZM192.696 77.1001C195.501 77.2822 198.015 77.5372 198.27 77.6101C198.488 77.6829 198.707 78.2294 198.707 78.7758C198.707 79.3222 199.29 86.2435 200.018 94.1119C200.747 101.98 201.293 108.465 201.22 108.537C200.965 108.756 185.775 106.315 183.662 105.696C181.039 104.931 179.036 103.037 178.162 100.523C177.47 98.4468 175.029 82.2364 175.029 79.6136C175.029 78.1201 175.175 77.7194 176.049 77.0637C176.996 76.2987 177.251 76.2623 182.314 76.4808C185.229 76.6265 189.891 76.8815 192.696 77.1001ZM203.843 81.3257C206.721 84.2764 214.407 92.5819 215.937 94.4397C216.447 95.0226 216.52 95.3869 216.265 95.8969C215.792 96.7347 215.537 108.975 215.974 110.177C216.192 110.832 216.156 111.014 215.792 110.869C215.5 110.76 212.659 110.286 209.453 109.849C206.248 109.375 203.479 108.902 203.333 108.756C203.188 108.61 202.495 102.527 201.803 95.2412C201.111 87.9556 200.455 81.1072 200.346 80.0508C200.2 79.0308 200.237 78.1565 200.419 78.1565C200.601 78.1565 202.131 79.5772 203.843 81.3257ZM162.279 79.0672C162.826 79.3586 163.663 80.16 164.064 80.8157C164.829 82.0543 164.829 82.1636 164.829 118.009V153.926H157.544H150.258V144.455V134.984H148.983H147.708V144.455V153.926H140.422H133.137V118.118C133.137 84.7499 133.173 82.2729 133.793 81.1436C134.12 80.4879 134.922 79.65 135.505 79.2493C136.525 78.5572 137.253 78.5208 148.91 78.5208C159.073 78.5208 161.405 78.6301 162.279 79.0672ZM187.196 114.803C187.888 115.495 187.924 115.75 187.341 116.333C186.686 116.989 176.34 116.952 175.794 116.26C175.284 115.641 175.612 114.694 176.413 114.475C176.777 114.366 179.182 114.293 181.841 114.257C185.739 114.22 186.722 114.329 187.196 114.803ZM259.614 119.356C264.969 120.486 268.539 124.238 270.288 130.54C270.652 131.778 270.87 132.871 270.798 132.98C270.433 133.308 265.042 131.997 263.002 131.013C259.177 129.228 253.567 123.327 253.276 120.741C253.167 119.939 253.349 119.83 255.17 119.429C256.263 119.211 257.283 118.992 257.429 118.992C257.574 118.956 258.558 119.138 259.614 119.356Z" fill="#576475"/>
<path d="M136.743 82.4915L135.687 83.5844L135.759 109.193L135.869 134.802H141.697C146.141 134.802 147.526 134.693 147.489 134.328C147.453 134.11 147.416 122.416 147.416 108.392C147.343 83.4022 147.343 82.8922 146.615 82.1637C145.959 81.508 145.413 81.4351 141.843 81.4351C137.872 81.4351 137.799 81.4351 136.743 82.4915Z" fill="#576475"/>
<path d="M151.132 82.2001C150.476 82.9286 150.44 83.8758 150.403 104.895C150.403 116.916 150.44 128.646 150.513 130.904L150.658 135.021L156.377 134.911L162.097 134.802L162.206 109.667C162.242 95.8241 162.206 84.1672 162.097 83.73C161.987 83.2929 161.55 82.5643 161.113 82.1636C160.421 81.5079 159.838 81.4351 156.086 81.4351C152.225 81.4351 151.751 81.5079 151.132 82.2001Z" fill="#576475"/>
<path d="M113.393 53.2765C113.356 54.6608 113.356 57.1015 113.429 58.7407L113.538 61.7278L64.0696 61.8371L14.5642 61.9464L12.8157 62.8206C10.8122 63.7678 10.2293 64.7149 9.42794 68.1755C7.60655 76.1532 5.27517 100.341 5.27517 111.67V117.062L8.29868 117.025L11.2857 116.952L11.395 119.575L11.5043 122.234H8.1894H4.91089V124.42V126.606H8.1894C11.4314 126.606 11.4679 126.606 11.4679 127.516C11.4679 128.427 11.4314 128.427 8.1894 128.427C5.16589 128.427 4.91089 128.464 4.91089 129.156C4.91089 129.848 5.16589 129.884 8.1894 129.884C11.4314 129.884 11.4679 129.884 11.4679 130.795C11.4679 131.706 11.4314 131.706 8.1894 131.706H4.91089V133.527V135.348H22.3598C39.2623 135.348 39.8087 135.312 40.7194 134.62C42.5408 133.199 47.1307 131.305 49.9356 130.795C55.8369 129.775 62.3939 131.232 66.6924 134.474L67.8217 135.348H90.6255H113.466V136.806V138.263H91.6091C79.5879 138.263 69.7524 138.372 69.7524 138.481C69.7524 138.627 70.2624 139.283 70.8816 140.011C72.6302 141.978 74.743 146.677 75.2165 149.628C75.4715 151.085 75.5808 153.526 75.4715 155.092L75.2894 157.934L94.2683 158.007L113.283 158.116L113.138 164.126C113.065 167.441 112.992 170.173 112.919 170.246C112.883 170.283 101.153 170.283 86.837 170.246L60.8275 170.137L62.4668 169.263C64.7982 168.024 68.6595 163.944 69.8252 161.54C73.213 154.509 71.683 145.949 66.0732 140.63C63.4139 138.08 60.2447 136.551 56.3834 136.004C49.4621 134.984 42.3951 138.335 38.7887 144.31C34.636 151.195 35.8016 160.739 41.5208 166.276C42.3222 167.077 43.9615 168.316 45.1272 169.008L47.3128 170.319L23.8169 170.392C0.648844 170.501 0.357422 170.501 0.357422 171.23C0.357422 171.958 0.648846 171.958 59.6619 172.068L118.93 172.141V111.488V50.8359H116.198H113.466L113.393 53.2765Z" fill="#576475"/>
<path d="M28.1332 31.0258C20.7568 32.1844 13.9983 36.2782 10.6769 41.685C7.89622 46.1263 7.70312 45.3539 13.11 51.0311L17.8603 56.0517L17.8989 54.3138C17.8989 52.46 18.7099 50.838 19.6754 50.838C20.1002 50.838 20.2161 51.5718 20.2161 54.5841C20.2547 57.7124 20.3706 58.5234 20.9499 59.2186L21.6837 60.1068H34.6601H47.6365V55.6655C47.6365 51.9966 47.7523 51.1469 48.2158 50.9538C48.5633 50.838 49.1813 51.0697 49.5675 51.4173C50.224 52.0352 50.3399 52.6145 50.3399 56.129V60.1068H55.9398H61.5397V56.5152C61.5397 51.7649 60.7287 48.2504 58.7977 44.2726C55.8626 38.2864 50.0695 33.6134 43.1951 31.721C40.9165 31.0644 30.7208 30.601 28.1332 31.0258Z" fill="#576475"/>
<path d="M226.319 136.296C218.888 138.08 213.897 143.763 212.914 151.45C212.04 158.626 215.5 165.62 221.693 169.19L223.66 170.319H176.96H130.223V171.23V172.141H206.94H283.62L283.511 171.303L283.402 170.501L260.27 170.392L237.138 170.319L239.105 169.19C251.345 162.159 250.872 143.654 238.304 137.68C234.224 135.749 230.363 135.312 226.319 136.296Z" fill="#576475"/>
<path d="M8.73579 138.153L4.72872 138.299L4.838 141.505C4.98371 144.565 4.94728 144.783 4.1823 145.184C3.41731 145.585 3.38089 145.803 3.59945 147.989C3.89088 150.83 4.583 152.615 5.56656 153.162C6.73225 153.781 17.2598 156.112 17.8427 155.894C18.1341 155.784 20.8662 156.039 23.9261 156.44C26.9861 156.877 30.1917 157.314 30.9931 157.424L32.5231 157.642V154.036C32.5231 148.462 33.7981 144.492 37.0401 140.157L38.4608 138.226L26.3304 138.263C19.6641 138.299 13.8721 138.226 13.4714 138.153C13.0706 138.117 10.9578 138.08 8.73579 138.153Z" fill="#576475"/>
<path d="M247.156 139.975C248.832 141.905 250.835 145.876 251.491 148.572C251.928 150.429 252.074 157.314 251.709 157.934C250.872 159.281 264.386 156.549 269.013 154.437C271.599 153.271 272.546 152.36 273.603 150.102C274.659 147.916 274.695 147.115 273.785 146.823C273.093 146.605 272.218 144.892 271.599 142.452C271.162 140.813 271.453 140.448 273.311 140.448C274.404 140.448 274.513 140.375 274.404 139.428L274.295 138.445L259.979 138.335L245.626 138.263L247.156 139.975Z" fill="#576475"/>
</g>
<defs>
<clipPath id="clip0_504_130">
<rect width="284" height="173" fill="white"/>
</clipPath>
</defs>
</svg>
