<svg width="92" height="92" viewBox="0 0 92 92" fill="none" xmlns="http://www.w3.org/2000/svg">
<g clip-path="url(#clip0_503_103)">
<mask id="mask0_503_103" style="mask-type:luminance" maskUnits="userSpaceOnUse" x="0" y="0" width="92" height="92">
<path d="M92 0H0V92H92V0Z" fill="white"/>
</mask>
<g mask="url(#mask0_503_103)">
<path d="M13.0453 0.341601C12.057 1.00645 11.8594 1.52754 11.8594 3.54004V5.39082H9.93672C8.40937 5.39082 7.74453 5.48067 6.81016 5.8041C3.66562 6.88223 1.31172 9.25411 0.359375 12.3807C0.0359375 13.3869 0 14.0518 0 18.4361V23.3596H40.4297H80.8594V18.3643C80.8414 13.6924 80.8234 13.315 80.4461 12.201C79.35 8.96661 76.9242 6.64864 73.6898 5.67832C73.0609 5.49864 72.0367 5.39082 70.8508 5.39082H69V3.54004C69 2.04864 68.9281 1.61739 68.6586 1.18614C68.1016 0.35957 67.4187 0.00019525 66.3047 0.00019525C65.1906 0.00019525 64.5078 0.35957 63.9508 1.18614C63.6812 1.61739 63.6094 2.04864 63.6094 3.54004V5.39082H57.6797H51.75V3.54004C51.75 1.52754 51.5523 1.00645 50.5641 0.341601C49.8633 -0.125586 48.2461 -0.125586 47.5453 0.341601C46.557 1.00645 46.3594 1.52754 46.3594 3.54004V5.39082H40.4297H34.5V3.54004C34.5 1.52754 34.3023 1.00645 33.3141 0.341601C32.6133 -0.125586 30.9961 -0.125586 30.2953 0.341601C29.307 1.00645 29.1094 1.52754 29.1094 3.54004V5.39082H23.1797H17.25V3.54004C17.25 2.04864 17.1781 1.61739 16.9086 1.18614C16.3516 0.35957 15.6687 0.00019525 14.5547 0.00019525C13.8898 0.00019525 13.4047 0.108008 13.0453 0.341601ZM17.2141 9.73926C17.1602 13.8541 17.1422 14.1416 16.7648 14.7346C16.2617 15.5611 15.4891 15.9924 14.5547 15.9924C13.6203 15.9924 12.8477 15.5611 12.3445 14.7346C11.9672 14.1416 11.9492 13.8541 11.8953 9.73926L11.8234 5.39082H14.5547H17.2859L17.2141 9.73926ZM34.4641 9.73926C34.4102 13.8541 34.3922 14.1416 34.0148 14.7346C33.5117 15.5611 32.7391 15.9924 31.8047 15.9924C30.8703 15.9924 30.0977 15.5611 29.5945 14.7346C29.2172 14.1416 29.1992 13.8541 29.1453 9.73926L29.0734 5.39082H31.8047H34.5359L34.4641 9.73926ZM51.7141 9.73926C51.6602 13.8541 51.6422 14.1416 51.2648 14.7346C50.7617 15.5611 49.9891 15.9924 49.0547 15.9924C48.1203 15.9924 47.3477 15.5611 46.8445 14.7346C46.4672 14.1416 46.4492 13.8541 46.3953 9.73926L46.3234 5.39082H49.0547H51.7859L51.7141 9.73926ZM68.9641 9.73926C68.9102 13.8541 68.8922 14.1416 68.5148 14.7346C68.0117 15.5611 67.2391 15.9924 66.3047 15.9924C65.3703 15.9924 64.5977 15.5611 64.0945 14.7346C63.7172 14.1416 63.6992 13.8541 63.6453 9.73926L63.5734 5.39082H66.3047H69.0359L68.9641 9.73926Z" fill="#F7C415"/>
<path d="M0.0359375 50.0789L0.0898437 71.4258L0.664844 72.6117C1.70703 74.732 3.28828 76.1516 5.48047 76.9063C6.50469 77.2656 6.97187 77.2656 27.0969 77.2656H47.6531L47.5453 76.6906C47.4734 76.3672 47.3836 74.75 47.3117 73.0969C47.1859 69.557 47.4734 67.4727 48.4437 64.5078C49.7016 60.7164 51.4805 57.8055 54.3375 54.8586C59.1531 49.8633 65.3703 47.2219 72.3062 47.2398C75.2352 47.2398 78.3437 47.7609 80.5898 48.6234C80.8234 48.7133 80.8594 47.6352 80.8594 38.7406V28.75H40.4297H0L0.0359375 50.0789ZM35.7578 38.5969C36.0992 38.7586 36.5664 39.1719 36.782 39.5133C37.6086 40.7531 37.1234 42.4781 35.7578 43.1609C35.2367 43.4305 34.6437 43.4844 32.4336 43.4844C29.3789 43.4844 28.8039 43.3227 28.0852 42.2445C27.2586 41.0047 27.7437 39.2797 29.1094 38.5969C29.6305 38.3273 30.2234 38.2734 32.4336 38.2734C34.6437 38.2734 35.2367 38.3273 35.7578 38.5969ZM51.75 38.5969C52.0914 38.7586 52.5586 39.1719 52.7742 39.5133C53.6008 40.7531 53.1156 42.4781 51.75 43.1609C51.2289 43.4305 50.6359 43.4844 48.4258 43.4844C45.3711 43.4844 44.7961 43.3227 44.0773 42.2445C43.2508 41.0047 43.7359 39.2797 45.1016 38.5969C45.6227 38.3273 46.2156 38.2734 48.4258 38.2734C50.6359 38.2734 51.2289 38.3273 51.75 38.5969ZM67.7422 38.5969C68.0836 38.7586 68.5508 39.1719 68.7664 39.5133C69.593 40.7531 69.1078 42.4781 67.7422 43.1609C67.2211 43.4305 66.6281 43.4844 64.418 43.4844C61.3633 43.4844 60.7883 43.3227 60.0695 42.2445C59.243 41.0047 59.7281 39.2797 61.0937 38.5969C61.6148 38.3273 62.2078 38.2734 64.418 38.2734C66.6281 38.2734 67.2211 38.3273 67.7422 38.5969ZM19.9094 50.7617C20.718 51.2469 21.2031 52.0734 21.2031 53.0078C21.2031 53.9422 20.7359 54.7688 19.9094 55.2539C19.3883 55.5773 18.993 55.6133 16.4414 55.6133C13.8898 55.6133 13.4945 55.5773 12.9734 55.2539C11.3562 54.2836 11.2125 51.9117 12.7039 50.9414C13.4945 50.4203 14.1234 50.3305 16.8008 50.3664C18.9391 50.4023 19.4062 50.4563 19.9094 50.7617ZM35.9016 50.7617C36.7102 51.2469 37.1953 52.0734 37.1953 53.0078C37.1953 53.9422 36.7281 54.7688 35.9016 55.2539C35.3805 55.5773 34.9852 55.6133 32.4336 55.6133C29.882 55.6133 29.4867 55.5773 28.9656 55.2539C27.3484 54.2836 27.2047 51.9117 28.6961 50.9414C29.4867 50.4203 30.1156 50.3305 32.793 50.3664C34.9312 50.4023 35.3984 50.4563 35.9016 50.7617ZM51.8937 50.7617C52.7023 51.2469 53.1875 52.0734 53.1875 53.0078C53.1875 53.9422 52.7203 54.7688 51.8937 55.2539C51.3727 55.5773 50.9773 55.6133 48.4258 55.6133C45.8742 55.6133 45.4789 55.5773 44.9578 55.2539C43.3406 54.2836 43.1969 51.9117 44.6883 50.9414C45.4789 50.4203 46.1078 50.3305 48.7852 50.3664C50.9234 50.4023 51.3906 50.4563 51.8937 50.7617ZM19.7656 62.8547C21.6703 63.807 21.6703 66.4664 19.7656 67.4188C18.8492 67.8859 14.0336 67.8859 13.1172 67.4188C11.2125 66.4664 11.2125 63.807 13.1172 62.8547C13.6383 62.5852 14.2312 62.5313 16.4414 62.5313C18.6516 62.5313 19.2445 62.5852 19.7656 62.8547ZM35.7578 62.8547C36.0992 63.0164 36.5664 63.4297 36.782 63.7711C37.6086 65.0109 37.1234 66.7359 35.7578 67.4188C34.8414 67.8859 30.0258 67.8859 29.1094 67.4188C27.2047 66.4664 27.2047 63.807 29.1094 62.8547C29.6305 62.5852 30.2234 62.5313 32.4336 62.5313C34.6437 62.5313 35.2367 62.5852 35.7578 62.8547Z" fill="#F7C415"/>
<path d="M68.1016 52.8285C60.2852 54.4996 54.2297 60.6628 52.7562 68.4613C52.3609 70.5457 52.3789 74.2292 52.8102 76.2957C54.3914 83.9683 60.5008 90.0597 68.1914 91.6589C70.2219 92.0722 73.9234 92.1082 75.9539 91.7308C83.932 90.2214 90.2211 83.9324 91.7305 75.9542C92.0719 74.1035 92.0719 70.366 91.7305 68.5152C90.2211 60.5191 83.95 54.248 75.9539 52.7386C73.9594 52.3613 70.0602 52.3972 68.1016 52.8285ZM73.5281 61.0402C73.8156 61.2199 74.2289 61.6511 74.4445 61.9925C74.8039 62.5675 74.8398 62.891 74.8937 66.0714L74.9656 69.5035L78.3977 69.5753C82.225 69.6292 82.6742 69.755 83.393 70.905C84.1117 72.091 83.6805 73.7441 82.4406 74.4808C81.8836 74.8222 81.5242 74.8402 76.7266 74.8402C71.7672 74.8402 71.5875 74.8222 70.9766 74.4449C70.6352 74.2292 70.1859 73.78 69.9883 73.4566C69.6469 72.8996 69.6289 72.5402 69.6289 67.7425C69.6289 63.1605 69.6648 62.5675 69.9523 62.0285C70.5992 60.8246 72.3422 60.3574 73.5281 61.0402Z" fill="#F7C415"/>
</g>
</g>
<defs>
<clipPath id="clip0_503_103">
<rect width="92" height="92" fill="white"/>
</clipPath>
</defs>
</svg>
