<svg width="92" height="92" viewBox="0 0 92 92" fill="none" xmlns="http://www.w3.org/2000/svg">
<g clip-path="url(#clip0_369_80)">
<path d="M16.2797 0.341414C15.2914 1.00626 15.0938 1.52735 15.0938 3.53985V5.39063H11.5539C8.35549 5.39063 7.87033 5.44454 6.81018 5.80391C3.64768 6.88204 1.29377 9.27188 0.341427 12.3984C2.06728e-05 13.5484 2.06685e-05 14.1414 0.0359582 42.4961L0.0898644 71.4258L0.700802 72.6836C1.5094 74.3367 2.92893 75.7563 4.58205 76.5649L5.83986 77.1758L27.0969 77.2656L48.3539 77.3555L48.9289 78.7211C51.3906 84.3453 56.4039 88.9274 62.3516 90.9219C66.6461 92.3774 72.3602 92.3774 76.7266 90.9399C82.1711 89.143 86.9867 84.9742 89.6461 79.7274C91.2813 76.5109 92 73.4024 92 69.5391C92 64.7774 90.8321 60.8781 88.2086 56.8711C87.0227 55.0563 83.8602 51.9117 82.1711 50.8516L80.8774 50.043L80.8594 31.7149L80.8414 13.3867L80.4461 12.2008C79.35 8.96642 76.9242 6.64845 73.6899 5.67813C72.9352 5.46251 71.911 5.39063 69.2336 5.39063H65.7656V3.53985C65.7656 1.52735 65.568 1.00626 64.5797 0.341414C63.8789 -0.125773 62.2617 -0.125773 61.561 0.341414C60.5727 1.00626 60.375 1.52735 60.375 3.53985V5.39063H55.5235H50.6719V3.53985C50.6719 1.52735 50.4742 1.00626 49.486 0.341414C48.7852 -0.125773 47.168 -0.125773 46.4672 0.341414C45.4789 1.00626 45.2813 1.52735 45.2813 3.53985V5.39063H40.4297H35.5781V3.53985C35.5781 1.52735 35.3805 1.00626 34.3922 0.341414C33.6914 -0.125773 32.0742 -0.125773 31.3735 0.341414C30.3852 1.00626 30.1875 1.52735 30.1875 3.53985V5.39063H25.336H20.4844V3.53985C20.4844 2.04845 20.4125 1.6172 20.143 1.18595C19.586 0.359383 18.9031 8.00956e-06 17.7891 8.00956e-06C17.1242 8.00956e-06 16.6391 0.107821 16.2797 0.341414ZM15.0938 12.6141C15.0938 14.1234 15.1656 14.5547 15.4352 14.9859C15.9922 15.8125 16.675 16.1719 17.7891 16.1719C18.9031 16.1719 19.586 15.8125 20.143 14.9859C20.4125 14.5547 20.4844 14.1234 20.4844 12.6141V10.7813H25.336H30.1875V12.6141C30.1875 14.6445 30.3852 15.1656 31.3735 15.8305C32.0742 16.2977 33.6914 16.2977 34.3922 15.8305C35.3805 15.1656 35.5781 14.6445 35.5781 12.6141V10.7813H40.4297H45.2813V12.6141C45.2813 14.6445 45.4789 15.1656 46.4672 15.8305C47.168 16.2977 48.7852 16.2977 49.486 15.8305C50.4742 15.1656 50.6719 14.6445 50.6719 12.6141V10.7813H55.5235H60.375V12.6141C60.375 14.6445 60.5727 15.1656 61.561 15.8305C62.2617 16.2977 63.8789 16.2977 64.5797 15.8305C65.568 15.1656 65.7656 14.6445 65.7656 12.5961V10.7274L68.8742 10.8172C71.6414 10.8891 72.0547 10.943 72.7735 11.3024C73.8696 11.8594 74.3367 12.3266 74.8938 13.3867C75.361 14.2672 75.361 14.3391 75.4328 18.8133L75.5047 23.3594H40.4297H5.35471L5.42658 18.8133C5.48049 14.4828 5.51643 14.2492 5.91174 13.4766C6.4508 12.4164 6.93596 11.9133 7.81643 11.4461C8.80471 10.943 9.5594 10.8352 12.5422 10.7992L15.0938 10.7813V12.6141ZM75.4688 38.2375V47.743L73.8156 47.4195C70.4016 46.7547 65.6039 47.0602 62.3516 48.1563C56.7813 50.025 51.9836 54.1938 49.4141 59.3867C47.725 62.8188 47.0781 65.5859 47.0781 69.4852V71.875L27.2766 71.8391C7.81643 71.7852 7.43908 71.7852 6.86408 71.4258C6.54065 71.2281 6.09143 70.7789 5.8758 70.4375L5.48049 69.8086L5.42658 49.2703L5.39065 28.75H40.4297H75.4688V38.2375ZM73.2946 53.0258C79.7992 54.5172 84.8305 59.7281 86.1602 66.2867C86.5914 68.3352 86.4477 72.1086 85.9086 74.0313C83.986 80.7695 77.9485 85.8008 71.0844 86.3938C62.4774 87.1485 54.6789 81.3445 52.936 72.9172C52.5586 71.1383 52.5586 67.9399 52.936 66.1609C54.8406 56.8891 64.1125 50.9055 73.2946 53.0258Z" fill="#8A8A8E"/>
<path d="M28.9297 35.7219C27.9953 36.1891 27.4922 37.0516 27.4922 38.1836C27.4922 39.3156 27.9953 40.1781 28.9297 40.6453C29.4508 40.9148 30.0617 40.9688 32.4336 40.9688C34.8055 40.9688 35.4164 40.9148 35.9375 40.6453C37.8781 39.675 37.8781 36.6922 35.9375 35.7219C35.4164 35.4523 34.8055 35.3984 32.4336 35.3984C30.0617 35.3984 29.4508 35.4523 28.9297 35.7219Z" fill="#8A8A8E"/>
<path d="M44.9219 35.7219C43.9875 36.1891 43.4844 37.0516 43.4844 38.1836C43.4844 39.3156 43.9875 40.1781 44.9219 40.6453C45.443 40.9148 46.0539 40.9688 48.4258 40.9688C51.6781 40.9688 52.2352 40.807 52.9539 39.7289C53.8344 38.4172 53.3312 36.4227 51.9297 35.7219C51.4086 35.4523 50.7977 35.3984 48.4258 35.3984C46.0539 35.3984 45.443 35.4523 44.9219 35.7219Z" fill="#8A8A8E"/>
<path d="M60.9141 35.7219C59.9797 36.1891 59.4766 37.0516 59.4766 38.1836C59.4766 39.3156 59.9797 40.1781 60.9141 40.6453C61.4352 40.9148 62.0461 40.9688 64.418 40.9688C67.6703 40.9688 68.2273 40.807 68.9461 39.7289C69.8266 38.4172 69.3234 36.4227 67.9219 35.7219C67.4008 35.4523 66.7898 35.3984 64.418 35.3984C62.0461 35.3984 61.4352 35.4523 60.9141 35.7219Z" fill="#8A8A8E"/>
<path d="M12.6859 47.9586C11.8594 48.5156 11.5 49.1984 11.5 50.3125C11.5 51.4266 11.8594 52.1094 12.6859 52.6664C13.1531 52.9719 13.5664 53.0078 16.4414 53.0078C19.9992 53.0078 20.3047 52.918 21.0414 51.8219C21.5086 51.1211 21.5086 49.5039 21.0414 48.8031C20.3047 47.707 19.9992 47.6172 16.4414 47.6172C13.5664 47.6172 13.1531 47.6531 12.6859 47.9586Z" fill="#8A8A8E"/>
<path d="M28.6781 47.9586C27.8516 48.5156 27.4922 49.1984 27.4922 50.3125C27.4922 51.4266 27.8516 52.1094 28.6781 52.6664C29.1453 52.9719 29.5586 53.0078 32.4336 53.0078C35.3086 53.0078 35.7219 52.9719 36.1891 52.6664C37.0156 52.1094 37.375 51.4266 37.375 50.3125C37.375 49.1984 37.0156 48.5156 36.1891 47.9586C35.7219 47.6531 35.3086 47.6172 32.4336 47.6172C29.5586 47.6172 29.1453 47.6531 28.6781 47.9586Z" fill="#8A8A8E"/>
<path d="M44.6703 47.9586C43.8437 48.5156 43.4844 49.1984 43.4844 50.3125C43.4844 51.4266 43.8437 52.1094 44.6703 52.6664C45.1375 52.9719 45.5508 53.0078 48.4258 53.0078C51.9836 53.0078 52.2891 52.918 53.0258 51.8219C53.493 51.1211 53.493 49.5039 53.0258 48.8031C52.2891 47.707 51.9836 47.6172 48.4258 47.6172C45.5508 47.6172 45.1375 47.6531 44.6703 47.9586Z" fill="#8A8A8E"/>
<path d="M12.9374 59.9797C10.9968 60.95 10.9968 63.9328 12.9374 64.9031C13.4585 65.1727 14.0694 65.2266 16.4413 65.2266C19.6937 65.2266 20.2507 65.0648 20.9694 63.9867C21.8499 62.675 21.3468 60.6805 19.9452 59.9797C19.4241 59.7102 18.8132 59.6563 16.4413 59.6563C14.0694 59.6563 13.4585 59.7102 12.9374 59.9797Z" fill="#8A8A8E"/>
<path d="M28.9298 59.9797C27.5282 60.6805 27.0251 62.675 27.9056 63.9867C28.6243 65.0648 29.1814 65.2266 32.4337 65.2266C34.8056 65.2266 35.4165 65.1727 35.9376 64.9031C37.8782 63.9328 37.8782 60.95 35.9376 59.9797C35.4165 59.7102 34.8056 59.6563 32.4337 59.6563C30.0618 59.6563 29.4509 59.7102 28.9298 59.9797Z" fill="#8A8A8E"/>
<path d="M68.0295 58.2008C66.8435 58.9914 66.8435 58.9914 66.8435 65.0468C66.8435 72.7734 66.3045 72.2343 74.031 72.2343C80.0865 72.2343 80.0865 72.2343 80.8771 71.0484C81.3443 70.3476 81.3443 68.7304 80.8771 68.0297C80.1404 66.9156 79.8709 66.8437 75.8818 66.8437H72.2342V63.1961C72.2342 59.9437 72.1982 59.5125 71.8928 59.0453C71.3357 58.2187 70.6529 57.8593 69.5388 57.8593C68.874 57.8593 68.3888 57.9672 68.0295 58.2008Z" fill="#8A8A8E"/>
</g>
<defs>
<clipPath id="clip0_369_80">
<rect width="92" height="92" fill="white"/>
</clipPath>
</defs>
</svg>
