<svg width="92" height="92" viewBox="0 0 92 92" fill="none" xmlns="http://www.w3.org/2000/svg">
<g clip-path="url(#clip0_369_95)">
<path d="M13.0453 0.341404C12.057 1.00625 11.8594 1.52734 11.8594 3.53984V5.39062H9.93672C8.40937 5.39062 7.74453 5.48047 6.81016 5.8039C3.66562 6.88203 1.31172 9.25391 0.359375 12.3805C0.0359375 13.3867 0 14.0516 0 18.4359V23.3594H40.4297H80.8594V18.3641C80.8414 13.6922 80.8234 13.3148 80.4461 12.2008C79.35 8.96641 76.9242 6.64844 73.6898 5.67812C73.0609 5.49844 72.0367 5.39062 70.8508 5.39062H69V3.53984C69 2.04844 68.9281 1.61719 68.6586 1.18594C68.1016 0.359373 67.4187 -1.93715e-06 66.3047 -1.93715e-06C65.1906 -1.93715e-06 64.5078 0.359373 63.9508 1.18594C63.6812 1.61719 63.6094 2.04844 63.6094 3.53984V5.39062H57.6797H51.75V3.53984C51.75 1.52734 51.5523 1.00625 50.5641 0.341404C49.8633 -0.125783 48.2461 -0.125783 47.5453 0.341404C46.557 1.00625 46.3594 1.52734 46.3594 3.53984V5.39062H40.4297H34.5V3.53984C34.5 1.52734 34.3023 1.00625 33.3141 0.341404C32.6133 -0.125783 30.9961 -0.125783 30.2953 0.341404C29.307 1.00625 29.1094 1.52734 29.1094 3.53984V5.39062H23.1797H17.25V3.53984C17.25 2.04844 17.1781 1.61719 16.9086 1.18594C16.3516 0.359373 15.6687 -1.93715e-06 14.5547 -1.93715e-06C13.8898 -1.93715e-06 13.4047 0.107811 13.0453 0.341404ZM17.2141 9.73906C17.1602 13.8539 17.1422 14.1414 16.7648 14.7344C16.2617 15.5609 15.4891 15.9922 14.5547 15.9922C13.6203 15.9922 12.8477 15.5609 12.3445 14.7344C11.9672 14.1414 11.9492 13.8539 11.8953 9.73906L11.8234 5.39062H14.5547H17.2859L17.2141 9.73906ZM34.4641 9.73906C34.4102 13.8539 34.3922 14.1414 34.0148 14.7344C33.5117 15.5609 32.7391 15.9922 31.8047 15.9922C30.8703 15.9922 30.0977 15.5609 29.5945 14.7344C29.2172 14.1414 29.1992 13.8539 29.1453 9.73906L29.0734 5.39062H31.8047H34.5359L34.4641 9.73906ZM51.7141 9.73906C51.6602 13.8539 51.6422 14.1414 51.2648 14.7344C50.7617 15.5609 49.9891 15.9922 49.0547 15.9922C48.1203 15.9922 47.3477 15.5609 46.8445 14.7344C46.4672 14.1414 46.4492 13.8539 46.3953 9.73906L46.3234 5.39062H49.0547H51.7859L51.7141 9.73906ZM68.9641 9.73906C68.9102 13.8539 68.8922 14.1414 68.5148 14.7344C68.0117 15.5609 67.2391 15.9922 66.3047 15.9922C65.3703 15.9922 64.5977 15.5609 64.0945 14.7344C63.7172 14.1414 63.6992 13.8539 63.6453 9.73906L63.5734 5.39062H66.3047H69.0359L68.9641 9.73906Z" fill="#007AFF"/>
<path d="M0.0359375 50.0789L0.0898437 71.4258L0.664844 72.6117C1.70703 74.732 3.28828 76.1516 5.48047 76.9063C6.50469 77.2656 6.97187 77.2656 27.0969 77.2656H47.6531L47.5453 76.6906C47.4734 76.3672 47.3836 74.75 47.3117 73.0969C47.1859 69.557 47.4734 67.4727 48.4437 64.5078C49.7016 60.7164 51.4805 57.8055 54.3375 54.8586C59.1531 49.8633 65.3703 47.2219 72.3062 47.2398C75.2352 47.2398 78.3437 47.7609 80.5898 48.6234C80.8234 48.7133 80.8594 47.6352 80.8594 38.7406V28.75H40.4297H0L0.0359375 50.0789ZM35.7578 38.5969C36.0992 38.7586 36.5664 39.1719 36.782 39.5133C37.6086 40.7531 37.1234 42.4781 35.7578 43.1609C35.2367 43.4305 34.6437 43.4844 32.4336 43.4844C29.3789 43.4844 28.8039 43.3227 28.0852 42.2445C27.2586 41.0047 27.7437 39.2797 29.1094 38.5969C29.6305 38.3273 30.2234 38.2734 32.4336 38.2734C34.6437 38.2734 35.2367 38.3273 35.7578 38.5969ZM51.75 38.5969C52.0914 38.7586 52.5586 39.1719 52.7742 39.5133C53.6008 40.7531 53.1156 42.4781 51.75 43.1609C51.2289 43.4305 50.6359 43.4844 48.4258 43.4844C45.3711 43.4844 44.7961 43.3227 44.0773 42.2445C43.2508 41.0047 43.7359 39.2797 45.1016 38.5969C45.6227 38.3273 46.2156 38.2734 48.4258 38.2734C50.6359 38.2734 51.2289 38.3273 51.75 38.5969ZM67.7422 38.5969C68.0836 38.7586 68.5508 39.1719 68.7664 39.5133C69.593 40.7531 69.1078 42.4781 67.7422 43.1609C67.2211 43.4305 66.6281 43.4844 64.418 43.4844C61.3633 43.4844 60.7883 43.3227 60.0695 42.2445C59.243 41.0047 59.7281 39.2797 61.0937 38.5969C61.6148 38.3273 62.2078 38.2734 64.418 38.2734C66.6281 38.2734 67.2211 38.3273 67.7422 38.5969ZM19.9094 50.7617C20.718 51.2469 21.2031 52.0734 21.2031 53.0078C21.2031 53.9422 20.7359 54.7688 19.9094 55.2539C19.3883 55.5773 18.993 55.6133 16.4414 55.6133C13.8898 55.6133 13.4945 55.5773 12.9734 55.2539C11.3562 54.2836 11.2125 51.9117 12.7039 50.9414C13.4945 50.4203 14.1234 50.3305 16.8008 50.3664C18.9391 50.4023 19.4062 50.4563 19.9094 50.7617ZM35.9016 50.7617C36.7102 51.2469 37.1953 52.0734 37.1953 53.0078C37.1953 53.9422 36.7281 54.7688 35.9016 55.2539C35.3805 55.5773 34.9852 55.6133 32.4336 55.6133C29.882 55.6133 29.4867 55.5773 28.9656 55.2539C27.3484 54.2836 27.2047 51.9117 28.6961 50.9414C29.4867 50.4203 30.1156 50.3305 32.793 50.3664C34.9312 50.4023 35.3984 50.4563 35.9016 50.7617ZM51.8937 50.7617C52.7023 51.2469 53.1875 52.0734 53.1875 53.0078C53.1875 53.9422 52.7203 54.7688 51.8937 55.2539C51.3727 55.5773 50.9773 55.6133 48.4258 55.6133C45.8742 55.6133 45.4789 55.5773 44.9578 55.2539C43.3406 54.2836 43.1969 51.9117 44.6883 50.9414C45.4789 50.4203 46.1078 50.3305 48.7852 50.3664C50.9234 50.4023 51.3906 50.4563 51.8937 50.7617ZM19.7656 62.8547C21.6703 63.807 21.6703 66.4664 19.7656 67.4188C18.8492 67.8859 14.0336 67.8859 13.1172 67.4188C11.2125 66.4664 11.2125 63.807 13.1172 62.8547C13.6383 62.5852 14.2312 62.5313 16.4414 62.5313C18.6516 62.5313 19.2445 62.5852 19.7656 62.8547ZM35.7578 62.8547C36.0992 63.0164 36.5664 63.4297 36.782 63.7711C37.6086 65.0109 37.1234 66.7359 35.7578 67.4188C34.8414 67.8859 30.0258 67.8859 29.1094 67.4188C27.2047 66.4664 27.2047 63.807 29.1094 62.8547C29.6305 62.5852 30.2234 62.5313 32.4336 62.5313C34.6437 62.5313 35.2367 62.5852 35.7578 62.8547Z" fill="#007AFF"/>
<path d="M68.1016 52.8282C60.2852 54.4993 54.2297 60.6625 52.7562 68.461C52.3609 70.5454 52.3789 74.2289 52.8102 76.2954C54.3914 83.968 60.5008 90.0594 68.1914 91.6586C70.2219 92.0719 73.9234 92.1079 75.9539 91.7305C83.932 90.2211 90.2211 83.9321 91.7305 75.9539C92.0719 74.1032 92.0719 70.3657 91.7305 68.5149C90.2211 60.5188 83.95 54.2477 75.9539 52.7383C73.9594 52.361 70.0602 52.3969 68.1016 52.8282ZM73.5281 61.0399C73.8156 61.2196 74.2289 61.6508 74.4445 61.9922C74.8039 62.5672 74.8398 62.8907 74.8937 66.0711L74.9656 69.5032L78.3977 69.575C82.225 69.6289 82.6742 69.7547 83.393 70.9047C84.1117 72.0907 83.6805 73.7438 82.4406 74.4805C81.8836 74.8219 81.5242 74.8399 76.7266 74.8399C71.7672 74.8399 71.5875 74.8219 70.9766 74.4446C70.6352 74.2289 70.1859 73.7797 69.9883 73.4563C69.6469 72.8993 69.6289 72.5399 69.6289 67.7422C69.6289 63.1602 69.6648 62.5672 69.9523 62.0282C70.5992 60.8243 72.3422 60.3571 73.5281 61.0399Z" fill="#007AFF"/>
</g>
<defs>
<clipPath id="clip0_369_95">
<rect width="92" height="92" fill="white"/>
</clipPath>
</defs>
</svg>
