<svg width="33" height="31" viewBox="0 0 33 31" fill="none" xmlns="http://www.w3.org/2000/svg">
<path d="M32.0327 27.4883C32.0327 27.2706 32.0296 27.1135 31.9976 26.9639C31.9648 26.8108 31.9042 26.6776 31.8179 26.502C31.67 26.2013 31.5377 26.0335 31.0562 25.584L30.4448 25.0244H30.4438C28.549 23.3185 27.5534 22.4192 25.7446 20.7764V20.7773C25.2683 20.3441 24.8103 19.9357 24.4565 19.6279C24.2799 19.4742 24.1284 19.3445 24.0132 19.249C23.9557 19.2014 23.9055 19.1617 23.8657 19.1309L23.7563 19.0537L23.7505 19.0508C23.5577 18.9507 23.2955 18.9098 23.0542 18.9082C22.811 18.9066 22.5448 18.9459 22.3374 19.04L22.3364 19.0391L22.2397 19.084L22.1714 19.0254L22.1694 19.0234C22.121 18.9831 22.0348 18.9071 21.936 18.8174L21.6255 18.5303L21.6235 18.5273C21.5376 18.4485 21.4753 18.3912 21.4312 18.3467C21.4232 18.3387 21.4169 18.3308 21.4106 18.3242C22.1554 17.1578 22.7354 15.6484 22.9829 14.25V14.248C23.1301 13.3886 23.1654 11.9092 23.0474 11.041V11.042C22.9366 10.2022 22.6352 8.96654 22.3735 8.31836V8.31934C21.375 5.80671 19.6131 3.82668 17.2554 2.56641L16.7759 2.32324H16.7749C15.1879 1.56787 13.691 1.24025 11.813 1.24023C10.8527 1.24023 10.0404 1.33018 9.17725 1.53711L8.8042 1.63281C4.67726 2.75839 1.51753 6.308 0.820801 10.5879L0.819824 10.5869C0.763293 10.9321 0.716603 11.455 0.689941 11.9463C0.663496 12.4337 0.655247 12.9151 0.680176 13.1709V13.1719C0.832763 14.6723 1.13811 15.8795 1.66846 17.0312L1.90967 17.5225C3.02113 19.6342 4.6963 21.2931 6.79346 22.3477H6.79443C9.12402 23.5182 11.5968 23.8395 14.1978 23.3193H14.1987C15.8984 22.9735 17.9563 21.97 19.1382 20.8945L19.1411 20.8926C19.2196 20.8188 19.2962 20.7528 19.3579 20.7012C19.3653 20.7073 19.3734 20.7131 19.3813 20.7197C19.4806 20.8023 19.6141 20.9167 19.7583 21.0439H19.7573C19.9486 21.2181 20.0669 21.335 20.1353 21.415C20.156 21.4394 20.1681 21.4578 20.1763 21.4697C20.1627 21.569 20.1428 21.7307 20.1294 21.8779L20.1284 21.8809C20.1159 22.0333 20.1045 22.188 20.1353 22.3447C20.1678 22.5105 20.2432 22.6596 20.3696 22.8252C20.5491 23.0602 20.8598 23.3629 21.3726 23.8359L21.9556 24.3701C22.6164 24.9709 23.4627 25.7446 24.4321 26.6367L27.6509 29.6133C27.9529 29.8923 28.189 30.0836 28.4429 30.1982C28.7044 30.3163 28.964 30.3438 29.2925 30.3438C29.5102 30.3437 29.6673 30.3406 29.8169 30.3086C29.97 30.2758 30.1032 30.2153 30.2788 30.1289C30.6371 29.9529 30.8181 29.7925 31.2271 29.3252C31.5324 28.9795 31.7389 28.7088 31.8647 28.4258C31.9938 28.1354 32.0297 27.8506 32.0327 27.4912V27.4883ZM22.2124 12.6533C22.2012 13.0794 22.1767 13.4972 22.1411 13.8057L22.1021 14.0742C21.8714 15.3109 21.4692 16.4194 20.894 17.4209L20.6372 17.8438C20.5634 17.9589 20.4961 18.0712 20.4468 18.1592C20.4224 18.2027 20.4013 18.2432 20.3853 18.2764C20.3774 18.2926 20.3687 18.3104 20.3618 18.3281C20.3584 18.3369 20.3539 18.3487 20.3501 18.3623C20.3474 18.372 20.3394 18.4013 20.3394 18.4375C20.3395 18.4947 20.3602 18.5363 20.3647 18.5459C20.3723 18.5621 20.3796 18.575 20.3843 18.582C20.3938 18.5965 20.4039 18.6091 20.4106 18.6172C20.425 18.6345 20.4433 18.6539 20.4614 18.6729C20.4985 18.7117 20.5494 18.763 20.6099 18.8213C20.7318 18.9389 20.8989 19.0935 21.0806 19.2578C21.2599 19.42 21.4228 19.5703 21.5405 19.6816C21.5532 19.6936 21.5652 19.7059 21.5767 19.7168C21.5661 19.7295 21.5551 19.7429 21.5435 19.7568C21.4417 19.878 21.3043 20.0367 21.1646 20.1953C21.0247 20.354 20.8835 20.5115 20.7739 20.6299C20.7552 20.6501 20.7376 20.6691 20.7212 20.6865C20.7153 20.6819 20.7088 20.6768 20.7026 20.6719L20.2866 20.3174L20.2847 20.3154C20.1216 20.1724 19.9636 20.034 19.8394 19.9277C19.7773 19.8747 19.7223 19.829 19.6792 19.7939L19.5601 19.707L19.5522 19.7021L19.5435 19.6982C19.4473 19.654 19.3537 19.6677 19.2886 19.6885C19.2254 19.7087 19.1631 19.744 19.104 19.7822C19.0441 19.8209 18.9727 19.8725 18.8882 19.9385L18.5913 20.1807C17.1685 21.3738 15.6943 22.0878 13.897 22.4629L13.896 22.4639C13.3557 22.5796 12.9884 22.6132 12.1646 22.6416C10.9679 22.6752 10.2534 22.5971 9.20264 22.3232L8.75439 22.1943C4.17334 20.756 1.12002 16.2039 1.60107 11.4209L1.65869 10.9609C1.81463 9.90135 2.12595 8.92017 2.63623 7.875C3.40282 6.30265 4.5275 4.9661 5.9126 3.97754C6.96538 3.22567 8.50009 2.56446 9.78662 2.31934H9.7876C13.6158 1.57648 17.4604 2.93517 19.8813 5.83984L20.1118 6.12598C21.2503 7.59935 21.9163 9.24563 22.1802 11.2314C22.2177 11.5323 22.2274 12.086 22.2124 12.6533ZM31.1323 27.5449C31.1296 27.7962 31.1055 27.9378 31.0308 28.0889C30.9491 28.254 30.7997 28.4456 30.5034 28.7764L30.5015 28.7773C30.244 29.0684 30.0525 29.2382 29.8774 29.3379C29.7108 29.4328 29.5465 29.4717 29.3267 29.4717C29.1374 29.4717 28.9493 29.4304 28.8433 29.3838C28.8529 29.388 28.8441 29.3844 28.8042 29.3555C28.7702 29.3308 28.7244 29.2961 28.6675 29.25C28.5538 29.1581 28.4012 29.0285 28.2153 28.8662C27.8441 28.5419 27.3453 28.0911 26.7651 27.5566L24.8628 25.8057C24.1767 25.1761 23.4925 24.5508 22.9741 24.0811C22.46 23.6126 21.9828 23.1684 21.6294 22.832C21.4526 22.6638 21.3078 22.5228 21.2046 22.4199C21.1528 22.3683 21.1122 22.3274 21.0845 22.2979C21.0774 22.2903 21.0717 22.2837 21.0669 22.2783C21.0455 22.2283 21.0215 22.1246 21.019 21.9961C21.0164 21.853 21.039 21.758 21.0532 21.7324C21.0535 21.7319 21.0546 21.7304 21.0552 21.7295C21.0565 21.7274 21.0586 21.7243 21.061 21.7207C21.0659 21.7136 21.0724 21.7045 21.0806 21.6934C21.0972 21.6706 21.1188 21.6414 21.146 21.6074C21.2003 21.5395 21.2723 21.4539 21.356 21.3564C21.5231 21.1616 21.7354 20.924 21.9478 20.6914C22.1603 20.4586 22.3715 20.2319 22.5376 20.0615C22.6208 19.9762 22.6913 19.9066 22.7437 19.8574C22.7646 19.8378 22.7818 19.8234 22.7944 19.8125C22.9387 19.7695 23.1597 19.7756 23.3149 19.8408L23.3218 19.8438C23.3117 19.8398 23.3319 19.849 23.3979 19.8975C23.4541 19.9387 23.5273 19.9959 23.6118 20.0654C23.7808 20.2044 23.9908 20.3871 24.1997 20.5791C25.1109 21.4158 27.5561 23.6381 29.5142 25.4072C30.3334 26.1483 30.7334 26.523 30.937 26.8018C31.0323 26.9323 31.0772 27.0324 31.1011 27.1328C31.1264 27.2396 31.1323 27.3599 31.1323 27.5449Z" fill="#7CC0F7" stroke="#8A8A8E" stroke-width="0.5"/>
<path d="M32.1833 27.4883C32.1833 27.2721 32.1801 27.0999 32.1443 26.9326C32.1073 26.7599 32.0395 26.6127 31.9529 26.4365C31.7934 26.1123 31.6445 25.9267 31.158 25.4727L30.5457 24.9131H30.5447C28.6499 23.2072 27.6541 22.3086 25.8455 20.666C25.3686 20.2322 24.9101 19.8232 24.5554 19.5146C24.3783 19.3606 24.2256 19.2304 24.1091 19.1338C24.0511 19.0857 24.0003 19.044 23.9587 19.0117C23.9261 18.9864 23.8752 18.9484 23.8289 18.9229L23.8201 18.918L23.7341 18.8779C23.5261 18.7922 23.2768 18.7602 23.0554 18.7588C22.7994 18.7571 22.5092 18.797 22.2751 18.9033L22.2654 18.9072C22.1719 18.8292 21.9284 18.6087 21.7292 18.4209L21.7244 18.417C21.6751 18.3718 21.6356 18.3334 21.6023 18.3018C22.3269 17.133 22.8871 15.6516 23.1306 14.2754L23.1316 14.2734C23.2812 13.3996 23.3163 11.9046 23.196 11.0205V11.0215C23.0841 10.1738 22.7805 8.92892 22.5134 8.26562V8.26465C21.4344 5.54933 19.474 3.4459 16.8406 2.18848H16.8396C15.2311 1.42282 13.7122 1.08986 11.8132 1.08984C10.7038 1.08984 9.78692 1.20952 8.76636 1.48828L8.76538 1.4873C4.58055 2.62862 1.37762 6.22671 0.671631 10.5635C0.61383 10.9166 0.567525 11.4454 0.540771 11.9385C0.51434 12.4257 0.504837 12.9171 0.531006 13.1855V13.1875C0.706977 14.9177 1.08549 16.2682 1.7771 17.5918L1.77808 17.5928C2.90375 19.7315 4.60068 21.4126 6.72632 22.4814H6.72729C9.0875 23.6674 11.5944 23.9934 14.2273 23.4668H14.2283C15.9515 23.1162 18.0351 22.1015 19.239 21.0059L19.2439 21.002C19.2835 20.9647 19.3246 20.9318 19.3611 20.8994C19.4474 20.9727 19.5509 21.0621 19.6609 21.1592H19.6619C19.8471 21.328 19.9576 21.4372 20.0193 21.5088C20.0067 21.6106 19.9912 21.7439 19.9802 21.8643L19.9792 21.8682C19.967 22.0177 19.9527 22.1928 19.988 22.373C20.0263 22.5678 20.1149 22.7381 20.2507 22.916C20.5004 23.243 20.9867 23.6888 21.8542 24.4805L21.8552 24.4814C23.1764 25.6825 25.2363 27.5764 27.5486 29.7227L27.5496 29.7236C27.8525 30.0035 28.1038 30.2095 28.3816 30.335C28.6716 30.4658 28.9562 30.4941 29.2927 30.4941C29.5089 30.4941 29.6811 30.4909 29.8484 30.4551C30.021 30.4181 30.1684 30.3503 30.3445 30.2637C30.7289 30.0749 30.9255 29.8978 31.3386 29.4258C31.6459 29.0779 31.8658 28.7929 32.0017 28.4873C32.1428 28.17 32.1803 27.8616 32.1833 27.4922V27.4883ZM22.0632 12.6494C22.0483 13.2166 22.0087 13.7597 21.9548 14.0469C21.6945 15.4425 21.2143 16.67 20.5115 17.7627H20.5105C20.4354 17.8799 20.3671 17.995 20.3162 18.0859C20.2911 18.1307 20.2676 18.1739 20.2498 18.2109C20.2412 18.2287 20.2313 18.2506 20.2224 18.2734C20.218 18.2848 20.2114 18.3022 20.2058 18.3223C20.202 18.3359 20.1902 18.3807 20.1902 18.4375C20.1903 18.5288 20.2224 18.5958 20.2292 18.6104C20.2411 18.6355 20.2528 18.6549 20.2595 18.665C20.2734 18.6861 20.2875 18.7031 20.2957 18.7129C20.3133 18.7341 20.3334 18.7566 20.3523 18.7764C20.3915 18.8175 20.4454 18.8697 20.5066 18.9287C20.63 19.0477 20.7978 19.2041 20.9802 19.3691C21.1272 19.5021 21.2625 19.6271 21.3708 19.7285C21.2786 19.8371 21.1668 19.967 21.0525 20.0967C20.9316 20.2339 20.8096 20.3694 20.7087 20.4795L20.3865 20.2051L20.3845 20.2031C20.2213 20.0599 20.0615 19.9215 19.9363 19.8145C19.874 19.7612 19.8186 19.7139 19.7742 19.6777C19.7439 19.6531 19.6843 19.6044 19.6335 19.5762L19.6208 19.5684L19.6072 19.5625C19.4641 19.4965 19.3281 19.5186 19.2429 19.5459C19.161 19.5721 19.0854 19.6154 19.0222 19.6562C18.8936 19.7394 18.7226 19.8747 18.4949 20.0654C17.091 21.2427 15.6399 21.9463 13.8669 22.3164L13.865 22.3174C13.3372 22.4305 12.98 22.4629 12.1599 22.4912C10.9767 22.5244 10.2765 22.4476 9.24097 22.1777L8.79956 22.0508C4.28574 20.6335 1.2772 16.1476 1.75073 11.4365L1.80737 10.9834C1.96093 9.93953 2.2672 8.97274 2.77124 7.94043L2.91772 7.65234C3.66727 6.22669 4.72083 5.01239 5.99976 4.09961C7.03509 3.36016 8.54999 2.70781 9.81519 2.4668H9.81714C13.5929 1.73426 17.3813 3.07462 19.7664 5.93652L19.9929 6.21777C21.1143 7.669 21.7704 9.29038 22.031 11.2529H22.032C22.0678 11.5427 22.0781 12.0851 22.0632 12.6494ZM30.9822 27.5439C30.9795 27.7846 30.9566 27.9004 30.8962 28.0225C30.8248 28.1668 30.6885 28.3441 30.3914 28.6758L30.3894 28.6777C30.1353 28.9649 29.9569 29.1206 29.8035 29.208C29.6636 29.2876 29.5257 29.3213 29.3269 29.3213C29.1629 29.3213 29.0039 29.287 28.9167 29.252C28.9118 29.2486 28.9039 29.2428 28.8923 29.2344C28.8614 29.2119 28.8182 29.1789 28.7625 29.1338C28.6509 29.0436 28.4995 28.9148 28.3142 28.7529C27.9444 28.4299 27.4466 27.9803 26.8669 27.4463V27.4473C25.8134 26.4739 24.1128 24.9101 23.075 23.9697L22.3435 23.2969C22.1164 23.0858 21.9094 22.8913 21.7332 22.7236C21.5567 22.5557 21.4124 22.4152 21.3103 22.3135C21.2602 22.2635 21.222 22.2249 21.196 22.1973C21.1925 22.1848 21.1879 22.1693 21.1843 22.1504C21.1757 22.1049 21.1698 22.0501 21.1687 21.9932C21.1676 21.9359 21.171 21.8838 21.1775 21.8438C21.1849 21.7981 21.193 21.7914 21.1843 21.8066C21.1852 21.8054 21.2054 21.7738 21.2634 21.7012C21.3162 21.6351 21.3864 21.551 21.4695 21.4541C21.6354 21.2607 21.8466 21.0239 22.0583 20.792C22.2701 20.56 22.4807 20.3358 22.6453 20.167C22.728 20.0822 22.7963 20.0139 22.8464 19.9668C22.8541 19.9596 22.8617 19.9539 22.8679 19.9482C22.9781 19.925 23.1431 19.9313 23.2576 19.9795L23.2507 19.9775C23.2566 19.9814 23.2752 19.9926 23.3093 20.0176C23.3624 20.0565 23.4328 20.112 23.5164 20.1807C23.6829 20.3176 23.8909 20.4988 24.0984 20.6895C25.0099 21.5265 27.4556 23.7493 29.4138 25.5186C30.2383 26.2644 30.6239 26.6265 30.8162 26.8896C30.9018 27.0069 30.9364 27.0894 30.9548 27.167C30.9757 27.255 30.9821 27.3597 30.9822 27.5439Z" fill="#8A8A8E" stroke="#8A8A8E" stroke-width="0.8"/>
<mask id="mask0_330_88" style="mask-type:alpha" maskUnits="userSpaceOnUse" x="5" y="5" width="14" height="15">
<rect x="5.7937" y="18.9932" width="12.6365" height="12.6365" transform="rotate(-90 5.7937 18.9932)" fill="#333333" stroke="#8A8A8E"/>
</mask>
<g mask="url(#mask0_330_88)">
<path d="M6.93994 8.61963C6.93994 8.3008 7.04784 8.03419 7.26318 7.81885C7.47847 7.60361 7.74232 7.49569 8.05615 7.49561C8.37019 7.49561 8.63471 7.60346 8.8501 7.81885L10.6255 9.59424L10.6343 9.58545L10.6196 9.60107L10.6372 9.59814L16.0845 8.6333L17.2739 9.82275L12.7886 11.7476L12.772 11.7544L14.2339 13.2163L14.2271 13.2231L14.2446 13.2202L16.2827 12.8521L17.2749 13.8442L14.6772 15.2417L14.6763 15.2397L14.6724 15.2476L13.2739 17.8462L12.2954 16.854L12.6499 14.8003L12.6587 14.8022L12.646 14.7896L11.1978 13.3403L11.1841 13.3276L11.1772 13.3442L9.26611 17.8306L8.06299 16.6558L9.02783 11.1929L9.03662 11.1938L9.02393 11.1821L7.26318 9.42041C7.04788 9.2051 6.93998 8.93838 6.93994 8.61963Z" fill="#8A8A8E" stroke="#8A8A8E" stroke-width="0.025"/>
</g>
</svg>
