<svg width="30" height="33" viewBox="0 0 30 33" fill="none" xmlns="http://www.w3.org/2000/svg">
<path d="M3.46045 32.3732C3.67816 32.3732 3.83522 32.3701 3.98486 32.338C4.13791 32.3052 4.27117 32.2447 4.44678 32.1583C4.74742 32.0104 4.91519 31.8781 5.36475 31.3966L5.92432 30.7853V30.7843C7.63024 28.8895 8.52957 27.8939 10.1724 26.0851H10.1714C10.6046 25.6088 11.0131 25.1507 11.3208 24.797C11.4745 24.6203 11.6042 24.4688 11.6997 24.3536C11.7473 24.2962 11.787 24.2459 11.8179 24.2062L11.895 24.0968L11.8979 24.0909C11.998 23.8982 12.0389 23.636 12.0405 23.3947C12.0421 23.1515 12.0029 22.8853 11.9087 22.6779L11.9097 22.6769L11.8647 22.5802L11.9233 22.5118L11.9253 22.5099C11.9657 22.4615 12.0416 22.3753 12.1313 22.2765L12.4185 21.9659L12.4214 21.964C12.5002 21.878 12.5575 21.8158 12.6021 21.7716C12.6101 21.7637 12.618 21.7573 12.6245 21.7511C13.791 22.4959 15.3003 23.0758 16.6987 23.3234H16.7007C17.5602 23.4705 19.0395 23.5059 19.9077 23.3878H19.9067C20.7465 23.277 21.9822 22.9756 22.6304 22.714H22.6294C25.142 21.7154 27.122 19.9536 28.3823 17.5958L28.6255 17.1163V17.1154C29.3809 15.5283 29.7085 14.0315 29.7085 12.1534C29.7085 11.1931 29.6186 10.3808 29.4116 9.5177L29.3159 9.14465C28.1903 5.01771 24.6407 1.85798 20.3608 1.16125L20.3618 1.16028C20.0167 1.10375 19.4937 1.05706 19.0024 1.0304C18.515 1.00395 18.0337 0.9957 17.7778 1.02063H17.7769C16.2764 1.17322 15.0693 1.47857 13.9175 2.00891L13.4263 2.25012C11.3145 3.36158 9.65559 5.03675 8.60107 7.13391V7.13489C7.43054 9.46448 7.10921 11.9373 7.62939 14.5382V14.5392C7.97522 16.2388 8.97873 18.2968 10.0542 19.4786L10.0562 19.4816C10.1299 19.5601 10.1959 19.6367 10.2476 19.6984C10.2415 19.7058 10.2356 19.7139 10.229 19.7218C10.1464 19.8211 10.032 19.9546 9.90479 20.0988V20.0978C9.73061 20.2891 9.6137 20.4074 9.53369 20.4757C9.50934 20.4965 9.49093 20.5086 9.479 20.5167C9.37971 20.5032 9.21806 20.4832 9.0708 20.4698L9.06787 20.4689C8.91546 20.4564 8.76071 20.4449 8.604 20.4757C8.43826 20.5083 8.28914 20.5837 8.12354 20.7101C7.88853 20.8895 7.5858 21.2002 7.11279 21.713L6.57861 22.296C5.97784 22.9569 5.20415 23.8032 4.31201 24.7726L1.33545 27.9913C1.0564 28.2934 0.86511 28.5295 0.750488 28.7833C0.632433 29.0449 0.60498 29.3045 0.60498 29.6329C0.604983 29.8507 0.608087 30.0077 0.640137 30.1573C0.672937 30.3104 0.733452 30.4436 0.819824 30.6193C0.995783 30.9776 1.15621 31.1586 1.62354 31.5675C1.96927 31.8728 2.2399 32.0793 2.52295 32.2052C2.81332 32.3342 3.09815 32.3701 3.45752 32.3732H3.46045ZM18.2954 22.5529C17.8693 22.5416 17.4516 22.5172 17.1431 22.4816L16.8745 22.4425C15.6379 22.2119 14.5294 21.8097 13.5278 21.2345L13.105 20.9777C12.9899 20.9039 12.8775 20.8365 12.7896 20.7872C12.746 20.7629 12.7055 20.7417 12.6724 20.7257C12.6561 20.7179 12.6383 20.7091 12.6206 20.7023C12.6119 20.6989 12.6 20.6944 12.5864 20.6906C12.5768 20.6879 12.5474 20.6798 12.5112 20.6798C12.4541 20.6799 12.4125 20.7007 12.4028 20.7052C12.3867 20.7128 12.3738 20.7201 12.3667 20.7247C12.3523 20.7343 12.3397 20.7444 12.3315 20.7511C12.3142 20.7655 12.2948 20.7838 12.2759 20.8019C12.237 20.839 12.1858 20.8898 12.1274 20.9503C12.0099 21.0723 11.8553 21.2394 11.6909 21.421C11.5287 21.6003 11.3784 21.7633 11.2671 21.881C11.2551 21.8936 11.2429 21.9057 11.2319 21.9171C11.2192 21.9066 11.2058 21.8956 11.1919 21.8839C11.0707 21.7822 10.9121 21.6448 10.7534 21.505C10.5947 21.3652 10.4373 21.2239 10.3188 21.1144C10.2986 21.0957 10.2797 21.078 10.2622 21.0616C10.2669 21.0558 10.2719 21.0493 10.2769 21.0431L10.6313 20.6271L10.6333 20.6251C10.7763 20.4621 10.9148 20.3041 11.021 20.1798C11.074 20.1178 11.1197 20.0628 11.1548 20.0197L11.2417 19.9005L11.2466 19.8927L11.2505 19.8839C11.2947 19.7878 11.2811 19.6942 11.2603 19.629C11.24 19.5659 11.2047 19.5036 11.1665 19.4445C11.1278 19.3846 11.0762 19.3131 11.0103 19.2286L10.7681 18.9318C9.57494 17.509 8.86098 16.0347 8.48584 14.2374L8.48486 14.2365C8.36909 13.6962 8.33554 13.3288 8.30713 12.505C8.27353 11.3084 8.35167 10.5938 8.62549 9.54309L8.75439 9.09485C10.1927 4.51379 14.7448 1.46047 19.5278 1.94153L19.9878 1.99915C21.0474 2.15508 22.0286 2.4664 23.0737 2.97668C24.6461 3.74327 25.9826 4.86795 26.9712 6.25305C27.7231 7.30584 28.3843 8.84055 28.6294 10.1271V10.1281C29.3723 13.9562 28.0136 17.8009 25.1089 20.2218L24.8228 20.4523C23.3494 21.5907 21.7031 22.2567 19.7173 22.5206C19.4164 22.5582 18.8628 22.5678 18.2954 22.5529ZM3.40381 31.4728C3.15253 31.47 3.01092 31.4459 2.85986 31.3712C2.69476 31.2895 2.50318 31.1402 2.17236 30.8439L2.17139 30.8419C1.88034 30.5844 1.71053 30.393 1.61084 30.2179C1.51595 30.0513 1.47706 29.887 1.47705 29.6671C1.47705 29.4778 1.51829 29.2897 1.56494 29.1837C1.56072 29.1933 1.56428 29.1846 1.59326 29.1447C1.61796 29.1106 1.65266 29.0649 1.69873 29.0079C1.79068 28.8943 1.92019 28.7416 2.08252 28.5558C2.40679 28.1846 2.85762 27.6858 3.39209 27.1056L5.14307 25.2032C5.77267 24.5171 6.39795 23.833 6.86768 23.3146C7.33612 22.8004 7.78036 22.3233 8.1167 21.9698C8.28494 21.7931 8.42592 21.6483 8.52881 21.545C8.58043 21.4932 8.62134 21.4526 8.65088 21.4249C8.65843 21.4178 8.66506 21.4122 8.67041 21.4073C8.72044 21.3859 8.8241 21.3619 8.95264 21.3595C9.09568 21.3568 9.19076 21.3795 9.21631 21.3937C9.21682 21.394 9.21833 21.3951 9.21924 21.3956C9.22133 21.3969 9.22447 21.3991 9.22803 21.4015C9.23517 21.4063 9.24419 21.4128 9.25537 21.421C9.27808 21.4377 9.30728 21.4593 9.34131 21.4865C9.40927 21.5407 9.4948 21.6128 9.59229 21.6964C9.78709 21.8636 10.0247 22.0759 10.2573 22.2882C10.4901 22.5007 10.7168 22.712 10.8872 22.8781C10.9725 22.9612 11.0421 23.0317 11.0913 23.0841C11.111 23.105 11.1254 23.1223 11.1362 23.1349C11.1792 23.2791 11.1731 23.5001 11.1079 23.6554L11.105 23.6622C11.1089 23.6522 11.0997 23.6724 11.0513 23.7384C11.0101 23.7946 10.9528 23.8677 10.8833 23.9523C10.7444 24.1212 10.5616 24.3312 10.3696 24.5402C9.53294 25.4514 7.31065 27.8965 5.5415 29.8546C4.80042 30.6739 4.42576 31.0739 4.14697 31.2775C4.01639 31.3728 3.91637 31.4177 3.81592 31.4415C3.70911 31.4669 3.58878 31.4728 3.40381 31.4728Z" fill="#7CC0F7" stroke="#7CC0F7" stroke-width="0.5"/>
<path d="M19.195 22.5864L12.594 20.8037L12.2086 19.7438L11.245 20.4665L11.6304 20.8037L12.2086 21.4783L11.6304 21.7674L11.004 21.4783L10.5222 20.8037L11.6304 19.7438L10.715 18.6356L8.4021 12.9019L11.004 4.61467L19.6286 1.82007L27.5304 6.30097L28.4458 15.0219L23.7722 21.2374L19.195 22.5864Z" fill="#7CC0F7" stroke="#7CC0F7"/>
<mask id="mask0_320_78" style="mask-type:alpha" maskUnits="userSpaceOnUse" x="11" y="5" width="15" height="15">
<rect x="11.6057" y="5.38501" width="13.6365" height="13.6365" fill="#0D0D0D"/>
</mask>
<g mask="url(#mask0_320_78)">
<path d="M17.0553 18.2844L15.6491 15.6708L13.0354 14.2645L14.0439 13.2702L16.1036 13.6253L17.5525 12.1764L13.0496 10.2588L14.2428 9.03721L19.7116 10.0031L21.473 8.24175C21.6908 8.02394 21.9607 7.91504 22.2826 7.91504C22.6046 7.91504 22.8745 8.02394 23.0923 8.24175C23.3101 8.45955 23.419 8.72707 23.419 9.04431C23.419 9.36155 23.3101 9.62907 23.0923 9.84687L21.3167 11.6225L22.2826 17.077L21.0752 18.2844L19.1434 13.7816L17.6945 15.2304L18.0639 17.2759L17.0553 18.2844Z" fill="#0D0D0D"/>
</g>
<path d="M3.46045 32.3732C3.67816 32.3732 3.83522 32.3701 3.98486 32.338C4.13791 32.3052 4.27117 32.2447 4.44678 32.1583C4.74742 32.0104 4.91519 31.8781 5.36475 31.3966L5.92432 30.7853V30.7843C7.63024 28.8895 8.52957 27.8939 10.1724 26.0851H10.1714C10.6046 25.6088 11.0131 25.1507 11.3208 24.797C11.4745 24.6203 11.6042 24.4688 11.6997 24.3536C11.7473 24.2962 11.787 24.2459 11.8179 24.2062L11.895 24.0968L11.8979 24.0909C11.998 23.8982 12.0389 23.636 12.0405 23.3947C12.0421 23.1515 12.0029 22.8853 11.9087 22.6779L11.9097 22.6769L11.8647 22.5802L11.9233 22.5118L11.9253 22.5099C11.9657 22.4615 12.0416 22.3753 12.1313 22.2765L12.4185 21.9659L12.4214 21.964C12.5002 21.878 12.5575 21.8158 12.6021 21.7716C12.6101 21.7637 12.618 21.7573 12.6245 21.7511C13.791 22.4959 15.3003 23.0758 16.6987 23.3234H16.7007C17.5602 23.4705 19.0395 23.5059 19.9077 23.3878H19.9067C20.7465 23.277 21.9822 22.9756 22.6304 22.714H22.6294C25.142 21.7154 27.122 19.9536 28.3823 17.5958L28.6255 17.1163V17.1154C29.3809 15.5283 29.7085 14.0315 29.7085 12.1534C29.7085 11.1931 29.6186 10.3808 29.4116 9.5177L29.3159 9.14465C28.1903 5.01771 24.6407 1.85798 20.3608 1.16125L20.3618 1.16028C20.0167 1.10375 19.4937 1.05706 19.0024 1.0304C18.515 1.00395 18.0337 0.9957 17.7778 1.02063H17.7769C16.2764 1.17322 15.0693 1.47857 13.9175 2.00891L13.4263 2.25012C11.3145 3.36158 9.65559 5.03675 8.60107 7.13391V7.13489C7.43054 9.46448 7.10921 11.9373 7.62939 14.5382V14.5392C7.97522 16.2388 8.97873 18.2968 10.0542 19.4786L10.0562 19.4816C10.1299 19.5601 10.1959 19.6367 10.2476 19.6984C10.2415 19.7058 10.2356 19.7139 10.229 19.7218C10.1464 19.8211 10.032 19.9546 9.90479 20.0988V20.0978C9.73061 20.2891 9.6137 20.4074 9.53369 20.4757C9.50934 20.4965 9.49093 20.5086 9.479 20.5167C9.37971 20.5032 9.21806 20.4832 9.0708 20.4698L9.06787 20.4689C8.91546 20.4564 8.76071 20.4449 8.604 20.4757C8.43826 20.5083 8.28914 20.5837 8.12354 20.7101C7.88853 20.8895 7.5858 21.2002 7.11279 21.713L6.57861 22.296C5.97784 22.9569 5.20415 23.8032 4.31201 24.7726L1.33545 27.9913C1.0564 28.2934 0.86511 28.5295 0.750488 28.7833C0.632433 29.0449 0.60498 29.3045 0.60498 29.6329C0.604983 29.8507 0.608087 30.0077 0.640137 30.1573C0.672937 30.3104 0.733452 30.4436 0.819824 30.6193C0.995783 30.9776 1.15621 31.1586 1.62354 31.5675C1.96927 31.8728 2.2399 32.0793 2.52295 32.2052C2.81332 32.3342 3.09815 32.3701 3.45752 32.3732H3.46045ZM18.2954 22.5529C17.8693 22.5416 17.4516 22.5172 17.1431 22.4816L16.8745 22.4425C15.6379 22.2119 14.5294 21.8097 13.5278 21.2345L13.105 20.9777C12.9899 20.9039 12.8775 20.8365 12.7896 20.7872C12.746 20.7629 12.7055 20.7417 12.6724 20.7257C12.6561 20.7179 12.6383 20.7091 12.6206 20.7023C12.6119 20.6989 12.6 20.6944 12.5864 20.6906C12.5768 20.6879 12.5474 20.6798 12.5112 20.6798C12.4541 20.6799 12.4125 20.7007 12.4028 20.7052C12.3867 20.7128 12.3738 20.7201 12.3667 20.7247C12.3523 20.7343 12.3397 20.7444 12.3315 20.7511C12.3142 20.7655 12.2948 20.7838 12.2759 20.8019C12.237 20.839 12.1858 20.8898 12.1274 20.9503C12.0099 21.0723 11.8553 21.2394 11.6909 21.421C11.5287 21.6003 11.3784 21.7633 11.2671 21.881C11.2551 21.8936 11.2429 21.9057 11.2319 21.9171C11.2192 21.9066 11.2058 21.8956 11.1919 21.8839C11.0707 21.7822 10.9121 21.6448 10.7534 21.505C10.5947 21.3652 10.4373 21.2239 10.3188 21.1144C10.2986 21.0957 10.2797 21.078 10.2622 21.0616C10.2669 21.0558 10.2719 21.0493 10.2769 21.0431L10.6313 20.6271L10.6333 20.6251C10.7763 20.4621 10.9148 20.3041 11.021 20.1798C11.074 20.1178 11.1197 20.0628 11.1548 20.0197L11.2417 19.9005L11.2466 19.8927L11.2505 19.8839C11.2947 19.7878 11.2811 19.6942 11.2603 19.629C11.24 19.5659 11.2047 19.5036 11.1665 19.4445C11.1278 19.3846 11.0762 19.3131 11.0103 19.2286L10.7681 18.9318C9.57494 17.509 8.86098 16.0347 8.48584 14.2374L8.48486 14.2365C8.36909 13.6962 8.33554 13.3288 8.30713 12.505C8.27353 11.3084 8.35167 10.5938 8.62549 9.54309L8.75439 9.09485C10.1927 4.51379 14.7448 1.46047 19.5278 1.94153L19.9878 1.99915C21.0474 2.15508 22.0286 2.4664 23.0737 2.97668C24.6461 3.74327 25.9826 4.86795 26.9712 6.25305C27.7231 7.30584 28.3843 8.84055 28.6294 10.1271V10.1281C29.3723 13.9562 28.0136 17.8009 25.1089 20.2218L24.8228 20.4523C23.3494 21.5907 21.7031 22.2567 19.7173 22.5206C19.4164 22.5582 18.8628 22.5678 18.2954 22.5529ZM3.40381 31.4728C3.15253 31.47 3.01092 31.4459 2.85986 31.3712C2.69476 31.2895 2.50318 31.1402 2.17236 30.8439L2.17139 30.8419C1.88034 30.5844 1.71053 30.393 1.61084 30.2179C1.51595 30.0513 1.47706 29.887 1.47705 29.6671C1.47705 29.4778 1.51829 29.2897 1.56494 29.1837C1.56072 29.1933 1.56428 29.1846 1.59326 29.1447C1.61796 29.1106 1.65266 29.0649 1.69873 29.0079C1.79068 28.8943 1.92019 28.7416 2.08252 28.5558C2.40679 28.1846 2.85762 27.6858 3.39209 27.1056L5.14307 25.2032C5.77267 24.5171 6.39795 23.833 6.86768 23.3146C7.33612 22.8004 7.78036 22.3233 8.1167 21.9698C8.28494 21.7931 8.42592 21.6483 8.52881 21.545C8.58043 21.4932 8.62134 21.4526 8.65088 21.4249C8.65843 21.4178 8.66506 21.4122 8.67041 21.4073C8.72044 21.3859 8.8241 21.3619 8.95264 21.3595C9.09568 21.3568 9.19076 21.3795 9.21631 21.3937C9.21682 21.394 9.21833 21.3951 9.21924 21.3956C9.22133 21.3969 9.22447 21.3991 9.22803 21.4015C9.23517 21.4063 9.24419 21.4128 9.25537 21.421C9.27808 21.4377 9.30728 21.4593 9.34131 21.4865C9.40927 21.5407 9.4948 21.6128 9.59229 21.6964C9.78709 21.8636 10.0247 22.0759 10.2573 22.2882C10.4901 22.5007 10.7168 22.712 10.8872 22.8781C10.9725 22.9612 11.0421 23.0317 11.0913 23.0841C11.111 23.105 11.1254 23.1223 11.1362 23.1349C11.1792 23.2791 11.1731 23.5001 11.1079 23.6554L11.105 23.6622C11.1089 23.6522 11.0997 23.6724 11.0513 23.7384C11.0101 23.7946 10.9528 23.8677 10.8833 23.9523C10.7444 24.1212 10.5616 24.3312 10.3696 24.5402C9.53294 25.4514 7.31065 27.8965 5.5415 29.8546C4.80042 30.6739 4.42576 31.0739 4.14697 31.2775C4.01639 31.3728 3.91637 31.4177 3.81592 31.4415C3.70911 31.4669 3.58878 31.4728 3.40381 31.4728Z" fill="#7CC0F7" stroke="#7CC0F7" stroke-width="0.5"/>
<path d="M19.195 22.5864L12.594 20.8037L12.2086 19.7438L11.245 20.4665L11.6304 20.8037L12.2086 21.4783L11.6304 21.7674L11.004 21.4783L10.5222 20.8037L11.6304 19.7438L10.715 18.6356L8.4021 12.9019L11.004 4.61467L19.6286 1.82007L27.5304 6.30097L28.4458 15.0219L23.7722 21.2374L19.195 22.5864Z" fill="#7CC0F7" stroke="#7CC0F7"/>
<mask id="mask1_320_78" style="mask-type:alpha" maskUnits="userSpaceOnUse" x="11" y="5" width="15" height="15">
<rect x="11.6057" y="5.38501" width="13.6365" height="13.6365" fill="#0D0D0D"/>
</mask>
<g mask="url(#mask1_320_78)">
<path d="M17.0553 18.2844L15.6491 15.6708L13.0354 14.2645L14.0439 13.2702L16.1036 13.6253L17.5525 12.1764L13.0496 10.2588L14.2428 9.03721L19.7116 10.0031L21.473 8.24175C21.6908 8.02394 21.9607 7.91504 22.2826 7.91504C22.6046 7.91504 22.8745 8.02394 23.0923 8.24175C23.3101 8.45955 23.419 8.72707 23.419 9.04431C23.419 9.36155 23.3101 9.62907 23.0923 9.84687L21.3167 11.6225L22.2826 17.077L21.0752 18.2844L19.1434 13.7816L17.6945 15.2304L18.0639 17.2759L17.0553 18.2844Z" fill="#0D0D0D"/>
</g>
<path d="M9.04961 21.611L4.7166 25.8417L1.78247 29.7652L3.38597 31.1982L4.95539 30.4817L10.7896 23.7605V23.1463L10.2096 22.5663L9.04961 21.611Z" fill="#7CC0F7" stroke="#7CC0F7"/>
</svg>
