<svg width="33" height="31" viewBox="0 0 33 31" fill="none" xmlns="http://www.w3.org/2000/svg">
<path d="M32.4458 27.4773C32.4458 27.2596 32.4427 27.1025 32.4106 26.9529C32.3778 26.7998 32.3173 26.6666 32.231 26.491C32.083 26.1903 31.9508 26.0226 31.4692 25.573L30.8579 25.0134H30.8569C28.9621 23.3075 27.9665 22.4082 26.1577 20.7654V20.7664C25.6814 20.3331 25.2234 19.9247 24.8696 19.6169C24.693 19.4633 24.5415 19.3335 24.4263 19.238C24.3688 19.1904 24.3186 19.1507 24.2788 19.1199L24.1694 19.0427L24.1636 19.0398C23.9708 18.9397 23.7086 18.8988 23.4673 18.8972C23.2241 18.8957 22.9579 18.9349 22.7505 19.0291L22.7495 19.0281L22.6528 19.073L22.5845 19.0144L22.5825 19.0125C22.5341 18.9721 22.4479 18.8961 22.3491 18.8064L22.0386 18.5193L22.0366 18.5164C21.9507 18.4376 21.8884 18.3802 21.8442 18.3357C21.8363 18.3277 21.8299 18.3198 21.8237 18.3132C22.5685 17.1468 23.1485 15.6374 23.396 14.239V14.2371C23.5431 13.3776 23.5785 11.8982 23.4604 11.03V11.031C23.3496 10.1912 23.0483 8.95555 22.7866 8.30737V8.30835C21.7881 5.79572 20.0262 3.8157 17.6685 2.55542L17.189 2.31226H17.188C15.601 1.55688 14.1041 1.22927 12.2261 1.22925C11.2658 1.22925 10.4535 1.31919 9.59033 1.52612L9.21729 1.62183C5.09034 2.74741 1.93061 6.29701 1.23389 10.5769L1.23291 10.5759C1.17638 10.9211 1.12969 11.4441 1.10303 11.9353C1.07658 12.4228 1.06833 12.9041 1.09326 13.1599V13.1609C1.24585 14.6613 1.5512 15.8685 2.08154 17.0203L2.32275 17.5115C3.43422 19.6233 5.10938 21.2822 7.20654 22.3367H7.20752C9.53711 23.5072 12.0099 23.8285 14.6108 23.3083H14.6118C16.3115 22.9625 18.3694 21.959 19.5513 20.8835L19.5542 20.8816C19.6327 20.8078 19.7093 20.7418 19.771 20.6902C19.7784 20.6963 19.7865 20.7021 19.7944 20.7087C19.8937 20.7913 20.0272 20.9058 20.1714 21.033H20.1704C20.3617 21.2071 20.48 21.324 20.5483 21.4041C20.5691 21.4284 20.5812 21.4468 20.5894 21.4587C20.5758 21.558 20.5559 21.7197 20.5425 21.8669L20.5415 21.8699C20.529 22.0223 20.5176 22.177 20.5483 22.3337C20.5809 22.4995 20.6563 22.6486 20.7827 22.8142C20.9622 23.0492 21.2728 23.3519 21.7856 23.825L22.3687 24.3591C23.0295 24.9599 23.8758 25.7336 24.8452 26.6257L28.064 29.6023C28.366 29.8813 28.6021 30.0726 28.856 30.1873C29.1175 30.3053 29.3771 30.3328 29.7056 30.3328C29.9233 30.3328 30.0803 30.3297 30.23 30.2976C30.383 30.2648 30.5163 30.2043 30.6919 30.1179C31.0502 29.942 31.2312 29.7815 31.6401 29.3142C31.9455 28.9685 32.1519 28.6978 32.2778 28.4148C32.4069 28.1244 32.4428 27.8396 32.4458 27.4802V27.4773ZM31.5454 27.5339C31.5426 27.7852 31.5186 27.9268 31.4438 28.0779C31.3622 28.243 31.2128 28.4346 30.9165 28.7654L30.9146 28.7664C30.6571 29.0574 30.4656 29.2272 30.2905 29.3269C30.1239 29.4218 29.9596 29.4607 29.7397 29.4607C29.5504 29.4607 29.3624 29.4194 29.2563 29.3728C29.2659 29.377 29.2572 29.3735 29.2173 29.3445C29.1833 29.3198 29.1375 29.2851 29.0806 29.239C28.9669 29.1471 28.8142 29.0176 28.6284 28.8552C28.2572 28.531 27.7584 28.0801 27.1782 27.5457L25.2759 25.7947C24.5898 25.1651 23.9056 24.5398 23.3872 24.0701C22.8731 23.6016 22.3959 23.1574 22.0425 22.821C21.8657 22.6528 21.7209 22.5118 21.6177 22.4089C21.5659 22.3573 21.5253 22.3164 21.4976 22.2869C21.4905 22.2793 21.4848 22.2727 21.48 22.2673C21.4585 22.2173 21.4346 22.1136 21.4321 21.9851C21.4295 21.8421 21.4521 21.747 21.4663 21.7214C21.4666 21.7209 21.4677 21.7194 21.4683 21.7185C21.4696 21.7164 21.4717 21.7133 21.4741 21.7097C21.4789 21.7026 21.4855 21.6936 21.4937 21.6824C21.5103 21.6597 21.5319 21.6305 21.5591 21.5964C21.6134 21.5285 21.6854 21.4429 21.769 21.3455C21.9362 21.1507 22.1485 20.913 22.3608 20.6804C22.5734 20.4476 22.7846 20.221 22.9507 20.0505C23.0338 19.9652 23.1044 19.8957 23.1567 19.8464C23.1777 19.8268 23.1949 19.8124 23.2075 19.8015C23.3517 19.7585 23.5727 19.7646 23.728 19.8298L23.7349 19.8328C23.7248 19.8289 23.745 19.8381 23.811 19.8865C23.8672 19.9277 23.9403 19.9849 24.0249 20.0544C24.1939 20.1934 24.4039 20.3761 24.6128 20.5681C25.524 21.4048 27.9692 23.6271 29.9272 25.3962C30.7465 26.1373 31.1465 26.512 31.3501 26.7908C31.4454 26.9213 31.4903 27.0214 31.5142 27.1218C31.5395 27.2286 31.5454 27.349 31.5454 27.5339Z" fill="#0A84FF" stroke="#0A84FF" stroke-width="0.5"/>
<path d="M22.6591 11.7427L20.8764 18.3438L19.8165 18.7291L20.5392 19.6928L20.8764 19.3073L21.5511 18.7291L21.8401 19.3073L21.5511 19.9337L20.8764 20.4155L19.8165 19.3073L18.7083 20.2228L12.9747 22.5356L4.68742 19.9337L1.89282 11.3092L6.37372 3.40737L15.0947 2.49191L21.3101 7.16555L22.6591 11.7427Z" fill="#0A84FF" stroke="#0A84FF"/>
<path d="M21.5415 22.0412L25.7722 26.3742L29.6958 29.3083L31.1287 27.7049L30.4122 26.1354L23.691 20.3013H23.0769L22.4969 20.8813L21.5415 22.0412Z" fill="#0A84FF" stroke="#0A84FF"/>
<mask id="mask0_330_89" style="mask-type:alpha" maskUnits="userSpaceOnUse" x="5" y="5" width="15" height="15">
<rect x="5.95776" y="18.832" width="12.6365" height="12.6365" transform="rotate(-90 5.95776 18.832)" fill="black" stroke="black"/>
</mask>
<g mask="url(#mask0_330_89)">
<path d="M7.104 8.4585C7.104 8.13967 7.2119 7.87306 7.42725 7.65771C7.64253 7.44248 7.90639 7.33456 8.22021 7.33447C8.53425 7.33447 8.79878 7.44233 9.01416 7.65771L10.7896 9.43311L10.7983 9.42432L10.7837 9.43994L10.8013 9.43701L16.2485 8.47217L17.438 9.66162L12.9526 11.5864L12.936 11.5933L14.3979 13.0552L14.3911 13.062L14.4087 13.0591L16.4468 12.6909L17.439 13.6831L14.8413 15.0806L14.8403 15.0786L14.8364 15.0864L13.438 17.6851L12.4595 16.6929L12.814 14.6392L12.8228 14.6411L12.8101 14.6284L11.3618 13.1792L11.3481 13.1665L11.3413 13.1831L9.43018 17.6694L8.22705 16.4946L9.19189 11.0317L9.20068 11.0327L9.18799 11.021L7.42725 9.25928C7.21194 9.04397 7.10404 8.77725 7.104 8.4585Z" fill="white" stroke="white" stroke-width="0.025"/>
</g>
</svg>
