<svg width="33" height="31" viewBox="0 0 33 31" fill="none" xmlns="http://www.w3.org/2000/svg">
<g clip-path="url(#clip0_504_111)">
<path d="M32.4456 27.4775C32.4456 27.2598 32.4425 27.1027 32.4104 26.9531C32.3776 26.8 32.3171 26.6668 32.2308 26.4912C32.0828 26.1905 31.9506 26.0228 31.469 25.5732L30.8577 25.0136H30.8567C28.9619 23.3077 27.9663 22.4084 26.1575 20.7656C25.6812 20.3323 25.2232 19.9249 24.8694 19.6171C24.6928 19.4635 24.5413 19.3337 24.4261 19.2382C24.3686 19.1906 24.3184 19.1509 24.2786 19.1201L24.1692 19.0429L24.1634 19.04C23.9706 18.9399 23.7084 18.899 23.4671 18.8974C23.2239 18.8959 22.9577 18.9351 22.7503 19.0293L22.7493 19.0283L22.6526 19.0732L22.5843 19.0146L22.5823 19.0127C22.5339 18.9723 22.4477 18.8963 22.3489 18.8066L22.0384 18.5195L22.0364 18.5166C21.9505 18.4378 21.8882 18.3804 21.844 18.3359C21.8361 18.3279 21.8297 18.32 21.8235 18.3134C22.5683 17.147 23.1483 15.6376 23.3958 14.2392V14.2373C23.5429 13.3778 23.5783 11.8984 23.4602 11.0302V11.0312C23.3494 10.1914 23.0481 8.95579 22.7864 8.30761C21.7879 5.79498 20.026 3.81594 17.6683 2.55566L17.1888 2.3125C15.6018 1.55712 14.1039 1.22951 12.2259 1.22949C11.2656 1.22949 10.4533 1.31943 9.59016 1.52636L9.21712 1.62207C5.09017 2.74765 1.93044 6.29725 1.23372 10.5771L1.23274 10.5761C1.17621 10.9213 1.12952 11.4443 1.10286 11.9355C1.07641 12.423 1.06816 12.9043 1.09309 13.1601V13.1611C1.24568 14.6615 1.55103 15.8687 2.08137 17.0205L2.32258 17.5117C3.43405 19.6235 5.10921 21.2824 7.20637 22.3369C9.53596 23.5074 12.0097 23.8287 14.6106 23.3085H14.6116C16.3113 22.9627 18.3692 21.9592 19.5511 20.8837L19.554 20.8818C19.6325 20.808 19.7091 20.742 19.7708 20.6904C19.7782 20.6965 19.7863 20.7023 19.7942 20.7089C19.8935 20.7915 20.027 20.906 20.1712 21.0332C20.3625 21.2073 20.4798 21.3242 20.5481 21.4043C20.5689 21.4286 20.581 21.447 20.5892 21.4589C20.5756 21.5582 20.5557 21.7199 20.5423 21.8671L20.5413 21.8701C20.5288 22.0225 20.5174 22.1772 20.5481 22.3339C20.5807 22.4997 20.6561 22.6488 20.7825 22.8144C20.962 23.0494 21.2726 23.3521 21.7854 23.8252L22.3685 24.3593C23.0293 24.9601 23.8756 25.7338 24.845 26.6259L28.0638 29.6025C28.3658 29.8815 28.6019 30.0728 28.8558 30.1875C29.1173 30.3055 29.3769 30.333 29.7054 30.333C29.9231 30.333 30.0801 30.3299 30.2298 30.2978C30.3828 30.265 30.5161 30.2045 30.6917 30.1181C31.05 29.9422 31.231 29.7817 31.6399 29.3144C31.9453 28.9687 32.1517 28.698 32.2776 28.415C32.4067 28.1246 32.4426 27.8398 32.4456 27.4804V27.4775ZM31.5452 27.5341C31.5424 27.7854 31.5184 27.927 31.4436 28.0781C31.362 28.2432 31.2126 28.4348 30.9163 28.7656L30.9144 28.7666C30.6569 29.0576 30.4654 29.2274 30.2903 29.3271C30.1237 29.422 29.9594 29.4609 29.7395 29.4609C29.5502 29.4609 29.3622 29.4196 29.2561 29.373C29.2657 29.3772 29.257 29.3737 29.2171 29.3447C29.1831 29.32 29.1373 29.2853 29.0804 29.2392C28.9667 29.1473 28.814 29.0178 28.6282 28.8554C28.257 28.5312 27.7582 28.0803 27.178 27.5459L25.2757 25.7949C24.5896 25.1653 23.9054 24.54 23.387 24.0703C22.8729 23.6018 22.3957 23.1576 22.0423 22.8212C21.8655 22.653 21.7207 22.512 21.6175 22.4091C21.5657 22.3575 21.5251 22.3166 21.4974 22.2871C21.4903 22.2795 21.4846 22.2729 21.4798 22.2675C21.4583 22.2175 21.4344 22.1138 21.4319 21.9853C21.4293 21.8423 21.4519 21.7472 21.4661 21.7216C21.4664 21.7211 21.4675 21.7196 21.4681 21.7187C21.4694 21.7166 21.4715 21.7135 21.4739 21.7099C21.4787 21.7028 21.4853 21.6938 21.4935 21.6826C21.5101 21.6599 21.5317 21.6307 21.5589 21.5966C21.6132 21.5287 21.6852 21.4431 21.7688 21.3457C21.936 21.1509 22.1483 20.9132 22.3606 20.6806C22.5732 20.4478 22.7844 20.2212 22.9505 20.0507C23.0336 19.9654 23.1042 19.8959 23.1565 19.8466C23.1775 19.827 23.1947 19.8126 23.2073 19.8017C23.3515 19.7587 23.5725 19.7648 23.7278 19.83L23.7347 19.833C23.7246 19.8291 23.7448 19.8383 23.8108 19.8867C23.867 19.9279 23.9401 19.9851 24.0247 20.0546C24.1937 20.1936 24.4037 20.3763 24.6126 20.5683C25.5238 21.405 27.969 23.6273 29.927 25.3964C30.7463 26.1375 31.1463 26.5122 31.3499 26.791C31.4452 26.9215 31.4901 27.0216 31.514 27.122C31.5393 27.2288 31.5452 27.3492 31.5452 27.5341Z" fill="#F7C415" stroke="#F7C415" stroke-width="0.5"/>
<path d="M22.6589 11.7425L20.8762 18.3436L19.8163 18.7289L20.539 19.6926L20.8762 19.3071L21.5509 18.7289L21.8399 19.3071L21.5509 19.9335L20.8762 20.4153L19.8163 19.3071L18.7081 20.2226L12.9745 22.5354L4.68718 19.9335L1.89258 11.309L6.37348 3.40716L15.0945 2.4917L21.3099 7.16534L22.6589 11.7425Z" fill="#F7C415" stroke="#F7C415"/>
<path d="M21.541 22.0412L25.7717 26.3742L29.6953 29.3083L31.1282 27.7049L30.4117 26.1354L23.6905 20.3013H23.0764L22.4964 20.8813L21.541 22.0412Z" fill="#F7C415" stroke="#F7C415"/>
<mask id="mask0_504_111" style="mask-type:alpha" maskUnits="userSpaceOnUse" x="5" y="5" width="15" height="15">
<path d="M5.95801 6.19553L5.95801 18.832H18.5945V6.19553H5.95801Z" fill="black" stroke="black"/>
</mask>
<g mask="url(#mask0_504_111)">
<path d="M7.10449 8.4585C7.10449 8.13967 7.21239 7.87306 7.42774 7.65771C7.64302 7.44248 7.90688 7.33456 8.2207 7.33447C8.53474 7.33447 8.79927 7.44233 9.01465 7.65771L10.7901 9.43311L10.7988 9.42432L10.7842 9.43994L10.8018 9.43701L16.249 8.47217L17.4385 9.66162L12.9531 11.5864L12.9365 11.5933L14.3984 13.0552L14.3916 13.062L14.4092 13.0591L16.4473 12.6909L17.4395 13.6831L14.8418 15.0806L14.8408 15.0786L14.8369 15.0864L13.4385 17.6851L12.46 16.6929L12.8145 14.6392L12.8233 14.6411L12.8106 14.6284L11.3623 13.1792L11.3486 13.1665L11.3418 13.1831L9.43067 17.6694L8.22754 16.4946L9.19238 11.0317L9.20117 11.0327L9.18848 11.021L7.42774 9.25928C7.21243 9.04397 7.10453 8.77725 7.10449 8.4585Z" fill="white" stroke="white" stroke-width="0.025"/>
</g>
</g>
<defs>
<clipPath id="clip0_504_111">
<rect width="33" height="31" fill="white"/>
</clipPath>
</defs>
</svg>
