<svg width="30" height="33" viewBox="0 0 30 33" fill="none" xmlns="http://www.w3.org/2000/svg">
<path d="M3.46045 32.373C3.67816 32.373 3.83522 32.37 3.98486 32.3379C4.13791 32.3051 4.27117 32.2446 4.44678 32.1582C4.74742 32.0103 4.91519 31.878 5.36475 31.3965L5.92432 30.7852V30.7842C7.63024 28.8894 8.52957 27.8938 10.1724 26.085H10.1714C10.6046 25.6087 11.0131 25.1506 11.3208 24.7969C11.4745 24.6202 11.6042 24.4687 11.6997 24.3535C11.7473 24.2961 11.787 24.2458 11.8179 24.2061L11.895 24.0967L11.8979 24.0908C11.998 23.8981 12.0389 23.6359 12.0405 23.3945C12.0421 23.1514 12.0029 22.8852 11.9087 22.6777L11.9097 22.6768L11.8647 22.5801L11.9233 22.5117L11.9253 22.5098C11.9657 22.4613 12.0416 22.3752 12.1313 22.2764L12.4185 21.9658L12.4214 21.9639C12.5002 21.8779 12.5575 21.8156 12.6021 21.7715C12.6101 21.7635 12.618 21.7572 12.6245 21.751C13.791 22.4957 15.3003 23.0757 16.6987 23.3232H16.7007C17.5602 23.4704 19.0395 23.5057 19.9077 23.3877H19.9067C20.7465 23.2769 21.9822 22.9755 22.6304 22.7139H22.6294C25.142 21.7153 27.122 19.9534 28.3823 17.5957L28.6255 17.1162V17.1152C29.3809 15.5282 29.7085 14.0313 29.7085 12.1533C29.7085 11.193 29.6186 10.3807 29.4116 9.51758L29.3159 9.14453C28.1903 5.01759 24.6407 1.85786 20.3608 1.16113L20.3618 1.16016C20.0167 1.10363 19.4937 1.05693 19.0024 1.03027C18.515 1.00383 18.0337 0.995578 17.7778 1.02051H17.7769C16.2764 1.1731 15.0693 1.47845 13.9175 2.00879L13.4263 2.25C11.3145 3.36146 9.65559 5.03663 8.60107 7.13379V7.13477C7.43054 9.46436 7.10921 11.9371 7.62939 14.5381V14.5391C7.97522 16.2387 8.97873 18.2967 10.0542 19.4785L10.0562 19.4814C10.1299 19.56 10.1959 19.6366 10.2476 19.6982C10.2415 19.7056 10.2356 19.7137 10.229 19.7217C10.1464 19.8209 10.032 19.9544 9.90479 20.0986V20.0977C9.73061 20.289 9.6137 20.4073 9.53369 20.4756C9.50934 20.4964 9.49093 20.5084 9.479 20.5166C9.37971 20.503 9.21806 20.4831 9.0708 20.4697L9.06787 20.4688C8.91546 20.4563 8.76071 20.4448 8.604 20.4756C8.43826 20.5082 8.28914 20.5835 8.12354 20.71C7.88853 20.8894 7.5858 21.2001 7.11279 21.7129L6.57861 22.2959C5.97784 22.9568 5.20415 23.8031 4.31201 24.7725L1.33545 27.9912C1.0564 28.2933 0.86511 28.5293 0.750488 28.7832C0.632433 29.0448 0.60498 29.3044 0.60498 29.6328C0.604983 29.8506 0.608087 30.0076 0.640137 30.1572C0.672937 30.3103 0.733452 30.4435 0.819824 30.6191C0.995783 30.9774 1.15621 31.1585 1.62354 31.5674C1.96927 31.8727 2.2399 32.0792 2.52295 32.2051C2.81332 32.3341 3.09815 32.37 3.45752 32.373H3.46045ZM18.2954 22.5527C17.8693 22.5415 17.4516 22.5171 17.1431 22.4814L16.8745 22.4424C15.6379 22.2117 14.5294 21.8095 13.5278 21.2344L13.105 20.9775C12.9899 20.9037 12.8775 20.8364 12.7896 20.7871C12.746 20.7627 12.7055 20.7416 12.6724 20.7256C12.6561 20.7177 12.6383 20.709 12.6206 20.7021C12.6119 20.6988 12.6 20.6942 12.5864 20.6904C12.5768 20.6877 12.5474 20.6797 12.5112 20.6797C12.4541 20.6798 12.4125 20.7005 12.4028 20.7051C12.3867 20.7127 12.3738 20.7199 12.3667 20.7246C12.3523 20.7342 12.3397 20.7442 12.3315 20.751C12.3142 20.7653 12.2948 20.7837 12.2759 20.8018C12.237 20.8388 12.1858 20.8897 12.1274 20.9502C12.0099 21.0721 11.8553 21.2392 11.6909 21.4209C11.5287 21.6002 11.3784 21.7632 11.2671 21.8809C11.2551 21.8935 11.2429 21.9055 11.2319 21.917C11.2192 21.9064 11.2058 21.8955 11.1919 21.8838C11.0707 21.782 10.9121 21.6447 10.7534 21.5049C10.5947 21.3651 10.4373 21.2238 10.3188 21.1143C10.2986 21.0956 10.2797 21.0779 10.2622 21.0615C10.2669 21.0556 10.2719 21.0492 10.2769 21.043L10.6313 20.627L10.6333 20.625C10.7763 20.462 10.9148 20.304 11.021 20.1797C11.074 20.1177 11.1197 20.0626 11.1548 20.0195L11.2417 19.9004L11.2466 19.8926L11.2505 19.8838C11.2947 19.7876 11.2811 19.6941 11.2603 19.6289C11.24 19.5657 11.2047 19.5034 11.1665 19.4443C11.1278 19.3844 11.0762 19.313 11.0103 19.2285L10.7681 18.9316C9.57494 17.5088 8.86098 16.0346 8.48584 14.2373L8.48486 14.2363C8.36909 13.6961 8.33554 13.3287 8.30713 12.5049C8.27353 11.3083 8.35167 10.5937 8.62549 9.54297L8.75439 9.09473C10.1927 4.51367 14.7448 1.46035 19.5278 1.94141L19.9878 1.99902C21.0474 2.15496 22.0286 2.46628 23.0737 2.97656C24.6461 3.74315 25.9826 4.86783 26.9712 6.25293C27.7231 7.30571 28.3843 8.84042 28.6294 10.127V10.1279C29.3723 13.9561 28.0136 17.8008 25.1089 20.2217L24.8228 20.4521C23.3494 21.5906 21.7031 22.2566 19.7173 22.5205C19.4164 22.5581 18.8628 22.5677 18.2954 22.5527ZM3.40381 31.4727C3.15253 31.4699 3.01092 31.4458 2.85986 31.3711C2.69476 31.2894 2.50318 31.14 2.17236 30.8438L2.17139 30.8418C1.88034 30.5843 1.71053 30.3928 1.61084 30.2178C1.51595 30.0511 1.47706 29.8868 1.47705 29.667C1.47705 29.4777 1.51829 29.2896 1.56494 29.1836C1.56072 29.1932 1.56428 29.1844 1.59326 29.1445C1.61796 29.1105 1.65266 29.0647 1.69873 29.0078C1.79068 28.8942 1.92019 28.7415 2.08252 28.5557C2.40679 28.1845 2.85762 27.6857 3.39209 27.1055L5.14307 25.2031C5.77267 24.517 6.39795 23.8329 6.86768 23.3145C7.33612 22.8003 7.78036 22.3232 8.1167 21.9697C8.28494 21.7929 8.42592 21.6482 8.52881 21.5449C8.58043 21.4931 8.62134 21.4525 8.65088 21.4248C8.65843 21.4177 8.66506 21.4121 8.67041 21.4072C8.72044 21.3858 8.8241 21.3618 8.95264 21.3594C9.09568 21.3567 9.19076 21.3793 9.21631 21.3936C9.21682 21.3939 9.21833 21.3949 9.21924 21.3955C9.22133 21.3968 9.22447 21.399 9.22803 21.4014C9.23517 21.4062 9.24419 21.4127 9.25537 21.4209C9.27808 21.4376 9.30728 21.4591 9.34131 21.4863C9.40927 21.5406 9.4948 21.6126 9.59229 21.6963C9.78709 21.8635 10.0247 22.0757 10.2573 22.2881C10.4901 22.5006 10.7168 22.7118 10.8872 22.8779C10.9725 22.9611 11.0421 23.0316 11.0913 23.084C11.111 23.1049 11.1254 23.1221 11.1362 23.1348C11.1792 23.279 11.1731 23.5 11.1079 23.6553L11.105 23.6621C11.1089 23.6521 11.0997 23.6722 11.0513 23.7383C11.0101 23.7944 10.9528 23.8676 10.8833 23.9521C10.7444 24.1211 10.5616 24.3311 10.3696 24.54C9.53294 25.4512 7.31065 27.8964 5.5415 29.8545C4.80042 30.6737 4.42576 31.0738 4.14697 31.2773C4.01639 31.3727 3.91637 31.4176 3.81592 31.4414C3.70911 31.4667 3.58878 31.4726 3.40381 31.4727Z" fill="#7CC0F7" stroke="#7CC0F7" stroke-width="0.5"/>
<path d="M3.46045 32.3733C3.67816 32.3733 3.83522 32.3702 3.98486 32.3381C4.13791 32.3053 4.27117 32.2448 4.44678 32.1584C4.74742 32.0105 4.91519 31.8783 5.36475 31.3967L5.92432 30.7854V30.7844C7.63024 28.8896 8.52957 27.894 10.1724 26.0852H10.1714C10.6046 25.6089 11.0131 25.1509 11.3208 24.7971C11.4745 24.6205 11.6042 24.469 11.6997 24.3538C11.7473 24.2963 11.787 24.2461 11.8179 24.2063L11.895 24.0969L11.8979 24.0911C11.998 23.8983 12.0389 23.6361 12.0405 23.3948C12.0421 23.1516 12.0029 22.8854 11.9087 22.678L11.9097 22.677L11.8647 22.5803L11.9233 22.512L11.9253 22.51C11.9657 22.4616 12.0416 22.3754 12.1313 22.2766L12.4185 21.9661L12.4214 21.9641C12.5002 21.8781 12.5575 21.8159 12.6021 21.7717C12.6101 21.7638 12.618 21.7574 12.6245 21.7512C13.791 22.496 15.3003 23.076 16.6987 23.3235H16.7007C17.5602 23.4706 19.0395 23.506 19.9077 23.3879H19.9067C20.7465 23.2771 21.9822 22.9757 22.6304 22.7141H22.6294C25.142 21.7156 27.122 19.9537 28.3823 17.5959L28.6255 17.1165V17.1155C29.3809 15.5284 29.7085 14.0316 29.7085 12.1536C29.7085 11.1932 29.6186 10.3809 29.4116 9.51782L29.3159 9.14478C28.1903 5.01783 24.6407 1.8581 20.3608 1.16138L20.3618 1.1604C20.0167 1.10387 19.4937 1.05718 19.0024 1.03052C18.515 1.00407 18.0337 0.995823 17.7778 1.02075H17.7769C16.2764 1.17334 15.0693 1.47869 13.9175 2.00903L13.4263 2.25024C11.3145 3.36171 9.65559 5.03687 8.60107 7.13403V7.13501C7.43054 9.4646 7.10921 11.9374 7.62939 14.5383V14.5393C7.97522 16.2389 8.97873 18.2969 10.0542 19.4788L10.0562 19.4817C10.1299 19.5602 10.1959 19.6368 10.2476 19.6985C10.2415 19.7059 10.2356 19.714 10.229 19.7219C10.1464 19.8212 10.032 19.9547 9.90479 20.0989V20.0979C9.73061 20.2892 9.6137 20.4075 9.53369 20.4758C9.50934 20.4966 9.49093 20.5087 9.479 20.5168C9.37971 20.5033 9.21806 20.4834 9.0708 20.47L9.06787 20.469C8.91546 20.4565 8.76071 20.4451 8.604 20.4758C8.43826 20.5084 8.28914 20.5838 8.12354 20.7102C7.88853 20.8896 7.5858 21.2003 7.11279 21.7131L6.57861 22.2961C5.97784 22.957 5.20415 23.8033 4.31201 24.7727L1.33545 27.9915C1.0564 28.2935 0.86511 28.5296 0.750488 28.7834C0.632433 29.045 0.60498 29.3046 0.60498 29.6331C0.604983 29.8508 0.608087 30.0078 0.640137 30.1575C0.672937 30.3105 0.733452 30.4438 0.819824 30.6194C0.995783 30.9777 1.15621 31.1587 1.62354 31.5676C1.96927 31.873 2.2399 32.0794 2.52295 32.2053C2.81332 32.3344 3.09815 32.3703 3.45752 32.3733H3.46045ZM18.2954 22.553C17.8693 22.5417 17.4516 22.5173 17.1431 22.4817L16.8745 22.4426C15.6379 22.212 14.5294 21.8098 13.5278 21.2346L13.105 20.9778C12.9899 20.904 12.8775 20.8367 12.7896 20.7874C12.746 20.763 12.7055 20.7419 12.6724 20.7258C12.6561 20.718 12.6383 20.7092 12.6206 20.7024C12.6119 20.699 12.6 20.6945 12.5864 20.6907C12.5768 20.688 12.5474 20.6799 12.5112 20.6799C12.4541 20.68 12.4125 20.7008 12.4028 20.7053C12.3867 20.7129 12.3738 20.7202 12.3667 20.7249C12.3523 20.7344 12.3397 20.7445 12.3315 20.7512C12.3142 20.7656 12.2948 20.7839 12.2759 20.802C12.237 20.8391 12.1858 20.8899 12.1274 20.9504C12.0099 21.0724 11.8553 21.2395 11.6909 21.4211C11.5287 21.6005 11.3784 21.7634 11.2671 21.8811C11.2551 21.8938 11.2429 21.9058 11.2319 21.9172C11.2192 21.9067 11.2058 21.8957 11.1919 21.884C11.0707 21.7823 10.9121 21.6449 10.7534 21.5051C10.5947 21.3653 10.4373 21.224 10.3188 21.1145C10.2986 21.0958 10.2797 21.0782 10.2622 21.0618C10.2669 21.0559 10.2719 21.0494 10.2769 21.0432L10.6313 20.6272L10.6333 20.6252C10.7763 20.4622 10.9148 20.3042 11.021 20.1799C11.074 20.1179 11.1197 20.0629 11.1548 20.0198L11.2417 19.9006L11.2466 19.8928L11.2505 19.884C11.2947 19.7879 11.2811 19.6943 11.2603 19.6292C11.24 19.566 11.2047 19.5037 11.1665 19.4446C11.1278 19.3847 11.0762 19.3132 11.0103 19.2288L10.7681 18.9319C9.57494 17.5091 8.86098 16.0348 8.48584 14.2375L8.48486 14.2366C8.36909 13.6963 8.33554 13.329 8.30713 12.5051C8.27353 11.3085 8.35167 10.5939 8.62549 9.54321L8.75439 9.09497C10.1927 4.51391 14.7448 1.46059 19.5278 1.94165L19.9878 1.99927C21.0474 2.1552 22.0286 2.46653 23.0737 2.97681C24.6461 3.7434 25.9826 4.86808 26.9712 6.25317C27.7231 7.30596 28.3843 8.84067 28.6294 10.1272V10.1282C29.3723 13.9563 28.0136 17.801 25.1089 20.2219L24.8228 20.4524C23.3494 21.5908 21.7031 22.2569 19.7173 22.5208C19.4164 22.5583 18.8628 22.5679 18.2954 22.553ZM3.40381 31.4729C3.15253 31.4701 3.01092 31.4461 2.85986 31.3713C2.69476 31.2896 2.50318 31.1403 2.17236 30.844L2.17139 30.842C1.88034 30.5846 1.71053 30.3931 1.61084 30.218C1.51595 30.0514 1.47706 29.8871 1.47705 29.6672C1.47705 29.4779 1.51829 29.2899 1.56494 29.1838C1.56072 29.1934 1.56428 29.1847 1.59326 29.1448C1.61796 29.1108 1.65266 29.065 1.69873 29.0081C1.79068 28.8944 1.92019 28.7417 2.08252 28.5559C2.40679 28.1847 2.85762 27.6859 3.39209 27.1057L5.14307 25.2034C5.77267 24.5172 6.39795 23.8331 6.86768 23.3147C7.33612 22.8005 7.78036 22.3234 8.1167 21.97C8.28494 21.7932 8.42592 21.6484 8.52881 21.5452C8.58043 21.4934 8.62134 21.4528 8.65088 21.425C8.65843 21.418 8.66506 21.4123 8.67041 21.4075C8.72044 21.386 8.8241 21.3621 8.95264 21.3596C9.09568 21.357 9.19076 21.3796 9.21631 21.3938C9.21682 21.3941 9.21833 21.3952 9.21924 21.3958C9.22133 21.3971 9.22447 21.3992 9.22803 21.4016C9.23517 21.4064 9.24419 21.4129 9.25537 21.4211C9.27808 21.4378 9.30728 21.4594 9.34131 21.4866C9.40927 21.5409 9.4948 21.6129 9.59229 21.6965C9.78709 21.8637 10.0247 22.076 10.2573 22.2883C10.4901 22.5008 10.7168 22.7121 10.8872 22.8782C10.9725 22.9613 11.0421 23.0319 11.0913 23.0842C11.111 23.1052 11.1254 23.1224 11.1362 23.135C11.1792 23.2792 11.1731 23.5002 11.1079 23.6555L11.105 23.6624C11.1089 23.6523 11.0997 23.6725 11.0513 23.7385C11.0101 23.7947 10.9528 23.8678 10.8833 23.9524C10.7444 24.1213 10.5616 24.3314 10.3696 24.5403C9.53294 25.4515 7.31065 27.8967 5.5415 29.8547C4.80042 30.674 4.42576 31.074 4.14697 31.2776C4.01639 31.3729 3.91637 31.4178 3.81592 31.4417C3.70911 31.467 3.58878 31.4729 3.40381 31.4729Z" fill="#7CC0F7" stroke="#7CC0F7" stroke-width="0.5"/>
<mask id="mask0_320_79" style="mask-type:alpha" maskUnits="userSpaceOnUse" x="11" y="5" width="15" height="14">
<rect x="11.533" y="5.14111" width="13.6365" height="13.6365" fill="#333333"/>
</mask>
<g mask="url(#mask0_320_79)">
<path d="M16.9826 18.0405L15.5763 15.4269L12.9626 14.0206L13.9712 13.0263L16.0309 13.3814L17.4797 11.9325L12.9769 10.0149L14.17 8.79331L19.6388 9.75923L21.4002 7.99785C21.618 7.78004 21.8879 7.67114 22.2099 7.67114C22.5319 7.67114 22.8017 7.78004 23.0195 7.99785C23.2374 8.21565 23.3463 8.48318 23.3463 8.80041C23.3463 9.11765 23.2374 9.38517 23.0195 9.60298L21.244 11.3786L22.2099 16.8331L21.0025 18.0405L19.0707 13.5377L17.6218 14.9865L17.9911 17.032L16.9826 18.0405Z" fill="#7CC0F7"/>
</g>
</svg>
