<svg width="17" height="15" viewBox="0 0 17 15" fill="none" xmlns="http://www.w3.org/2000/svg">
<mask id="path-1-inside-1_224_362" fill="white">
<path d="M8.7693 0.469238C9.94471 0.469845 11.1047 0.708241 12.1622 1.16654C13.2198 1.62483 14.1473 2.29112 14.8754 3.11541C15.6035 3.93969 16.1131 4.90057 16.366 5.92592C16.6189 6.95128 16.6085 8.01448 16.3357 9.03575C16.0628 10.057 15.5346 11.0098 14.7906 11.8227C14.0466 12.6355 13.1062 13.2873 12.0399 13.7291C10.9736 14.1709 9.80914 14.3912 8.6339 14.3736C7.45865 14.3559 6.30315 14.1007 5.2541 13.6271L5.13637 13.5707L1.59003 14.3615C1.52178 14.3768 1.45062 14.3788 1.38146 14.3671C1.3123 14.3555 1.24678 14.3306 1.18943 14.2942C1.13209 14.2578 1.08427 14.2106 1.04929 14.1561C1.01431 14.1015 0.992992 14.0409 0.986813 13.9782V13.907L1.00043 13.8349L1.8858 10.6679L1.82451 10.5636C1.37928 9.78072 1.10521 8.92917 1.01697 8.05459L0.99265 7.7226L0.98584 7.42189C0.98584 5.57794 1.80588 3.8095 3.26556 2.50562C4.72525 1.20175 6.705 0.469238 8.7693 0.469238ZM8.7693 1.33832C7.58083 1.33815 6.41299 1.61579 5.38185 2.14365C4.3507 2.67151 3.49214 3.43121 2.89149 4.34726C2.29083 5.26332 1.969 6.30383 1.95796 7.3654C1.94693 8.42697 2.24707 9.47264 2.82857 10.3985C2.87372 10.4705 2.89498 10.5525 2.88987 10.6349L2.87625 10.7166L2.14071 13.3421L5.08286 12.6868C5.14267 12.6736 5.20473 12.6707 5.26577 12.6781L5.35431 12.6964L5.43895 12.7302C6.34703 13.1844 7.35954 13.4465 8.39872 13.4966C9.43791 13.5467 10.4761 13.3834 11.4336 13.0193C12.3912 12.6551 13.2425 12.0998 13.9224 11.396C14.6022 10.6921 15.0924 9.85845 15.3554 8.959C15.6183 8.05955 15.647 7.11824 15.4392 6.20734C15.2315 5.29644 14.7928 4.44019 14.1568 3.70434C13.5209 2.96849 12.7046 2.37261 11.7707 1.96246C10.8367 1.55231 9.81 1.3388 8.7693 1.33832ZM9.25577 8.29098C9.37733 8.29078 9.49457 8.33124 9.58441 8.4044C9.67424 8.47756 9.73016 8.57811 9.74114 8.68625C9.75212 8.7944 9.71738 8.9023 9.64375 8.9887C9.57013 9.07511 9.46295 9.13376 9.34333 9.15311L9.25577 9.16006H6.33697C6.21541 9.16026 6.09816 9.11979 6.00833 9.04664C5.9185 8.97348 5.86258 8.87293 5.8516 8.76478C5.84061 8.65664 5.87536 8.54874 5.94898 8.46233C6.02261 8.37593 6.12979 8.31728 6.24941 8.29793L6.33697 8.29098H9.25577ZM11.2016 5.68373C11.3232 5.68353 11.4404 5.72399 11.5303 5.79715C11.6201 5.87031 11.676 5.97086 11.687 6.07901C11.698 6.18715 11.6632 6.29505 11.5896 6.38146C11.516 6.46786 11.4088 6.52651 11.2892 6.54586L11.2016 6.55281H6.33697C6.21541 6.55301 6.09816 6.51255 6.00833 6.43939C5.9185 6.36623 5.86258 6.26568 5.8516 6.15754C5.84061 6.04939 5.87536 5.94149 5.94898 5.85509C6.02261 5.76868 6.12979 5.71003 6.24941 5.69068L6.33697 5.68373H11.2016Z"/>
</mask>
<path d="M8.7693 0.469238L8.77033 -1.53076H8.7693L8.7693 0.469238ZM5.2541 13.6271L4.38887 15.4303L4.40992 15.4404L4.4312 15.45L5.2541 13.6271ZM5.13637 13.5707L6.0016 11.7675L5.3771 11.4678L4.70105 11.6186L5.13637 13.5707ZM1.59003 14.3615L1.15471 12.4095L1.15172 12.4101L1.59003 14.3615ZM0.986813 13.9782H-1.01319V14.0767L-1.00352 14.1747L0.986813 13.9782ZM0.986813 13.907L-0.978456 13.5359L-1.01319 13.7198V13.907H0.986813ZM1.00043 13.8349L-0.925711 13.2964L-0.948872 13.3792L-0.964835 13.4637L1.00043 13.8349ZM1.8858 10.6679L3.81195 11.2064L4.04087 10.3875L3.61005 9.65452L1.8858 10.6679ZM1.82451 10.5636L0.085972 11.5523L0.093029 11.5647L0.100263 11.577L1.82451 10.5636ZM1.01697 8.05459L-0.97768 8.20073L-0.975677 8.22807L-0.972925 8.25534L1.01697 8.05459ZM0.99265 7.7226L-1.00684 7.76788L-1.00569 7.81837L-1.002 7.86874L0.99265 7.7226ZM0.98584 7.42189L-1.01416 7.42189V7.44454L-1.01365 7.46718L0.98584 7.42189ZM8.7693 1.33832L8.77022 -0.66168L8.76959 -0.66168L8.7693 1.33832ZM2.82857 10.3985L4.52302 9.33603L4.52223 9.33477L2.82857 10.3985ZM2.88987 10.6349L4.86264 10.9638L4.87963 10.8619L4.88603 10.7587L2.88987 10.6349ZM2.87625 10.7166L4.8021 11.2561L4.83125 11.1521L4.84902 11.0455L2.87625 10.7166ZM2.14071 13.3421L0.214859 12.8026L-0.686747 16.0208L2.57551 15.2942L2.14071 13.3421ZM5.08286 12.6868L4.65262 10.7336L4.64807 10.7346L5.08286 12.6868ZM5.26577 12.6781L5.66956 10.7193L5.58909 10.7027L5.50753 10.6928L5.26577 12.6781ZM5.35431 12.6964L6.09776 10.8397L5.93247 10.7735L5.75809 10.7375L5.35431 12.6964ZM5.43895 12.7302L6.33348 10.9414L6.25935 10.9044L6.18241 10.8736L5.43895 12.7302ZM9.25577 8.29098L9.25577 10.291L9.25906 10.291L9.25577 8.29098ZM9.34333 9.15311L9.50164 11.1468L9.58254 11.1404L9.66264 11.1275L9.34333 9.15311ZM9.25577 9.16006V11.1601H9.33505L9.41408 11.1538L9.25577 9.16006ZM6.33697 9.16006L6.33697 7.16006L6.33368 7.16006L6.33697 9.16006ZM6.24941 8.29793L6.0911 6.3042L6.0102 6.31063L5.9301 6.32358L6.24941 8.29793ZM6.33697 8.29098V6.29098H6.25769L6.17866 6.29725L6.33697 8.29098ZM11.2016 5.68373L11.2016 7.68373L11.2049 7.68373L11.2016 5.68373ZM11.2892 6.54586L11.4475 8.53958L11.5284 8.53316L11.6085 8.52021L11.2892 6.54586ZM11.2016 6.55281V8.55281H11.2809L11.3599 8.54654L11.2016 6.55281ZM6.33697 6.55281L6.33697 4.55281L6.33368 4.55282L6.33697 6.55281ZM6.24941 5.69068L6.0911 3.69696L6.0102 3.70338L5.9301 3.71634L6.24941 5.69068ZM6.33697 5.68373V3.68373H6.25769L6.17866 3.69001L6.33697 5.68373ZM8.7693 0.469238L8.76827 2.46924C9.67601 2.46971 10.5652 2.65417 11.367 3.00163L12.1622 1.16654L12.9575 -0.668555C11.6442 -1.23768 10.2134 -1.53002 8.77033 -1.53076L8.7693 0.469238ZM12.1622 1.16654L11.367 3.00163C12.1685 3.34898 12.8519 3.84561 13.3764 4.43941L14.8754 3.11541L16.3744 1.79141C15.4428 0.736632 14.271 -0.0993212 12.9575 -0.668555L12.1622 1.16654ZM14.8754 3.11541L13.3764 4.43941C13.9 5.0322 14.2518 5.70593 14.4242 6.40488L16.366 5.92592L18.3078 5.44697C17.9743 4.0952 17.3069 2.84719 16.3744 1.79141L14.8754 3.11541ZM16.366 5.92592L14.4242 6.40488C14.5963 7.10268 14.5894 7.82357 14.4034 8.51955L16.3357 9.03575L18.2679 9.55196C18.6276 8.2054 18.6415 6.79988 18.3078 5.44697L16.366 5.92592ZM16.3357 9.03575L14.4034 8.51955C14.2172 9.21673 13.8516 9.88634 13.3153 10.4723L14.7906 11.8227L16.2659 13.173C17.2176 12.1333 17.9085 10.8973 18.2679 9.55196L16.3357 9.03575ZM14.7906 11.8227L13.3153 10.4723C12.7781 11.0593 12.0837 11.5461 11.2743 11.8814L12.0399 13.7291L12.8054 15.5768C14.1287 15.0285 15.3152 14.2118 16.2659 13.173L14.7906 11.8227ZM12.0399 13.7291L11.2743 11.8814C10.4648 12.2168 9.57154 12.3874 8.66395 12.3738L8.6339 14.3736L8.60385 16.3733C10.0467 16.395 11.4824 16.125 12.8054 15.5768L12.0399 13.7291ZM8.6339 14.3736L8.66395 12.3738C7.75635 12.3602 6.87128 12.1628 6.07699 11.8043L5.2541 13.6271L4.4312 15.45C5.73502 16.0386 7.16095 16.3517 8.60385 16.3733L8.6339 14.3736ZM5.2541 13.6271L6.11932 11.824L6.0016 11.7675L5.13637 13.5707L4.27114 15.3738L4.38887 15.4303L5.2541 13.6271ZM5.13637 13.5707L4.70105 11.6186L1.15471 12.4095L1.59003 14.3615L2.02535 16.3136L5.57169 15.5227L5.13637 13.5707ZM1.59003 14.3615L1.15172 12.4101C1.33697 12.3685 1.52725 12.3636 1.71291 12.3948L1.38146 14.3671L1.05 16.3395C1.37399 16.3939 1.70659 16.3852 2.02834 16.3129L1.59003 14.3615ZM1.38146 14.3671L1.71291 12.3948C1.89862 12.426 2.08647 12.4946 2.26199 12.6061L1.18943 14.2942L0.116881 15.9823C0.407095 16.1667 0.725972 16.285 1.05 16.3395L1.38146 14.3671ZM1.18943 14.2942L2.26199 12.6061C2.43791 12.7179 2.60318 12.8743 2.73282 13.0764L1.04929 14.1561L-0.634243 15.2358C-0.434637 15.547 -0.173736 15.7976 0.116881 15.9823L1.18943 14.2942ZM1.04929 14.1561L2.73282 13.0764C2.86319 13.2797 2.95134 13.5204 2.97714 13.7818L0.986813 13.9782L-1.00352 14.1747C-0.965356 14.5614 -0.834576 14.9234 -0.634243 15.2358L1.04929 14.1561ZM0.986813 13.9782H2.98681V13.907H0.986813H-1.01319V13.9782H0.986813ZM0.986813 13.907L2.95208 14.2781L2.9657 14.206L1.00043 13.8349L-0.964835 13.4637L-0.978456 13.5359L0.986813 13.907ZM1.00043 13.8349L2.92658 14.3733L3.81195 11.2064L1.8858 10.6679L-0.0403421 10.1294L-0.925711 13.2964L1.00043 13.8349ZM1.8858 10.6679L3.61005 9.65452L3.54875 9.55023L1.82451 10.5636L0.100263 11.577L0.161557 11.6813L1.8858 10.6679ZM1.82451 10.5636L3.56304 9.57494C3.2521 9.02817 3.06643 8.44421 3.00687 7.85383L1.01697 8.05459L-0.972925 8.25534C-0.856017 9.41414 -0.493547 10.5333 0.085972 11.5523L1.82451 10.5636ZM1.01697 8.05459L3.01163 7.90845L2.9873 7.57646L0.99265 7.7226L-1.002 7.86874L-0.97768 8.20073L1.01697 8.05459ZM0.99265 7.7226L2.99214 7.67731L2.98533 7.37661L0.98584 7.42189L-1.01365 7.46718L-1.00684 7.76788L0.99265 7.7226ZM0.98584 7.42189L2.98584 7.42189C2.98584 6.1859 3.53354 4.94798 4.59793 3.9972L3.26556 2.50562L1.9332 1.01405C0.0782249 2.67102 -1.01416 4.96997 -1.01416 7.42189L0.98584 7.42189ZM3.26556 2.50562L4.59793 3.9972C5.66971 3.03982 7.16713 2.46924 8.7693 2.46924L8.7693 0.469238L8.7693 -1.53076C6.24287 -1.53076 3.78078 -0.636322 1.9332 1.01405L3.26556 2.50562ZM8.7693 1.33832L8.76959 -0.66168C7.27265 -0.661897 5.79131 -0.31279 4.47049 0.363358L5.38185 2.14365L6.2932 3.92394C7.03468 3.54436 7.88901 3.33819 8.76901 3.33832L8.7693 1.33832ZM5.38185 2.14365L4.47049 0.363358C3.14905 1.03982 2.02081 2.02771 1.21897 3.2506L2.89149 4.34726L4.56401 5.44393C4.96347 4.83471 5.55235 4.30319 6.2932 3.92394L5.38185 2.14365ZM2.89149 4.34726L1.21897 3.2506C0.415583 4.47584 -0.0267844 5.88783 -0.04193 7.34461L1.95796 7.3654L3.95785 7.38619C3.96478 6.71983 4.16609 6.0508 4.56401 5.44393L2.89149 4.34726ZM1.95796 7.3654L-0.04193 7.34461C-0.0570767 8.80148 0.355923 10.2219 1.13492 11.4622L2.82857 10.3985L4.52223 9.33477C4.13822 8.72335 3.95093 8.05246 3.95785 7.38619L1.95796 7.3654ZM2.82857 10.3985L1.13413 11.461C0.964168 11.1899 0.872132 10.8588 0.893707 10.5111L2.88987 10.6349L4.88603 10.7587C4.91783 10.2462 4.78327 9.75108 4.52302 9.33603L2.82857 10.3985ZM2.88987 10.6349L0.917102 10.306L0.903481 10.3877L2.87625 10.7166L4.84902 11.0455L4.86264 10.9638L2.88987 10.6349ZM2.87625 10.7166L0.950396 10.1771L0.214859 12.8026L2.14071 13.3421L4.06656 13.8816L4.8021 11.2561L2.87625 10.7166ZM2.14071 13.3421L2.57551 15.2942L5.51765 14.639L5.08286 12.6868L4.64807 10.7346L1.70592 11.3899L2.14071 13.3421ZM5.08286 12.6868L5.5131 14.64C5.35144 14.6756 5.18627 14.6832 5.02401 14.6634L5.26577 12.6781L5.50753 10.6928C5.2232 10.6581 4.9339 10.6717 4.65262 10.7336L5.08286 12.6868ZM5.26577 12.6781L4.86199 14.6369L4.95052 14.6552L5.35431 12.6964L5.75809 10.7375L5.66956 10.7193L5.26577 12.6781ZM5.35431 12.6964L4.61085 14.553L4.6955 14.5869L5.43895 12.7302L6.18241 10.8736L6.09776 10.8397L5.35431 12.6964ZM5.43895 12.7302L4.54443 14.5191C5.7074 15.1006 6.99257 15.4312 8.3024 15.4943L8.39872 13.4966L8.49504 11.4989C7.72651 11.4619 6.98667 11.2681 6.33348 10.9414L5.43895 12.7302ZM8.39872 13.4966L8.3024 15.4943C9.61223 15.5575 10.9256 15.3523 12.1446 14.8887L11.4336 13.0193L10.7227 11.1499C10.0267 11.4146 9.26359 11.536 8.49504 11.4989L8.39872 13.4966ZM11.4336 13.0193L12.1446 14.8887C13.3638 14.425 14.4672 13.7107 15.3609 12.7854L13.9224 11.396L12.4838 10.0065C12.0179 10.4889 11.4186 10.8853 10.7227 11.1499L11.4336 13.0193ZM13.9224 11.396L15.3609 12.7854C16.2555 11.8592 16.9171 10.7445 17.275 9.5202L15.3554 8.959L13.4357 8.39781C13.2677 8.97236 12.9489 9.52504 12.4838 10.0065L13.9224 11.396ZM15.3554 8.959L17.275 9.5202C17.6333 8.29452 17.673 7.00694 17.3891 5.76258L15.4392 6.20734L13.4893 6.6521C13.621 7.22954 13.6033 7.82458 13.4357 8.39781L15.3554 8.959ZM15.4392 6.20734L17.3891 5.76258C17.1056 4.51935 16.5109 3.36953 15.67 2.39658L14.1568 3.70434L12.6436 5.0121C13.0746 5.51086 13.3573 6.07354 13.4893 6.6521L15.4392 6.20734ZM14.1568 3.70434L15.67 2.39658C14.8301 1.42472 13.7675 0.655029 12.5749 0.13127L11.7707 1.96246L10.9665 3.79365C11.6417 4.09019 12.2116 4.51226 12.6436 5.0121L14.1568 3.70434ZM11.7707 1.96246L12.5749 0.13127C11.3825 -0.392376 10.0817 -0.661078 8.77022 -0.661679L8.7693 1.33832L8.76838 3.33832C9.53829 3.33867 10.291 3.497 10.9665 3.79365L11.7707 1.96246ZM9.25577 8.29098L9.25906 10.291C8.94394 10.2915 8.60788 10.1884 8.32147 9.9552L9.58441 8.4044L10.8473 6.8536C10.3813 6.47403 9.81072 6.29006 9.25248 6.29098L9.25577 8.29098ZM9.58441 8.4044L8.32147 9.9552C8.02966 9.71755 7.79784 9.34577 7.75138 8.88835L9.74114 8.68625L11.7309 8.48416C11.6625 7.81045 11.3188 7.23756 10.8473 6.8536L9.58441 8.4044ZM9.74114 8.68625L7.75138 8.88835C7.70457 8.42748 7.85897 7.99959 8.12146 7.69154L9.64375 8.9887L11.166 10.2859C11.5758 9.80501 11.7997 9.16132 11.7309 8.48416L9.74114 8.68625ZM9.64375 8.9887L8.12146 7.69154C8.37748 7.39109 8.70916 7.22968 9.02402 7.17876L9.34333 9.15311L9.66264 11.1275C10.2167 11.0378 10.7628 10.7591 11.166 10.2859L9.64375 8.9887ZM9.34333 9.15311L9.18502 7.15938L9.09746 7.16633L9.25577 9.16006L9.41408 11.1538L9.50164 11.1468L9.34333 9.15311ZM9.25577 9.16006V7.16006H6.33697V9.16006V11.1601H9.25577V9.16006ZM6.33697 9.16006L6.33368 7.16006C6.64879 7.15954 6.98485 7.26258 7.27127 7.49584L6.00833 9.04664L4.74539 10.5974C5.21147 10.977 5.78202 11.161 6.34026 11.1601L6.33697 9.16006ZM6.00833 9.04664L7.27127 7.49584C7.56309 7.73349 7.7949 8.10528 7.84136 8.56269L5.8516 8.76478L3.86183 8.96688C3.93026 9.64057 4.2739 10.2135 4.74539 10.5974L6.00833 9.04664ZM5.8516 8.76478L7.84136 8.56269C7.88817 9.02354 7.73377 9.45144 7.47128 9.75949L5.94898 8.46233L4.42669 7.16517C4.01694 7.64604 3.79306 8.28973 3.86183 8.96688L5.8516 8.76478ZM5.94898 8.46233L7.47128 9.75949C7.21526 10.0599 6.88358 10.2214 6.56872 10.2723L6.24941 8.29793L5.9301 6.32358C5.376 6.4132 4.82996 6.69191 4.42669 7.16517L5.94898 8.46233ZM6.24941 8.29793L6.40772 10.2917L6.49528 10.2847L6.33697 8.29098L6.17866 6.29725L6.0911 6.3042L6.24941 8.29793ZM6.33697 8.29098V10.291H9.25577V8.29098V6.29098H6.33697V8.29098ZM11.2016 5.68373L11.2049 7.68373C10.8898 7.68425 10.5537 7.5812 10.2673 7.34795L11.5303 5.79715L12.7932 4.24635C12.3271 3.86679 11.7566 3.68282 11.1983 3.68373L11.2016 5.68373ZM11.5303 5.79715L10.2673 7.34795C9.97552 7.11031 9.7437 6.73852 9.69724 6.2811L11.687 6.07901L13.6768 5.87691C13.6083 5.20321 13.2647 4.63032 12.7932 4.24635L11.5303 5.79715ZM11.687 6.07901L9.69724 6.2811C9.65043 5.82023 9.80484 5.39234 10.0673 5.0843L11.5896 6.38146L13.1119 7.67862C13.5217 7.19776 13.7455 6.55407 13.6768 5.87691L11.687 6.07901ZM11.5896 6.38146L10.0673 5.0843C10.3233 4.78385 10.655 4.62244 10.9699 4.57151L11.2892 6.54586L11.6085 8.52021C12.1626 8.43059 12.7086 8.15188 13.1119 7.67862L11.5896 6.38146ZM11.2892 6.54586L11.1309 4.55213L11.0433 4.55909L11.2016 6.55281L11.3599 8.54654L11.4475 8.53958L11.2892 6.54586ZM11.2016 6.55281V4.55281H6.33697V6.55281V8.55281H11.2016V6.55281ZM6.33697 6.55281L6.33368 4.55282C6.64879 4.5523 6.98485 4.65534 7.27127 4.88859L6.00833 6.43939L4.74539 7.99019C5.21147 8.36976 5.78202 8.55373 6.34026 8.55281L6.33697 6.55281ZM6.00833 6.43939L7.27127 4.88859C7.56309 5.12624 7.7949 5.49803 7.84136 5.95544L5.8516 6.15754L3.86183 6.35963C3.93026 7.03333 4.2739 7.60622 4.74539 7.99019L6.00833 6.43939ZM5.8516 6.15754L7.84136 5.95544C7.88817 6.4163 7.73377 6.84419 7.47128 7.15224L5.94898 5.85509L4.42669 4.55793C4.01694 5.03879 3.79306 5.68248 3.86183 6.35963L5.8516 6.15754ZM5.94898 5.85509L7.47128 7.15224C7.21526 7.4527 6.88358 7.61411 6.56872 7.66503L6.24941 5.69068L5.9301 3.71634C5.376 3.80595 4.82996 4.08466 4.42669 4.55793L5.94898 5.85509ZM6.24941 5.69068L6.40772 7.68441L6.49528 7.67746L6.33697 5.68373L6.17866 3.69001L6.0911 3.69696L6.24941 5.69068ZM6.33697 5.68373V7.68373H11.2016V5.68373V3.68373H6.33697V5.68373Z" fill="#7CC0F7" mask="url(#path-1-inside-1_224_362)"/>
</svg>
