<svg width="35" height="31" viewBox="0 0 35 31" fill="none" xmlns="http://www.w3.org/2000/svg">
<path d="M17.8677 0.539795C20.4052 0.541115 22.9101 1.05976 25.1938 2.05737C27.4776 3.055 29.4817 4.50577 31.0552 6.30151C32.6288 8.0974 33.7317 10.1918 34.2788 12.4275C34.8258 14.6632 34.8026 16.982 34.2124 19.2087C33.6222 21.4354 32.4805 23.5122 30.8726 25.283C29.2647 27.0537 27.2327 28.4726 24.9302 29.4343C22.6275 30.396 20.1129 30.8761 17.5757 30.8376C15.0385 30.7992 12.5433 30.2436 10.2778 29.2126L10.2759 29.2117L10.0532 29.1042L2.47314 30.8083C2.3139 30.8444 2.14809 30.8493 1.98682 30.822C1.82545 30.7947 1.67143 30.7365 1.53662 30.6501C1.40184 30.5638 1.28882 30.4509 1.20557 30.3201C1.12232 30.1892 1.071 30.0429 1.05615 29.8914L1.05518 29.8816H1.05615V29.7175L1.05713 29.7087L1.08643 29.5525L1.08838 29.5447L2.97803 22.7283L2.86865 22.5408L2.86768 22.5388C1.90509 20.8325 1.31248 18.9762 1.12158 17.0691L1.12061 17.0662L1.06885 16.3474L1.06787 16.3425L1.06885 16.3416L1.0542 15.6912V15.6892C1.05426 11.6678 2.82798 7.81348 5.98193 4.97339C9.13574 2.13362 13.4116 0.539894 17.8677 0.539795ZM12.4712 17.6843C12.2369 17.7229 12.0296 17.8394 11.8882 18.0066C11.7469 18.1738 11.6809 18.3808 11.7017 18.5867C11.7225 18.7925 11.8289 18.9861 12.0024 19.1287C12.1765 19.2716 12.406 19.3527 12.645 19.3523H18.9048L19.0854 19.3376C19.3201 19.2992 19.5279 19.1838 19.6694 19.0164C19.8108 18.8491 19.8767 18.6422 19.856 18.4363C19.8352 18.2302 19.729 18.036 19.5552 17.8933C19.3811 17.7504 19.1516 17.6703 18.9126 17.6707H12.6528L12.4712 17.6843ZM12.4712 12.0408C12.2371 12.0793 12.0295 12.195 11.8882 12.3621C11.7469 12.5292 11.681 12.7364 11.7017 12.9421C11.7224 13.1481 11.8287 13.3424 12.0024 13.4851C12.1766 13.628 12.406 13.7082 12.645 13.7078H23.0913L23.2642 13.6931C23.4986 13.6546 23.7067 13.5402 23.8481 13.3728C23.9895 13.2055 24.0544 12.9986 24.0337 12.7927C24.0129 12.5867 23.9076 12.3925 23.7339 12.2498C23.6033 12.1426 23.4415 12.0709 23.2681 12.0417L23.0913 12.0271H12.645V12.0261L12.4712 12.0408Z" fill="#7CC0F7" stroke="#7CC0F7" stroke-width="0.2"/>
</svg>
