<svg width="36" height="32" viewBox="0 0 36 32" fill="none" xmlns="http://www.w3.org/2000/svg">
<path d="M32.6886 0.709543C32.2151 0.829584 31.4615 1.20971 30.9747 1.58317C30.4478 1.97663 29.1674 3.12368 28.2004 4.06399L27.4335 4.8109L26.2731 4.45078C25.6329 4.25072 25.0727 4.084 25.0327 4.084C24.886 4.084 24.8726 3.98396 24.9527 3.60384C25.026 3.25706 25.0194 3.21037 24.8526 2.87026C24.6259 2.41011 24.2658 2.14335 23.819 2.09667C23.3988 2.05666 23.0454 2.23672 22.4985 2.76356L22.0851 3.15702L21.4315 2.95695C20.8046 2.77023 19.4308 2.35676 17.3702 1.71655C16.1297 1.32975 16.1297 1.33642 15.8563 1.4698C15.4962 1.65652 14.1491 2.82358 14.0691 3.02364C13.9223 3.37043 14.0757 3.52381 15.2695 4.21737C15.8763 4.57749 17.03 5.25105 17.837 5.73121C18.6439 6.2047 19.9643 6.97829 20.7713 7.45178C22.9453 8.71887 23.1587 8.85224 23.1854 8.91893C23.1921 8.95895 22.812 9.43244 22.3318 9.98595C21.8516 10.5328 21.1981 11.2997 20.8847 11.6732L20.3178 12.3667L19.8777 12.3267C19.6376 12.3001 18.8506 12.22 18.1237 12.14C16.5899 11.9733 16.7633 11.9199 15.843 12.8002C14.9494 13.6538 14.9694 13.6938 16.8166 14.6542C17.5902 15.061 18.2638 15.4211 18.3171 15.4544C18.3972 15.5145 18.3772 15.5945 18.2171 15.9546C17.957 16.5348 17.917 16.7415 18.0037 16.9616C18.1638 17.3417 18.6239 17.3684 19.3575 17.0416C19.5642 16.9483 19.7509 16.8816 19.7643 16.8949C19.7843 16.9082 20.0911 17.5818 20.4578 18.3887C21.1647 19.9626 21.2248 20.036 21.6382 19.9292C21.8183 19.8826 22.832 18.9756 22.9853 18.7222C23.0854 18.5621 23.0921 17.7752 23.0054 16.3281C22.9587 15.5545 22.9653 15.2344 23.0187 15.1743C23.0587 15.121 23.7323 14.5941 24.5192 14.0006C26.4732 12.5201 26.4665 12.5268 26.5065 12.5601C26.5199 12.5801 27.5869 14.6942 28.8806 17.255C30.1677 19.8225 31.2548 21.9633 31.2881 22.0033C31.3281 22.05 31.4748 22.09 31.6215 22.09C31.8683 22.09 31.935 22.0433 32.6752 21.3164C33.1087 20.8962 33.5022 20.4561 33.5489 20.3427C33.6155 20.176 33.6089 20.0626 33.5155 19.6625C33.4488 19.4024 33.1621 18.1553 32.8686 16.8882C32.5819 15.6212 32.3151 14.4674 32.2818 14.3274C32.2217 14.0873 32.2284 14.054 32.3951 13.9273C33.1154 13.3737 33.4688 12.8802 33.4755 12.4468C33.4755 12.3401 33.3955 12.0866 33.3021 11.8999C33.0153 11.3264 32.4885 11.0997 31.7082 11.233C31.5949 11.253 31.5549 11.1263 31.2948 9.92593L31.008 8.59883L31.6549 7.99196C32.9286 6.81824 34.1557 5.57782 34.5092 5.11767C34.7092 4.85759 34.996 4.37743 35.156 4.05065C35.4428 3.45712 35.4428 3.44378 35.4428 2.71688C35.4428 2.09 35.4228 1.94329 35.2961 1.70988C35.0694 1.28974 34.8559 1.06299 34.4758 0.856258C34.1957 0.702875 34.029 0.662861 33.5822 0.642855C33.2688 0.629517 32.8953 0.656193 32.6886 0.709543ZM34.1024 1.66986C34.5692 1.94329 34.7092 2.46346 34.5158 3.22371C34.2958 4.084 34.0223 4.42411 31.955 6.46479L30.0544 8.34541L30.3078 9.49912C30.4412 10.1327 30.7346 11.4331 30.948 12.3867C31.1681 13.3404 31.4482 14.6008 31.5815 15.1877C31.7149 15.7745 31.935 16.7482 32.075 17.3551C32.2151 17.9619 32.4085 18.8089 32.5085 19.249L32.6886 20.036L32.2351 20.4961C31.9883 20.7495 31.7549 20.9296 31.7282 20.9029C31.6949 20.8696 31.0614 19.6158 30.3078 18.1153C28.8473 15.181 27.1267 11.8132 26.9667 11.5665C26.9 11.4598 26.8066 11.4198 26.6466 11.4198C26.4598 11.4198 26.2731 11.5331 25.6262 12.04C24.906 12.6068 22.8186 14.174 22.2784 14.5541L22.0517 14.7075L22.0917 15.8479C22.1184 16.4748 22.1517 17.2884 22.1784 17.6552L22.2184 18.322L21.9183 18.5755L21.6116 18.8222L21.4849 18.5421C21.4115 18.3821 21.1381 17.7752 20.8713 17.1883C20.6112 16.6015 20.3511 16.0546 20.2978 15.9679C20.1711 15.7679 19.931 15.7812 19.5375 16.0013C19.3575 16.1013 19.1908 16.1613 19.1641 16.1413C19.1441 16.1147 19.1774 15.9946 19.2508 15.8746C19.4508 15.5345 19.5242 15.2677 19.4642 15.1077C19.4308 15.0076 19.0974 14.8076 18.3905 14.4541C17.8303 14.1673 17.1768 13.8339 16.95 13.7005L16.5232 13.4671L16.79 13.207L17.05 12.9403L18.7906 13.1203C19.7509 13.2204 20.5779 13.287 20.6312 13.267C20.6846 13.247 21.1447 12.7402 21.6516 12.1467C22.1584 11.5465 22.932 10.6528 23.3721 10.1593C24.2991 9.11233 24.4058 8.97228 24.4058 8.77889C24.4058 8.59216 24.2991 8.50546 23.4055 7.97862C22.9853 7.73187 22.1317 7.23171 21.5049 6.86492C20.8847 6.49813 20.0244 5.99796 19.6042 5.75121C19.1841 5.50447 18.3438 5.01097 17.7369 4.65085C17.1301 4.29073 16.3298 3.81724 15.9564 3.59717C15.5762 3.37709 15.2695 3.16369 15.2695 3.12368C15.2695 3.05699 15.943 2.47013 16.1698 2.33675C16.2164 2.31007 16.6699 2.41678 17.1768 2.57683C17.6903 2.73688 18.5706 3.01031 19.1374 3.1837C19.7043 3.35709 20.5912 3.63051 21.1047 3.7839C21.6182 3.94395 22.6986 4.27739 23.5055 4.52414C24.3125 4.76422 25.2594 5.05765 25.6062 5.16435C27.1267 5.63784 27.5602 5.75121 27.6669 5.71787C27.7269 5.70453 28.2404 5.25105 28.8073 4.71087C31.2681 2.39677 32.1617 1.72988 33.0087 1.55649C33.3888 1.47647 33.8489 1.52982 34.1024 1.66986ZM24.0324 3.14368C24.1057 3.23038 24.1324 3.32374 24.1057 3.43711C24.0324 3.72388 23.9323 3.76389 23.5655 3.64385C23.0987 3.4838 23.072 3.43711 23.3255 3.21037C23.5789 2.98363 23.8656 2.95695 24.0324 3.14368ZM32.4418 12.1867C32.5352 12.2734 32.6085 12.4001 32.6085 12.4601C32.6085 12.5935 32.1551 13.0336 32.055 13.0003C32.0017 12.9869 31.8283 12.4268 31.8083 12.2134C31.8083 12.1667 32.075 12.0333 32.1951 12.0266C32.2418 12.02 32.3551 12.0933 32.4418 12.1867Z" fill="#7CC0F7"/>
<path d="M9.76729 9.71256C9.41384 9.86594 9.14708 10.146 8.9937 10.5195C8.88699 10.7729 8.79363 10.8996 8.70693 10.913C8.62691 10.933 7.98003 10.973 7.25979 11.013C5.62591 11.1064 5.23245 11.1797 4.78563 11.4465C4.14542 11.8266 3.86533 12.4668 3.86533 13.5338V14.1407L3.17844 14.1674C2.59157 14.1874 2.43819 14.2141 2.10475 14.3808C1.67794 14.5942 1.38451 14.9676 1.2578 15.4678C1.20445 15.6745 1.13776 15.7612 0.997712 15.8212C0.89101 15.8679 0.764302 15.968 0.710951 16.048C0.577573 16.2547 0.524222 17.155 0.577573 18.5221L0.617586 19.7225L0.837659 19.9359L1.05106 20.156H1.80465C2.63159 20.1494 2.79164 20.1027 3.00504 19.7826C3.11842 19.6025 3.13175 19.4558 3.13175 17.9553C3.13175 16.4281 3.12508 16.3081 2.99171 16.0947C2.91835 15.9746 2.79831 15.8613 2.72495 15.8413C2.57157 15.8012 2.5649 15.7546 2.69161 15.5878C2.77163 15.4811 2.885 15.4545 3.32515 15.4345L3.86533 15.4078L3.87867 21.8299L3.89867 28.2587L4.04539 28.5321C4.21878 28.8589 4.60558 29.2124 4.83232 29.259C5.3925 29.3724 5.33248 29.2724 5.33248 30.146C5.33248 31.4331 5.43252 31.5131 7.13308 31.4731L8.22011 31.4464L8.4135 31.2397C8.60023 31.0263 8.60023 31.013 8.60023 30.1927V29.3591H12.8683H17.1364V30.0926C17.1364 31.4331 17.2431 31.5131 18.9103 31.4798L20.004 31.4598L20.1841 31.273C20.3641 31.093 20.3708 31.0663 20.3908 30.2194C20.4108 29.6325 20.4375 29.3457 20.4908 29.3257C20.5375 29.3124 20.6842 29.2857 20.8243 29.259C21.1244 29.2124 21.4912 28.9056 21.6912 28.5321C21.838 28.2587 21.838 28.2187 21.858 24.5641L21.878 20.8763L21.6912 20.9096C21.4245 20.963 20.911 20.8362 20.6376 20.6562L20.4041 20.4961V21.2564V22.0233H12.8683H5.33248V18.5555V15.0877H10.3675C13.1351 15.0877 15.4025 15.0677 15.4025 15.0343C15.4025 15.0076 15.2691 14.9009 15.1024 14.7942C14.7423 14.5675 14.5022 14.2741 14.4222 13.954L14.3621 13.7206L11.6079 13.6872L8.85365 13.6539L8.72694 13.4938C8.58023 13.3138 8.56022 12.8469 8.68693 12.6802C8.88033 12.4268 8.9937 12.4201 11.9347 12.4201H14.8156L15.3491 11.92C16.1561 11.173 16.3095 11.113 17.3898 11.133C17.87 11.1464 18.2701 11.1264 18.2701 11.093C18.2701 11.0597 17.8966 11.013 17.4432 10.9863L16.6096 10.9396L16.4962 10.6129C16.4295 10.4328 16.2894 10.186 16.1894 10.0593C15.8226 9.61252 15.856 9.61919 12.7549 9.61919C10.6076 9.62586 9.92067 9.64587 9.76729 9.71256ZM7.4932 25.091C8.4135 25.6578 7.97336 27.0917 6.88633 27.0917C5.95269 27.0917 5.45919 25.9179 6.11274 25.2577C6.50621 24.8642 7.02638 24.7976 7.4932 25.091ZM19.4372 25.091C20.2508 25.5912 19.9973 26.9183 19.057 27.065C18.6769 27.1317 18.3635 27.0383 18.1101 26.8049C17.5232 26.2447 17.6766 25.3644 18.4368 25.011C18.7636 24.8576 19.1037 24.8843 19.4372 25.091ZM15.6759 25.5578C15.816 25.6378 15.8426 25.8246 15.7226 25.9446C15.6626 26.0046 14.9423 26.0246 12.895 26.0246C10.4809 26.0246 10.1274 26.0113 10.0407 25.9179C9.98069 25.8646 9.93401 25.7912 9.93401 25.7579C9.93401 25.7245 9.98069 25.6512 10.0407 25.5978C10.1274 25.5045 10.4809 25.4911 12.8416 25.4911C14.5755 25.4911 15.5892 25.5178 15.6759 25.5578ZM15.7893 26.6848C15.8026 26.7715 15.7893 26.8649 15.7559 26.8983C15.7226 26.9316 14.4422 26.9583 12.915 26.9649C10.0941 26.9716 9.93401 26.9583 9.93401 26.7315C9.93401 26.4981 10.054 26.4915 12.935 26.5048L15.7693 26.5248L15.7893 26.6848Z" fill="#7CC0F7"/>
</svg>
