<svg width="36" height="32" viewBox="0 0 36 32" fill="none" xmlns="http://www.w3.org/2000/svg">
<path d="M32.5354 0.684095C32.0669 0.802883 31.3211 1.17905 30.8394 1.54861C30.318 1.93797 29.051 3.07305 28.0941 4.00356L27.3351 4.74269L26.1869 4.38632C25.5533 4.18834 24.999 4.02336 24.9594 4.02336C24.8142 4.02336 24.801 3.92437 24.8802 3.54821C24.9528 3.20504 24.9462 3.15884 24.7812 2.82228C24.5568 2.36692 24.2005 2.10295 23.7583 2.05676C23.3425 2.01716 22.9928 2.19534 22.4516 2.71669L22.0425 3.10605L21.3957 2.90807C20.7754 2.72329 19.4159 2.31413 17.3768 1.6806C16.1493 1.29783 16.1493 1.30443 15.8787 1.43642C15.5223 1.6212 14.1893 2.77608 14.1101 2.97406C13.9649 3.31723 14.1167 3.46901 15.298 4.15534C15.8985 4.51171 17.0402 5.17824 17.8387 5.65339C18.6372 6.12195 19.9439 6.88747 20.7424 7.35602C22.8938 8.60989 23.105 8.74188 23.1314 8.80787C23.138 8.84747 22.7618 9.31602 22.2867 9.86377C21.8115 10.4049 21.1648 11.1638 20.8546 11.5334L20.2937 12.2197L19.8581 12.1801C19.6205 12.1537 18.8418 12.0745 18.1225 11.9953C16.6046 11.8304 16.7762 11.7776 15.8655 12.6487C14.9812 13.4934 15.001 13.533 16.829 14.4833C17.5945 14.8859 18.2611 15.2422 18.3139 15.2752C18.393 15.3346 18.3732 15.4138 18.2149 15.7702C17.9575 16.3443 17.9179 16.5489 18.0037 16.7667C18.1621 17.1428 18.6174 17.1692 19.3434 16.8459C19.5479 16.7535 19.7327 16.6875 19.7459 16.7007C19.7657 16.7139 20.0693 17.3804 20.4322 18.1789C21.1318 19.7364 21.1912 19.809 21.6003 19.7034C21.7785 19.6572 22.7816 18.7597 22.9334 18.5089C23.0324 18.3505 23.039 17.5718 22.9532 16.1397C22.907 15.3742 22.9136 15.0574 22.9664 14.998C23.006 14.9453 23.6725 14.4239 24.4512 13.8366C26.3848 12.3715 26.3782 12.3781 26.4178 12.4111C26.431 12.4309 27.4869 14.5229 28.7672 17.057C30.0409 19.5978 31.1166 21.7162 31.1496 21.7558C31.1891 21.802 31.3343 21.8416 31.4795 21.8416C31.7237 21.8416 31.7897 21.7954 32.5222 21.076C32.9512 20.6603 33.3405 20.2247 33.3867 20.1125C33.4527 19.9475 33.4461 19.8354 33.3537 19.4394C33.2877 19.182 33.004 17.9479 32.7136 16.6941C32.4298 15.4402 32.1659 14.2985 32.1329 14.1599C32.0735 13.9224 32.0801 13.8894 32.245 13.764C32.9578 13.2162 33.3075 12.7279 33.3141 12.2989C33.3141 12.1933 33.2349 11.9426 33.1426 11.7578C32.8588 11.1902 32.3374 10.9659 31.5653 11.0978C31.4531 11.1176 31.4135 10.9923 31.1562 9.80437L30.8724 8.4911L31.5125 7.89057C32.773 6.72908 33.9873 5.50161 34.337 5.04625C34.535 4.78888 34.8188 4.31373 34.9772 3.99036C35.2609 3.40302 35.2609 3.38982 35.2609 2.67049C35.2609 2.05016 35.2411 1.90497 35.1158 1.674C34.8914 1.25824 34.6802 1.03386 34.304 0.829281C34.0269 0.677496 33.8619 0.637901 33.4197 0.618103C33.1096 0.604904 32.74 0.6313 32.5354 0.684095ZM33.9345 1.6344C34.3964 1.90497 34.535 2.41972 34.3436 3.17204C34.1259 4.02336 33.8553 4.35992 31.8095 6.37932L29.9287 8.24033L30.1795 9.38201C30.3114 10.009 30.6018 11.2958 30.813 12.2395C31.0308 13.1832 31.3079 14.4305 31.4399 15.0112C31.5719 15.592 31.7897 16.5555 31.9283 17.156C32.0669 17.7566 32.2582 18.5947 32.3572 19.0302L32.5354 19.809L32.0867 20.2643C31.8425 20.5151 31.6115 20.6933 31.5851 20.6669C31.5521 20.6339 30.9252 19.3932 30.1795 17.9084C28.7342 15.0046 27.0316 11.672 26.8732 11.4278C26.8072 11.3222 26.7148 11.2826 26.5564 11.2826C26.3716 11.2826 26.1869 11.3948 25.5467 11.8964C24.834 12.4573 22.7684 14.0081 22.2339 14.3843L22.0095 14.5361L22.0491 15.6646C22.0755 16.2849 22.1085 17.09 22.1349 17.453L22.1745 18.1129L21.8775 18.3637L21.5739 18.6079L21.4485 18.3307C21.3759 18.1723 21.1054 17.5718 20.8414 16.991C20.584 16.4103 20.3267 15.8692 20.2739 15.7834C20.1485 15.5854 19.9109 15.5986 19.5215 15.8164C19.3434 15.9154 19.1784 15.9747 19.152 15.9549C19.1322 15.9286 19.1652 15.8098 19.2378 15.691C19.4357 15.3544 19.5083 15.0904 19.4489 14.9321C19.4159 14.8331 19.086 14.6351 18.3864 14.2853C17.8321 14.0015 17.1854 13.6716 16.961 13.5396L16.5386 13.3086L16.8026 13.0512L17.06 12.7873L18.7824 12.9655C19.7327 13.0644 20.551 13.1304 20.6038 13.1106C20.6566 13.0908 21.112 12.5893 21.6135 12.0019C22.1151 11.408 22.8806 10.5237 23.3161 10.0353C24.2335 8.99925 24.339 8.86067 24.339 8.66929C24.339 8.48451 24.2335 8.39871 23.3491 7.87737C22.9334 7.63319 22.0887 7.13824 21.4683 6.77528C20.8546 6.41232 20.0033 5.91737 19.5875 5.67319C19.1718 5.42902 18.3403 4.94066 17.7397 4.5843C17.1392 4.22794 16.3473 3.75938 15.9777 3.54161C15.6015 3.32383 15.298 3.11265 15.298 3.07305C15.298 3.00706 15.9645 2.42632 16.1889 2.29433C16.2351 2.26793 16.6838 2.37352 17.1854 2.53191C17.6935 2.69029 18.5646 2.96087 19.1256 3.13245C19.6865 3.30403 20.5642 3.5746 21.0724 3.72639C21.5805 3.88477 22.6496 4.21474 23.4481 4.45891C24.2467 4.69649 25.1838 4.98686 25.5269 5.09245C27.0316 5.561 27.4605 5.67319 27.5661 5.64019C27.6255 5.627 28.1337 5.17824 28.6946 4.64369C31.1298 2.35373 32.0141 1.69379 32.8522 1.52221C33.2283 1.44302 33.6837 1.49581 33.9345 1.6344ZM23.9695 3.09285C24.0421 3.17864 24.0685 3.27103 24.0421 3.38322C23.9695 3.66699 23.8705 3.70659 23.5075 3.5878C23.0456 3.42942 23.0192 3.38322 23.27 3.15885C23.5207 2.93447 23.8045 2.90807 23.9695 3.09285ZM32.2912 12.0415C32.3836 12.1273 32.4562 12.2527 32.4562 12.3121C32.4562 12.4441 32.0075 12.8797 31.9085 12.8467C31.8557 12.8335 31.6841 12.2791 31.6643 12.0679C31.6643 12.0217 31.9283 11.8898 32.0471 11.8832C32.0933 11.8766 32.2054 11.9492 32.2912 12.0415Z" fill="#7CC0F7"/>
<path d="M33.9345 1.6344C34.3964 1.90497 34.535 2.41972 34.3436 3.17204C34.1259 4.02336 33.8553 4.35992 31.8095 6.37932L29.9287 8.24033L30.1795 9.38201C30.3114 10.009 30.6018 11.2958 30.813 12.2395C31.0308 13.1832 31.3079 14.4305 31.4399 15.0112C31.5719 15.592 31.7897 16.5555 31.9283 17.156C32.0669 17.7566 32.2582 18.5947 32.3572 19.0302L32.5354 19.809L32.0867 20.2643C31.8425 20.5151 31.6115 20.6933 31.5851 20.6669C31.5521 20.6339 30.9252 19.3932 30.1795 17.9084C28.7342 15.0046 27.0316 11.672 26.8732 11.4278C26.8072 11.3222 26.7148 11.2826 26.5564 11.2826C26.3716 11.2826 26.1869 11.3948 25.5467 11.8964C24.834 12.4573 22.7684 14.0081 22.2339 14.3843L22.0095 14.5361L22.0491 15.6646C22.0755 16.2849 22.1085 17.09 22.1349 17.453L22.1745 18.1129L21.8775 18.3637L21.5739 18.6079L21.4485 18.3307C21.3759 18.1723 21.1054 17.5718 20.8414 16.991C20.584 16.4103 20.3267 15.8692 20.2739 15.7834C20.1485 15.5854 19.9109 15.5986 19.5215 15.8164C19.3434 15.9154 19.1784 15.9747 19.152 15.9549C19.1322 15.9286 19.1652 15.8098 19.2378 15.691C19.4357 15.3544 19.5083 15.0904 19.4489 14.9321C19.4159 14.8331 19.086 14.6351 18.3864 14.2853C17.8321 14.0015 17.1854 13.6716 16.961 13.5396L16.5386 13.3086L16.8026 13.0512L17.06 12.7873L18.7824 12.9655C19.7327 13.0644 20.551 13.1304 20.6038 13.1106C20.6566 13.0908 21.112 12.5893 21.6135 12.0019C22.1151 11.408 22.8806 10.5237 23.3161 10.0353C24.2335 8.99925 24.339 8.86067 24.339 8.66929C24.339 8.48451 24.2335 8.39871 23.3491 7.87737C22.9334 7.63319 22.0887 7.13824 21.4683 6.77528C20.8546 6.41232 20.0033 5.91737 19.5875 5.67319C19.1718 5.42902 18.3403 4.94066 17.7397 4.5843C17.1392 4.22794 16.3473 3.75938 15.9777 3.54161C15.6015 3.32383 15.298 3.11265 15.298 3.07305C15.298 3.00706 15.9645 2.42632 16.1889 2.29433C16.2351 2.26793 16.6838 2.37352 17.1854 2.53191C17.6935 2.69029 18.5646 2.96087 19.1256 3.13245C19.6865 3.30403 20.5642 3.5746 21.0724 3.72639C21.5805 3.88477 22.6496 4.21474 23.4481 4.45891C24.2467 4.69649 25.1838 4.98686 25.5269 5.09245C27.0316 5.561 27.4605 5.67319 27.5661 5.64019C27.6255 5.627 28.1337 5.17824 28.6946 4.64369C31.1298 2.35373 32.0141 1.69379 32.8522 1.52221C33.2283 1.44302 33.6837 1.49581 33.9345 1.6344Z" fill="#7CC0F7"/>
<path d="M9.85337 9.5933C9.5036 9.74509 9.23963 10.0223 9.08784 10.3918C8.98225 10.6426 8.88986 10.768 8.80407 10.7812C8.72488 10.801 8.08475 10.8406 7.37202 10.8802C5.75518 10.9726 5.36582 11.0452 4.92367 11.3091C4.29013 11.6853 4.01296 12.3188 4.01296 13.3747V13.9753L3.33323 14.0017C2.75249 14.0215 2.6007 14.0478 2.27074 14.2128C1.84838 14.424 1.55801 14.7936 1.43262 15.2885C1.37983 15.4931 1.31383 15.5789 1.17525 15.6383C1.06966 15.6845 0.94427 15.7835 0.891476 15.8627C0.759489 16.0672 0.706694 16.9582 0.759489 18.311L0.799085 19.4989L1.01686 19.7101L1.22804 19.9279H1.97377C2.79208 19.9213 2.95047 19.8751 3.16165 19.5583C3.27383 19.3801 3.28703 19.2349 3.28703 17.7501C3.28703 16.2388 3.28043 16.12 3.14845 15.9089C3.07585 15.7901 2.95707 15.6779 2.88447 15.6581C2.73269 15.6185 2.72609 15.5723 2.85148 15.4073C2.93067 15.3017 3.04286 15.2753 3.47841 15.2555L4.01296 15.2291L4.02616 21.5843L4.04596 27.946L4.19114 28.2166C4.36272 28.54 4.74548 28.8897 4.96986 28.9359C5.52421 29.0481 5.46481 28.9491 5.46481 29.8136C5.46481 31.0873 5.5638 31.1665 7.24663 31.1269L8.32232 31.1005L8.5137 30.8959C8.69848 30.6848 8.69848 30.6716 8.69848 29.8598V29.0349H12.9221H17.1456V29.7609C17.1456 31.0873 17.2512 31.1665 18.901 31.1335L19.9833 31.1137L20.1615 30.9289C20.3397 30.7508 20.3463 30.7244 20.3661 29.8862C20.3859 29.3055 20.4123 29.0217 20.4651 29.0019C20.5113 28.9887 20.6565 28.9623 20.7951 28.9359C21.092 28.8897 21.455 28.5862 21.653 28.2166C21.7982 27.946 21.7982 27.9064 21.818 24.29L21.8378 20.6406L21.653 20.6736C21.389 20.7264 20.8808 20.601 20.6103 20.4228L20.3793 20.2644V21.0167V21.7757H12.9221H5.46481V18.344V14.9124H10.4473C13.186 14.9124 15.4298 14.8926 15.4298 14.8596C15.4298 14.8332 15.2978 14.7276 15.1328 14.622C14.7765 14.3976 14.5389 14.1072 14.4597 13.7905L14.4003 13.5595L11.6748 13.5265L8.94926 13.4935L8.82387 13.3351C8.67869 13.1569 8.65889 12.695 8.78428 12.53C8.97566 12.2792 9.08784 12.2726 11.9981 12.2726H14.8491L15.377 11.7777C16.1755 11.0386 16.3273 10.9792 17.3964 10.999C17.8716 11.0122 18.2675 10.9924 18.2675 10.9594C18.2675 10.9264 17.898 10.8802 17.4492 10.8538L16.6243 10.8076L16.5121 10.4842C16.4461 10.306 16.3075 10.0619 16.2085 9.93647C15.8456 9.49431 15.8786 9.50091 12.8099 9.50091C10.6849 9.50751 10.0052 9.52731 9.85337 9.5933ZM7.603 24.8114C8.5137 25.3723 8.07815 26.7912 7.00246 26.7912C6.07855 26.7912 5.5902 25.6297 6.23693 24.9763C6.62629 24.587 7.14104 24.521 7.603 24.8114ZM19.4224 24.8114C20.2275 25.3063 19.9767 26.6196 19.0462 26.7648C18.6701 26.8308 18.3599 26.7384 18.1091 26.5074C17.5284 25.953 17.6802 25.0819 18.4325 24.7322C18.7559 24.5804 19.0924 24.6068 19.4224 24.8114ZM15.7004 25.2733C15.839 25.3525 15.8654 25.5373 15.7466 25.6561C15.6872 25.7155 14.9744 25.7353 12.9485 25.7353C10.5595 25.7353 10.2097 25.7221 10.1239 25.6297C10.0645 25.5769 10.0184 25.5043 10.0184 25.4713C10.0184 25.4383 10.0645 25.3657 10.1239 25.3129C10.2097 25.2205 10.5595 25.2073 12.8957 25.2073C14.6115 25.2073 15.6146 25.2337 15.7004 25.2733ZM15.8126 26.3886C15.8258 26.4744 15.8126 26.5668 15.7796 26.5998C15.7466 26.6328 14.4795 26.6592 12.9683 26.6658C10.1767 26.6724 10.0184 26.6592 10.0184 26.4348C10.0184 26.2038 10.1371 26.1972 12.988 26.2104L15.7928 26.2302L15.8126 26.3886Z" fill="#7CC0F7"/>
</svg>
